<svg width="188" height="21" viewBox="0 0 188 21" fill="none" xmlns="http://www.w3.org/2000/svg">
<path d="M5.20954 4.088H6.95954L10.3195 11.858H10.3475L13.7355 4.088H15.4435V14H14.2675V5.684H14.2395L10.6835 14H9.96954L6.41354 5.684H6.38554V14H5.20954V4.088ZM17.6307 8.288C17.9667 7.94267 18.3634 7.69067 18.8207 7.532C19.2874 7.364 19.7587 7.28 20.2347 7.28C21.2054 7.28 21.9054 7.50867 22.3347 7.966C22.764 8.42333 22.9787 9.11867 22.9787 10.052V12.866C22.9787 13.0527 22.988 13.2487 23.0067 13.454C23.0254 13.65 23.0487 13.832 23.0767 14H22.0267C21.9894 13.8507 21.966 13.6873 21.9567 13.51C21.9567 13.3233 21.9567 13.16 21.9567 13.02H21.9287C21.714 13.356 21.4247 13.6313 21.0607 13.846C20.706 14.0607 20.2767 14.168 19.7727 14.168C19.4367 14.168 19.1194 14.126 18.8207 14.042C18.5314 13.958 18.2747 13.8367 18.0507 13.678C17.836 13.51 17.6634 13.3047 17.5327 13.062C17.402 12.8193 17.3367 12.5393 17.3367 12.222C17.3367 11.6807 17.4767 11.256 17.7567 10.948C18.0367 10.64 18.382 10.4113 18.7927 10.262C19.2127 10.1127 19.6607 10.0193 20.1367 9.982C20.622 9.94467 21.0654 9.926 21.4667 9.926H21.8867V9.73C21.8867 9.254 21.742 8.89467 21.4527 8.652C21.1727 8.40933 20.776 8.288 20.2627 8.288C19.908 8.288 19.558 8.34867 19.2127 8.47C18.8767 8.582 18.578 8.75933 18.3167 9.002L17.6307 8.288ZM20.7947 10.85C20.0947 10.85 19.5394 10.948 19.1287 11.144C18.718 11.34 18.5127 11.662 18.5127 12.11C18.5127 12.5207 18.648 12.8147 18.9187 12.992C19.1987 13.16 19.544 13.244 19.9547 13.244C20.272 13.244 20.5474 13.1927 20.7807 13.09C21.0234 12.978 21.224 12.8333 21.3827 12.656C21.5414 12.4787 21.6627 12.2733 21.7467 12.04C21.8307 11.7973 21.8774 11.5407 21.8867 11.27V10.85H20.7947ZM30.4205 12.838H30.3925C30.1871 13.2113 29.8605 13.5287 29.4125 13.79C28.9738 14.042 28.4605 14.168 27.8725 14.168C27.4151 14.168 26.9858 14.084 26.5845 13.916C26.1831 13.7387 25.8331 13.496 25.5345 13.188C25.2451 12.88 25.0165 12.516 24.8485 12.096C24.6805 11.676 24.5965 11.2187 24.5965 10.724C24.5965 10.2293 24.6805 9.772 24.8485 9.352C25.0165 8.932 25.2498 8.568 25.5485 8.26C25.8471 7.952 26.2065 7.714 26.6265 7.546C27.0558 7.36867 27.5271 7.28 28.0405 7.28C28.5165 7.28 28.9505 7.378 29.3425 7.574C29.7438 7.77 30.0938 8.04533 30.3925 8.4H30.4205V3.416H31.5125V14H30.4205V12.838ZM30.4205 10.724C30.4205 10.3787 30.3645 10.0613 30.2525 9.772C30.1498 9.47333 29.9958 9.21667 29.7905 9.002C29.5851 8.778 29.3378 8.60533 29.0485 8.484C28.7685 8.35333 28.4511 8.288 28.0965 8.288C27.7418 8.288 27.4198 8.35333 27.1305 8.484C26.8505 8.60533 26.6078 8.778 26.4025 9.002C26.1971 9.21667 26.0385 9.47333 25.9265 9.772C25.8238 10.0613 25.7725 10.3787 25.7725 10.724C25.7725 11.0693 25.8238 11.3913 25.9265 11.69C26.0385 11.9793 26.1971 12.236 26.4025 12.46C26.6078 12.6747 26.8505 12.8473 27.1305 12.978C27.4198 13.0993 27.7418 13.16 28.0965 13.16C28.4511 13.16 28.7685 13.0993 29.0485 12.978C29.3378 12.8473 29.5851 12.6747 29.7905 12.46C29.9958 12.236 30.1498 11.9793 30.2525 11.69C30.3645 11.3913 30.4205 11.0693 30.4205 10.724ZM39.3851 12.81C38.9931 13.314 38.5637 13.6687 38.0971 13.874C37.6304 14.07 37.0891 14.168 36.4731 14.168C35.9597 14.168 35.4977 14.0793 35.0871 13.902C34.6764 13.7153 34.3264 13.468 34.0371 13.16C33.7571 12.852 33.5377 12.488 33.3791 12.068C33.2297 11.648 33.1551 11.2 33.1551 10.724C33.1551 10.22 33.2391 9.758 33.4071 9.338C33.5751 8.90867 33.8084 8.54467 34.1071 8.246C34.4057 7.938 34.7604 7.7 35.1711 7.532C35.5817 7.364 36.0297 7.28 36.5151 7.28C36.9724 7.28 37.3924 7.35933 37.7751 7.518C38.1577 7.66733 38.4844 7.89133 38.7551 8.19C39.0351 8.47933 39.2497 8.83867 39.3991 9.268C39.5484 9.688 39.6231 10.1687 39.6231 10.71V11.06H34.3311C34.3497 11.34 34.4151 11.6107 34.5271 11.872C34.6484 12.124 34.8024 12.348 34.9891 12.544C35.1757 12.7307 35.3951 12.88 35.6471 12.992C35.8991 13.104 36.1744 13.16 36.4731 13.16C36.9491 13.16 37.3504 13.076 37.6771 12.908C38.0037 12.74 38.2977 12.4927 38.5591 12.166L39.3851 12.81ZM38.4471 10.136C38.4284 9.576 38.2464 9.128 37.9011 8.792C37.5557 8.456 37.0797 8.288 36.4731 8.288C35.8664 8.288 35.3764 8.456 35.0031 8.792C34.6297 9.128 34.4057 9.576 34.3311 10.136H38.4471ZM52.2369 14H51.1589L49.2969 8.96H49.2689L47.6169 14H46.4969L44.3689 7.448H45.5729L47.0709 12.488H47.0989L48.7929 7.448H49.9409L51.6629 12.488H51.6909L53.1749 7.448H54.3509L52.2369 14ZM55.6838 7.448H56.7758V14H55.6838V7.448ZM55.4318 4.886C55.4318 4.67133 55.5065 4.48467 55.6558 4.326C55.8145 4.16733 56.0058 4.088 56.2298 4.088C56.4538 4.088 56.6405 4.16733 56.7898 4.326C56.9485 4.48467 57.0278 4.67133 57.0278 4.886C57.0278 5.11933 56.9531 5.31067 56.8038 5.46C56.6545 5.60933 56.4631 5.684 56.2298 5.684C55.9965 5.684 55.8051 5.60933 55.6558 5.46C55.5065 5.31067 55.4318 5.11933 55.4318 4.886ZM62.5331 8.372H60.6011V11.648C60.6011 11.8627 60.6058 12.0633 60.6151 12.25C60.6244 12.4273 60.6618 12.586 60.7271 12.726C60.7924 12.8567 60.8904 12.964 61.0211 13.048C61.1518 13.1227 61.3384 13.16 61.5811 13.16C61.7398 13.16 61.9031 13.1413 62.0711 13.104C62.2391 13.0667 62.3978 13.0107 62.5471 12.936L62.5891 13.93C62.4024 14.014 62.1924 14.0747 61.9591 14.112C61.7351 14.1493 61.5204 14.168 61.3151 14.168C60.9231 14.168 60.6104 14.1167 60.3771 14.014C60.1438 13.9113 59.9618 13.7667 59.8311 13.58C59.7004 13.3933 59.6118 13.1647 59.5651 12.894C59.5278 12.614 59.5091 12.306 59.5091 11.97V8.372H58.0811V7.448H59.5091V5.586H60.6011V7.448H62.5331V8.372ZM63.8846 3.416H64.9766V8.358H65.0046C65.0793 8.22733 65.182 8.10133 65.3126 7.98C65.4433 7.84933 65.5973 7.73267 65.7746 7.63C65.9613 7.52733 66.1666 7.44333 66.3906 7.378C66.6146 7.31267 66.8526 7.28 67.1046 7.28C67.534 7.28 67.9026 7.34533 68.2106 7.476C68.528 7.60667 68.7893 7.78867 68.9946 8.022C69.2 8.25533 69.3493 8.54 69.4426 8.876C69.5453 9.20267 69.5966 9.562 69.5966 9.954V14H68.5046V10.066C68.5046 9.51533 68.3833 9.08133 68.1406 8.764C67.898 8.44667 67.52 8.288 67.0066 8.288C66.652 8.288 66.344 8.34867 66.0826 8.47C65.8306 8.59133 65.6206 8.764 65.4526 8.988C65.294 9.212 65.1726 9.478 65.0886 9.786C65.014 10.094 64.9766 10.4347 64.9766 10.808V14H63.8846V3.416ZM102.78 3.416H103.872V8.4H103.9C104.198 8.04533 104.544 7.77 104.936 7.574C105.337 7.378 105.776 7.28 106.252 7.28C106.765 7.28 107.232 7.36867 107.652 7.546C108.081 7.714 108.445 7.952 108.744 8.26C109.042 8.568 109.276 8.932 109.444 9.352C109.612 9.772 109.696 10.2293 109.696 10.724C109.696 11.2187 109.612 11.676 109.444 12.096C109.276 12.516 109.042 12.88 108.744 13.188C108.454 13.496 108.109 13.7387 107.708 13.916C107.306 14.084 106.877 14.168 106.42 14.168C105.832 14.168 105.314 14.042 104.866 13.79C104.427 13.5287 104.105 13.2113 103.9 12.838H103.872V14H102.78V3.416ZM103.872 10.724C103.872 11.0693 103.923 11.3913 104.026 11.69C104.138 11.9793 104.296 12.236 104.502 12.46C104.707 12.6747 104.95 12.8473 105.23 12.978C105.519 13.0993 105.841 13.16 106.196 13.16C106.55 13.16 106.868 13.0993 107.148 12.978C107.437 12.8473 107.684 12.6747 107.89 12.46C108.095 12.236 108.249 11.9793 108.352 11.69C108.464 11.3913 108.52 11.0693 108.52 10.724C108.52 10.3787 108.464 10.0613 108.352 9.772C108.249 9.47333 108.095 9.21667 107.89 9.002C107.684 8.778 107.437 8.60533 107.148 8.484C106.868 8.35333 106.55 8.288 106.196 8.288C105.841 8.288 105.519 8.35333 105.23 8.484C104.95 8.60533 104.707 8.778 104.502 9.002C104.296 9.21667 104.138 9.47333 104.026 9.772C103.923 10.0613 103.872 10.3787 103.872 10.724ZM113.802 15.498C113.69 15.778 113.574 16.03 113.452 16.254C113.34 16.4873 113.2 16.6833 113.032 16.842C112.874 17.01 112.678 17.136 112.444 17.22C112.22 17.3133 111.945 17.36 111.618 17.36C111.46 17.36 111.292 17.3507 111.114 17.332C110.946 17.3133 110.788 17.2667 110.638 17.192L110.778 16.24C110.89 16.2867 111.007 16.3147 111.128 16.324C111.25 16.3427 111.39 16.352 111.548 16.352C111.903 16.352 112.164 16.254 112.332 16.058C112.5 15.862 112.645 15.6007 112.766 15.274L113.214 14.042L110.498 7.448H111.772L113.802 12.586H113.83L115.776 7.448H116.966L113.802 15.498ZM125.629 8.372H123.697V11.648C123.697 11.8627 123.701 12.0633 123.711 12.25C123.72 12.4273 123.757 12.586 123.823 12.726C123.888 12.8567 123.986 12.964 124.117 13.048C124.247 13.1227 124.434 13.16 124.677 13.16C124.835 13.16 124.999 13.1413 125.167 13.104C125.335 13.0667 125.493 13.0107 125.643 12.936L125.685 13.93C125.498 14.014 125.288 14.0747 125.055 14.112C124.831 14.1493 124.616 14.168 124.411 14.168C124.019 14.168 123.706 14.1167 123.473 14.014C123.239 13.9113 123.057 13.7667 122.927 13.58C122.796 13.3933 122.707 13.1647 122.661 12.894C122.623 12.614 122.605 12.306 122.605 11.97V8.372H121.177V7.448H122.605V5.586H123.697V7.448H125.629V8.372ZM132.819 12.81C132.427 13.314 131.997 13.6687 131.531 13.874C131.064 14.07 130.523 14.168 129.907 14.168C129.393 14.168 128.931 14.0793 128.521 13.902C128.11 13.7153 127.76 13.468 127.471 13.16C127.191 12.852 126.971 12.488 126.813 12.068C126.663 11.648 126.589 11.2 126.589 10.724C126.589 10.22 126.673 9.758 126.841 9.338C127.009 8.90867 127.242 8.54467 127.541 8.246C127.839 7.938 128.194 7.7 128.605 7.532C129.015 7.364 129.463 7.28 129.949 7.28C130.406 7.28 130.826 7.35933 131.209 7.518C131.591 7.66733 131.918 7.89133 132.189 8.19C132.469 8.47933 132.683 8.83867 132.833 9.268C132.982 9.688 133.057 10.1687 133.057 10.71V11.06H127.765C127.783 11.34 127.849 11.6107 127.961 11.872C128.082 12.124 128.236 12.348 128.423 12.544C128.609 12.7307 128.829 12.88 129.081 12.992C129.333 13.104 129.608 13.16 129.907 13.16C130.383 13.16 130.784 13.076 131.111 12.908C131.437 12.74 131.731 12.4927 131.993 12.166L132.819 12.81ZM131.881 10.136C131.862 9.576 131.68 9.128 131.335 8.792C130.989 8.456 130.513 8.288 129.907 8.288C129.3 8.288 128.81 8.456 128.437 8.792C128.063 9.128 127.839 9.576 127.765 10.136H131.881ZM134.746 9.002C134.746 8.70333 134.737 8.42333 134.718 8.162C134.699 7.90067 134.69 7.66267 134.69 7.448H135.726C135.726 7.62533 135.731 7.80267 135.74 7.98C135.749 8.15733 135.754 8.33933 135.754 8.526H135.782C135.857 8.36733 135.959 8.21333 136.09 8.064C136.23 7.91467 136.393 7.784 136.58 7.672C136.767 7.55067 136.977 7.45733 137.21 7.392C137.443 7.31733 137.695 7.28 137.966 7.28C138.395 7.28 138.764 7.34533 139.072 7.476C139.389 7.60667 139.651 7.78867 139.856 8.022C140.061 8.25533 140.211 8.54 140.304 8.876C140.407 9.20267 140.458 9.562 140.458 9.954V14H139.366V10.066C139.366 9.51533 139.245 9.08133 139.002 8.764C138.759 8.44667 138.381 8.288 137.868 8.288C137.513 8.288 137.205 8.34867 136.944 8.47C136.692 8.59133 136.482 8.764 136.314 8.988C136.155 9.212 136.034 9.478 135.95 9.786C135.875 10.094 135.838 10.4347 135.838 10.808V14H134.746V9.002ZM146.109 8.372H144.177V11.648C144.177 11.8627 144.182 12.0633 144.191 12.25C144.201 12.4273 144.238 12.586 144.303 12.726C144.369 12.8567 144.467 12.964 144.597 13.048C144.728 13.1227 144.915 13.16 145.157 13.16C145.316 13.16 145.479 13.1413 145.647 13.104C145.815 13.0667 145.974 13.0107 146.123 12.936L146.165 13.93C145.979 14.014 145.769 14.0747 145.535 14.112C145.311 14.1493 145.097 14.168 144.891 14.168C144.499 14.168 144.187 14.1167 143.953 14.014C143.72 13.9113 143.538 13.7667 143.407 13.58C143.277 13.3933 143.188 13.1647 143.141 12.894C143.104 12.614 143.085 12.306 143.085 11.97V8.372H141.657V7.448H143.085V5.586H144.177V7.448H146.109V8.372ZM154.475 14H153.397L151.535 8.96H151.507L149.855 14H148.735L146.607 7.448H147.811L149.309 12.488H149.337L151.031 7.448H152.179L153.901 12.488H153.929L155.413 7.448H156.589L154.475 14ZM163.676 12.81C163.284 13.314 162.855 13.6687 162.388 13.874C161.921 14.07 161.38 14.168 160.764 14.168C160.251 14.168 159.789 14.0793 159.378 13.902C158.967 13.7153 158.617 13.468 158.328 13.16C158.048 12.852 157.829 12.488 157.67 12.068C157.521 11.648 157.446 11.2 157.446 10.724C157.446 10.22 157.53 9.758 157.698 9.338C157.866 8.90867 158.099 8.54467 158.398 8.246C158.697 7.938 159.051 7.7 159.462 7.532C159.873 7.364 160.321 7.28 160.806 7.28C161.263 7.28 161.683 7.35933 162.066 7.518C162.449 7.66733 162.775 7.89133 163.046 8.19C163.326 8.47933 163.541 8.83867 163.69 9.268C163.839 9.688 163.914 10.1687 163.914 10.71V11.06H158.622C158.641 11.34 158.706 11.6107 158.818 11.872C158.939 12.124 159.093 12.348 159.28 12.544C159.467 12.7307 159.686 12.88 159.938 12.992C160.19 13.104 160.465 13.16 160.764 13.16C161.24 13.16 161.641 13.076 161.968 12.908C162.295 12.74 162.589 12.4927 162.85 12.166L163.676 12.81ZM162.738 10.136C162.719 9.576 162.537 9.128 162.192 8.792C161.847 8.456 161.371 8.288 160.764 8.288C160.157 8.288 159.667 8.456 159.294 8.792C158.921 9.128 158.697 9.576 158.622 10.136H162.738ZM165.603 9.002C165.603 8.70333 165.594 8.42333 165.575 8.162C165.557 7.90067 165.547 7.66267 165.547 7.448H166.583C166.583 7.62533 166.588 7.80267 166.597 7.98C166.607 8.15733 166.611 8.33933 166.611 8.526H166.639C166.714 8.36733 166.817 8.21333 166.947 8.064C167.087 7.91467 167.251 7.784 167.437 7.672C167.624 7.55067 167.834 7.45733 168.067 7.392C168.301 7.31733 168.553 7.28 168.823 7.28C169.253 7.28 169.621 7.34533 169.929 7.476C170.247 7.60667 170.508 7.78867 170.713 8.022C170.919 8.25533 171.068 8.54 171.161 8.876C171.264 9.20267 171.315 9.562 171.315 9.954V14H170.223V10.066C170.223 9.51533 170.102 9.08133 169.859 8.764C169.617 8.44667 169.239 8.288 168.725 8.288C168.371 8.288 168.063 8.34867 167.801 8.47C167.549 8.59133 167.339 8.764 167.171 8.988C167.013 9.212 166.891 9.478 166.807 9.786C166.733 10.094 166.695 10.4347 166.695 10.808V14H165.603V9.002ZM176.967 8.372H175.035V11.648C175.035 11.8627 175.039 12.0633 175.049 12.25C175.058 12.4273 175.095 12.586 175.161 12.726C175.226 12.8567 175.324 12.964 175.455 13.048C175.585 13.1227 175.772 13.16 176.015 13.16C176.173 13.16 176.337 13.1413 176.505 13.104C176.673 13.0667 176.831 13.0107 176.981 12.936L177.023 13.93C176.836 14.014 176.626 14.0747 176.393 14.112C176.169 14.1493 175.954 14.168 175.749 14.168C175.357 14.168 175.044 14.1167 174.811 14.014C174.577 13.9113 174.395 13.7667 174.265 13.58C174.134 13.3933 174.045 13.1647 173.999 12.894C173.961 12.614 173.943 12.306 173.943 11.97V8.372H172.515V7.448H173.943V5.586H175.035V7.448H176.967V8.372ZM180.713 15.498C180.601 15.778 180.484 16.03 180.363 16.254C180.251 16.4873 180.111 16.6833 179.943 16.842C179.784 17.01 179.588 17.136 179.355 17.22C179.131 17.3133 178.855 17.36 178.529 17.36C178.37 17.36 178.202 17.3507 178.025 17.332C177.857 17.3133 177.698 17.2667 177.549 17.192L177.689 16.24C177.801 16.2867 177.917 16.3147 178.039 16.324C178.16 16.3427 178.3 16.352 178.459 16.352C178.813 16.352 179.075 16.254 179.243 16.058C179.411 15.862 179.555 15.6007 179.677 15.274L180.125 14.042L177.409 7.448H178.683L180.713 12.586H180.741L182.687 7.448H183.877L180.713 15.498Z" fill="black"/>
<path d="M90.376 2.00014C92.9246 2.01262 94.9876 4.08783 95 6.65157C95 11.3486 86.5 16 86.5 16C86.5 16 78 11.2802 78 6.65157C78 4.08268 80.0702 2.00014 82.624 2.00014C84.1873 1.98788 85.6488 2.77881 86.5 4.09782C87.3571 2.78523 88.8148 1.99634 90.376 2.00014Z" fill="black"/>
</svg>
