<svg width="25" height="25" viewBox="0 0 25 25" fill="none" xmlns="http://www.w3.org/2000/svg">
<path fill-rule="evenodd" clip-rule="evenodd" d="M12.5 3.96025C15.2814 3.96025 15.6108 3.97087 16.7092 4.02099C17.7249 4.0673 18.2764 4.237 18.6435 4.37965C19.1297 4.56862 19.4767 4.79434 19.8412 5.15883C20.2057 5.52336 20.4314 5.87037 20.6204 6.35659C20.7631 6.72364 20.9328 7.2752 20.9791 8.29081C21.0292 9.38921 21.0398 9.71868 21.0398 12.5C21.0398 15.2814 21.0292 15.6109 20.9791 16.7093C20.9328 17.7249 20.7631 18.2764 20.6204 18.6435C20.4314 19.1297 20.2057 19.4767 19.8412 19.8412C19.4767 20.2057 19.1297 20.4315 18.6435 20.6204C18.2764 20.7631 17.7249 20.9328 16.7092 20.9791C15.611 21.0292 15.2816 21.0398 12.5 21.0398C9.71844 21.0398 9.38905 21.0292 8.29078 20.9791C7.27517 20.9328 6.72361 20.7631 6.35656 20.6204C5.87034 20.4315 5.52333 20.2057 5.15884 19.8412C4.79435 19.4767 4.56859 19.1297 4.37962 18.6435C4.23697 18.2764 4.06727 17.7249 4.02096 16.7093C3.97084 15.6109 3.96022 15.2814 3.96022 12.5C3.96022 9.71868 3.97084 9.38921 4.02096 8.29081C4.06727 7.2752 4.23697 6.72364 4.37962 6.35659C4.56859 5.87037 4.79431 5.52336 5.15884 5.15887C5.52333 4.79434 5.87034 4.56862 6.35656 4.37965C6.72361 4.237 7.27517 4.0673 8.29078 4.02099C9.38918 3.97087 9.71865 3.96025 12.5 3.96025ZM12.5 2.08337C9.67101 2.08337 9.31628 2.09537 8.20523 2.14606C7.0965 2.19663 6.33927 2.37273 5.6767 2.63021C4.99171 2.89642 4.4108 3.2526 3.83166 3.83169C3.25257 4.41083 2.89639 4.99174 2.63023 5.67673C2.3727 6.3393 2.1966 7.09653 2.14603 8.20526C2.09533 9.31631 2.08334 9.67104 2.08334 12.5C2.08334 15.329 2.09533 15.6838 2.14603 16.7948C2.1966 17.9036 2.3727 18.6608 2.63023 19.3234C2.89639 20.0083 3.25257 20.5893 3.83166 21.1684C4.4108 21.7475 4.99171 22.1037 5.6767 22.3698C6.33927 22.6273 7.0965 22.8035 8.20523 22.854C9.31628 22.9047 9.67101 22.9167 12.5 22.9167C15.329 22.9167 15.6837 22.9047 16.7948 22.854C17.9035 22.8035 18.6607 22.6273 19.3233 22.3698C20.0083 22.1037 20.5892 21.7475 21.1684 21.1684C21.7474 20.5893 22.1036 20.0083 22.3698 19.3234C22.6273 18.6608 22.8034 17.9036 22.854 16.7948C22.9047 15.6838 22.9167 15.329 22.9167 12.5C22.9167 9.67104 22.9047 9.31631 22.854 8.20526C22.8034 7.09653 22.6273 6.3393 22.3698 5.67673C22.1036 4.99174 21.7474 4.41083 21.1684 3.83169C20.5892 3.2526 20.0083 2.89642 19.3233 2.63021C18.6607 2.37273 17.9035 2.19663 16.7948 2.14606C15.6837 2.09537 15.329 2.08337 12.5 2.08337ZM12.5 7.29171C9.62351 7.29171 7.29168 9.62354 7.29168 12.5C7.29168 15.3765 9.62351 17.7084 12.5 17.7084C15.3765 17.7084 17.7083 15.3765 17.7083 12.5C17.7083 9.62354 15.3765 7.29171 12.5 7.29171ZM12.5 15.8809C10.6328 15.8809 9.11916 14.3672 9.11916 12.5C9.11916 10.6328 10.6328 9.11919 12.5 9.11919C14.3672 9.11919 15.8809 10.6328 15.8809 12.5C15.8809 14.3672 14.3672 15.8809 12.5 15.8809ZM18.2292 8.33337C19.0921 8.33337 19.7917 7.6338 19.7917 6.7709C19.7917 5.90795 19.0921 5.20837 18.2292 5.20837C17.3663 5.20837 16.6667 5.90795 16.6667 6.7709C16.6667 7.6338 17.3663 8.33337 18.2292 8.33337Z" fill="black"/>
</svg>
