<svg width="25" height="25" viewBox="0 0 25 25" fill="none" xmlns="http://www.w3.org/2000/svg">
<path fill-rule="evenodd" clip-rule="evenodd" d="M4.41423 6.62264C5.8884 6.62264 6.83106 5.61442 6.83106 4.3686C6.8028 3.06223 5.88838 2.08337 4.44247 2.08337C2.99747 2.08337 2.05483 3.06223 2.084 4.3686C2.05483 5.61442 2.99749 6.62264 4.41423 6.62264ZM2.20252 8.4033V22.9137H6.68428V8.4033H2.20252ZM10.1573 8.40555C10.2165 9.68165 10.2758 11.2247 10.2758 13.0347H10.2776V22.9169H14.7594V14.5484C14.7594 14.1319 14.8177 13.7173 14.9362 13.42C15.2307 12.5898 15.9673 11.7293 17.2063 11.7293C18.8282 11.7293 19.4763 13.0044 19.4763 14.875V22.9169H23.9581V14.3099C23.9581 10.0385 21.7464 8.07988 18.7981 8.07988C16.4095 8.07988 14.9353 9.4734 14.3455 10.3936H14.257L14.0501 8.40555H10.1573Z" fill="black"/>
</svg>
