<svg width="200" height="146" viewBox="0 0 200 146" fill="none" xmlns="http://www.w3.org/2000/svg">
<rect width="200" height="145.455" fill="#61B99F"/>
<g clip-path="url(#clip0_1_275)">
<path d="M68.5592 59.3296H69.0907V60.7796C68.7045 60.3325 68.5841 60.0799 68.5592 59.3296Z" fill="white"/>
<path d="M66.3212 59.6173C65.7897 59.5162 65.4284 59.4462 65.1585 59.3296H67.8991C67.7538 59.8972 67.3759 59.8233 66.3212 59.6173Z" fill="white"/>
<path d="M60.8361 61.9186V59.3296H63.8923C63.8632 59.8388 63.5393 60.2431 62.8376 61.1178C61.8866 62.3035 61.6292 62.6261 60.8361 61.9186Z" fill="white"/>
<path d="M63.2483 61.4831C64.1342 60.3739 65.1626 59.9333 66.3336 60.1614C67.5046 60.3894 68.3434 60.7808 68.85 61.3354C68.9413 61.4364 69.0202 61.5259 69.0908 61.6036V62.4122C69.0908 62.4122 69.0742 62.42 69.0659 62.4238C68.706 62.5923 67.4243 62.7556 65.2207 62.9137C63.0199 63.0692 62.3624 62.5936 63.2483 61.487V61.4831Z" fill="white"/>
<path d="M62.8455 65.7629C62.0234 64.9595 61.6455 64.4127 61.7119 64.1224C61.7784 63.8322 62.8414 63.6145 64.901 63.4694C66.9606 63.3242 67.47 63.8749 66.4291 65.1215C65.3882 66.3681 64.7377 66.9888 64.4775 66.9836C64.2172 66.9784 63.6747 66.5728 62.8497 65.7668L62.8455 65.7629Z" fill="white"/>
<path d="M50.2928 61.4599C49.4166 60.2859 49.0346 59.7766 48.9059 59.3296H52.2237V63.4775C51.7711 63.4386 51.5053 63.0848 50.2928 61.4599Z" fill="white"/>
<path d="M60.8359 64.5347V62.8048C61.276 63.2985 61.2802 63.3141 61.2885 63.3568C61.294 63.4035 61.2567 63.6004 61.1764 63.9477C61.1141 64.2159 61.0809 64.3481 60.8359 64.5386V64.5347Z" fill="white"/>
<path d="M43.9645 62.1557V59.3296H47.9052C47.5356 59.7378 46.7965 60.2392 45.231 61.3044C44.7285 61.6465 44.3133 61.9303 43.9603 62.1596L43.9645 62.1557Z" fill="white"/>
<path d="M60.836 70.8946V65.2812C61.4007 65.1179 61.6706 65.3823 62.4472 66.1364C63.2417 66.9113 63.3828 68.0335 62.8707 69.5029C62.2478 71.3028 62.1316 71.6332 60.836 70.8946Z" fill="white"/>
<path d="M45.2434 68.021C44.4336 67.745 44.28 67.6906 43.9686 67.3213V62.8391C44.3506 62.5631 44.8489 62.2249 45.4842 61.7934C47.4165 60.4769 48.8809 60.4859 49.8775 61.8206C50.8741 63.1553 50.8437 64.5716 49.7862 66.0696C48.7287 67.5675 47.8747 68.3256 47.2241 68.3437C46.5736 68.3618 45.9133 68.2556 45.2434 68.0249V68.021Z" fill="white"/>
<path d="M30.0413 59.3296H33.2595V60.904C30.8178 61.0867 30.6268 60.974 30.0413 59.3296Z" fill="white"/>
<path d="M50.8824 70.1982C49.4484 69.0838 49.2532 67.7841 50.2969 66.2991C51.4886 64.6042 51.7752 64.1999 52.2195 64.0638V71.1778C51.8748 70.9718 51.4554 70.6452 50.8782 70.1982H50.8824Z" fill="white"/>
<path d="M60.8359 74.5249V71.5549C62.0359 72.3246 62.0775 72.4296 62.2726 72.9389C62.436 73.3691 61.957 73.8965 60.8359 74.521V74.5249Z" fill="white"/>
<path d="M25.681 62.9216C25.436 62.8788 25.2117 62.8322 25 62.7933V59.3296H29.4473C30.1615 61.3705 30.1573 61.3744 29.5926 62.459C29.2134 63.1872 27.9095 63.3414 25.681 62.9216Z" fill="white"/>
<path d="M31.9391 66.3221C30.4276 65.4953 29.6387 64.8837 29.5722 64.4872C29.5058 64.0907 29.6677 63.5179 30.0581 62.769C30.5979 61.7349 30.6436 61.6494 33.2555 61.4434V66.9868C32.915 66.8624 32.4956 66.6331 31.935 66.326L31.9391 66.3221Z" fill="white"/>
<path d="M47.6019 76.2547C46.4891 75.9774 46.0199 74.6816 46.1943 72.3673C46.3687 70.053 46.7562 68.888 47.357 68.8725C47.9577 68.8569 49.011 69.4336 50.517 70.6024C51.3558 71.2555 51.8832 71.6637 52.2237 71.9824V75.0807C51.962 75.2362 51.6215 75.4189 51.1772 75.6522C49.9066 76.3286 48.7148 76.5294 47.6019 76.2547Z" fill="white"/>
<path d="M43.9643 74.6766V68.6433C44.3754 68.2895 44.5913 68.3634 45.0315 68.5189C45.6073 68.7184 45.8066 69.9922 45.6294 72.3402C45.4523 74.6882 45.0509 75.9853 44.4252 76.2315C44.1927 76.3248 44.0183 76.3909 43.8563 76.4259C43.9269 75.8933 43.9601 75.3102 43.9601 74.6805L43.9643 74.6766Z" fill="white"/>
<path d="M25 69.0197V63.3363C25.1661 63.3674 25.3364 63.3985 25.5191 63.4335C27.7946 63.8611 28.9628 64.2602 29.0238 64.6308C29.0847 65.0014 28.7026 65.7828 27.8777 66.9749C27.0527 68.1671 26.2153 68.8305 25.3654 68.9653C25.2284 68.9886 25.108 69.008 25 69.0197Z" fill="white"/>
<path d="M28.7123 71.2554C27.6715 69.7574 27.5427 68.4409 28.3262 67.3057C29.1096 66.1706 30.2723 66.0255 31.8142 66.8703C32.4537 67.2202 32.9188 67.4768 33.2552 67.6634V69.8792C33.006 70.1824 32.7029 70.5556 32.3291 71.0066C30.9561 72.673 29.7491 72.7559 28.7082 71.2554H28.7123Z" fill="white"/>
<path d="M49.2878 79.2945C49.4816 77.8432 50.193 76.7897 51.4222 76.134C51.7378 75.963 52.0035 75.823 52.2236 75.7258C52.1987 77.6851 51.8748 79.4189 51.2519 80.9272C51.0941 81.3043 50.9239 81.6658 50.7287 82.0157C49.0013 81.4326 49.0345 81.176 49.2836 79.2945H49.2878Z" fill="white"/>
<path d="M31.5692 75.3326C30.9241 74.4229 31.2951 73.1271 32.682 71.4451C32.8938 71.1886 33.0848 70.9553 33.2592 70.7532V74.6756C33.2592 75.4414 33.3132 76.1295 33.4129 76.7476C32.5242 76.6815 32.4246 76.5377 31.5733 75.3326H31.5692Z" fill="white"/>
<path d="M43.5904 82.9991C43.2914 82.657 43.2402 81.5853 43.4368 79.7842C43.6333 77.983 44.0527 76.9554 44.695 76.7014C45.3372 76.4475 46.2162 76.4578 47.3318 76.7325C48.4474 77.0073 48.9097 77.869 48.7187 79.3177C48.5277 80.7664 47.7955 81.8341 46.5221 82.5209C45.2486 83.2077 44.5178 83.5446 44.3295 83.5316C44.1413 83.5187 43.8963 83.3399 43.5946 82.9952L43.5904 82.9991Z" fill="white"/>
<path d="M40.2895 81.7703C39.1352 81.5332 38.558 81.4127 38.1178 81.0978C38.2797 81.1056 38.4417 81.1095 38.6119 81.1056C39.7622 81.1134 40.7339 80.9034 41.5311 80.4797C42.0917 80.1804 42.5568 79.7489 42.9305 79.1891C42.9139 79.329 42.9015 79.4768 42.8848 79.6361C42.6966 81.3725 41.8329 82.0826 40.2937 81.7664L40.2895 81.7703Z" fill="white"/>
<path d="M25.0001 74.8826V69.5646C25.1163 69.5452 25.2451 69.5257 25.3945 69.5024C26.25 69.3676 27.1981 70.0492 28.239 71.5472C29.2799 73.0451 28.8577 74.0235 26.9725 74.4822C26.0589 74.7038 25.4402 74.8554 24.9959 74.8943V74.8826H25.0001Z" fill="white"/>
<path d="M46.9207 82.9176C48.4738 82.0779 48.6855 81.9613 50.4462 82.4939C49.8814 83.3958 49.1838 84.1966 48.3575 84.8963C47.9464 85.2384 47.5228 85.5533 47.0785 85.841C45.1227 83.8856 45.1518 83.8739 46.9207 82.9137V82.9176Z" fill="white"/>
<path d="M125.435 88.0924C125.519 86.1642 125.535 86.1487 126.216 85.5111C126.897 84.8736 126.914 84.858 128.695 84.8891C129.883 84.9073 130.587 85.6809 130.809 87.2099C130.825 87.3382 130.842 87.4587 130.859 87.5714C129.492 87.933 128.047 88.1157 126.523 88.1157C126.154 88.1157 125.793 88.1079 125.435 88.0885V88.0924Z" fill="white"/>
<path d="M60.8359 87.7071V87.5128C61.0518 87.2912 61.4587 87.0463 62.3391 86.5059C63.4243 85.8399 64.6838 85.9967 66.1178 86.9763C66.5538 87.2756 66.9027 87.5128 67.1684 87.7071H60.8317H60.8359Z" fill="white"/>
<path d="M33.608 87.4357C34.7679 86.1062 35.4309 85.4337 35.597 85.4182C35.7631 85.4026 36.4192 86.2928 37.5653 88.0888C36.1535 88.0189 34.833 87.7973 33.608 87.4319V87.4357Z" fill="white"/>
<path d="M38.2463 87.3224C37.4158 85.7726 37.3729 84.4962 38.1176 83.4933C38.8622 82.4903 39.8381 82.1366 41.0451 82.432C42.252 82.7275 42.9358 82.9892 43.0964 83.2173C43.2569 83.4453 42.9358 84.5766 42.133 86.611C41.9337 87.1125 41.7676 87.5362 41.6264 87.8861C40.6879 88.0377 39.6997 88.1154 38.6698 88.1154C38.5494 87.8861 38.4082 87.6256 38.2463 87.3224Z" fill="white"/>
<path d="M27.6493 81.2227C26.2956 80.4374 25.8513 80.1769 25.5855 79.831C25.4319 79.3217 25.3114 78.793 25.2159 78.2371C25.4817 77.9689 26.088 77.6346 27.2673 76.9854C28.884 76.0964 30.4591 76.064 31.9928 76.8882C33.5264 77.7123 33.5209 78.8371 31.9762 80.2625C30.4315 81.6878 28.9878 82.0079 27.6451 81.2227H27.6493Z" fill="white"/>
<path d="M28.8699 84.9007C28.5419 84.6247 28.2346 84.3293 27.9439 84.0222C28.2886 83.8589 28.8658 83.9483 29.9911 84.1193C31.5303 84.3578 32.5573 84.8022 33.0723 85.4527C33.6121 86.1408 33.774 86.3429 33.0806 87.2681C31.5151 86.7317 30.1115 85.9425 28.8699 84.9007Z" fill="white"/>
<path d="M43.1629 86.0393C43.1491 85.8735 43.2806 85.5845 43.5574 85.1724C43.8342 84.7604 44.1415 84.4883 44.4793 84.3561C44.817 84.2239 45.2281 84.6127 45.7125 85.5223C45.8911 85.8566 46.0863 86.121 46.2731 86.327C45.5547 86.7235 44.7948 87.054 43.9934 87.3183C43.4744 87.4855 42.9387 87.6293 42.3864 87.7459C42.1788 87.6176 42.3781 87.155 43.1629 86.0432V86.0393Z" fill="white"/>
<path d="M32.6571 84.0457C30.5089 83.4444 30.3414 82.3223 32.1546 80.6792C33.089 79.8317 33.7035 79.2758 34.1727 78.9882C34.5631 79.649 35.0738 80.1466 35.7009 80.4809C36.1493 80.7219 36.6559 80.893 37.2124 80.9941C38.1218 82.0942 38.1051 82.1797 37.9889 82.6618C37.8975 83.0531 37.5238 83.5313 36.8677 84.0962C36.2116 84.6612 34.8081 84.6431 32.6571 84.0418V84.0457Z" fill="white"/>
<path d="M131.034 86.4093C130.397 84.6081 130.14 83.6065 130.262 83.4043C130.383 83.2022 130.966 82.9145 132.01 82.5413C133.053 82.1681 134.039 83.1244 134.966 85.4103C135.008 85.5191 135.054 85.6202 135.095 85.7212C133.957 86.4365 132.757 86.9924 131.491 87.3851C131.458 87.3967 131.428 87.4045 131.395 87.4162C131.287 87.1324 131.167 86.7981 131.034 86.4093Z" fill="white"/>
<path d="M135.73 84.9174C134.753 84.3602 134.445 83.4985 134.804 82.3322C135.278 80.8084 135.336 80.614 135.834 80.3108V84.9757C135.801 84.9563 135.768 84.9368 135.73 84.9135V84.9174Z" fill="white"/>
<path d="M141.925 87.4383L144.321 83.1116C145.422 83.0377 145.65 83.5314 146.535 85.4363C147.12 86.6997 147.419 87.3411 147.332 87.7065H142.299C142.183 87.6249 142.058 87.5355 141.925 87.4383Z" fill="white"/>
<path d="M131.453 66.8167C131.278 66.7428 131.108 66.6767 130.934 66.6106C131.623 66.1053 131.69 66.1014 132.358 66.0469C132.854 66.0055 133.508 66.2011 134.322 66.6339C135.389 67.2015 135.522 67.2715 135.834 68.8459V69.7478C134.463 68.4455 133.006 67.4697 131.457 66.8167H131.453Z" fill="white"/>
<path d="M134.725 66.2406C133.978 65.8441 134.346 64.8113 135.83 63.1423V66.6877C135.456 66.6294 135.186 66.4855 134.725 66.2406Z" fill="white"/>
<path d="M131.307 62.9132C130.946 60.7324 130.884 60.3436 131.992 59.8149C133.35 60.2931 134.633 60.9578 135.833 61.8092V62.3107C135.672 62.4973 135.489 62.6994 135.294 62.9171C133.779 64.6146 132.809 65.4802 132.383 65.5139C131.956 65.5476 131.597 64.6807 131.303 62.9132H131.307Z" fill="white"/>
<path d="M126.524 65.8362C126.404 65.8362 126.287 65.8362 126.167 65.844C125.004 65.3697 124.925 65.1131 124.506 63.7953C124.163 62.7042 123.991 62.1574 123.991 62.1548C123.991 62.1548 123.991 62.1509 126.341 60.7826C127.905 59.8703 128.956 59.5567 129.493 59.8418C130.03 60.1269 130.448 61.1804 130.747 63.0023C131.046 64.8242 130.898 65.9554 130.303 66.396C129.099 66.0228 127.836 65.8362 126.524 65.8362Z" fill="white"/>
<path d="M129.755 59.3721C129.589 59.2826 129.456 59.2127 129.348 59.1427C129.958 59.2399 130.556 59.3759 131.142 59.5392C130.482 59.753 130.303 59.6597 129.759 59.3682L129.755 59.3721Z" fill="white"/>
<path d="M123.173 60.4405C122.87 59.904 122.704 59.6125 122.716 59.2665C123.929 59.0372 125.199 58.9205 126.528 58.9205C127.027 58.9205 127.521 58.94 128.002 58.9827C127.745 59.3481 127.184 59.6747 126.109 60.3006C124.6 61.1791 123.623 61.2258 123.177 60.4405H123.173Z" fill="white"/>
<path d="M26.3454 81.7324C26.3911 81.7557 26.4451 81.7791 26.5032 81.8063C26.8825 81.9929 27.1164 82.2391 27.205 82.5449C27.2631 82.7393 27.2963 82.852 27.2133 83.1358C26.8894 82.6965 26.5987 82.23 26.3496 81.7324H26.3454Z" fill="white"/>
<path d="M148.765 84.2552C146.902 83.7109 145.867 82.9762 145.659 82.051C145.543 81.5495 145.472 81.2269 145.522 80.9508H145.526L145.837 80.3872C146.107 80.0995 146.564 79.7535 147.295 79.2015C148.596 78.2193 149.263 77.7295 149.296 77.7321C149.33 77.7347 150.292 78.4227 152.182 79.7963C154.073 81.1698 154.897 82.0795 154.653 82.5253C154.304 83.1589 154.288 83.19 153.121 83.9986H152.353L151.979 84.71L151.971 84.7216C151.323 85.0015 150.742 84.8305 148.769 84.2552H148.765Z" fill="white"/>
<path d="M146.568 79.069L148.133 76.2467C148.698 77.4635 148.374 77.7084 146.896 78.8241C146.78 78.9135 146.672 78.9951 146.568 79.069Z" fill="white"/>
<path d="M156.198 82.3426C156.599 81.9875 157.056 81.7828 157.568 81.7283C158.08 81.6739 159.009 82.3892 160.354 83.8742C160.392 83.917 160.429 83.9597 160.466 83.9986H155.857C155.649 82.8246 155.778 82.7158 156.198 82.3426Z" fill="white"/>
<path d="M152.643 79.4583C150.799 78.1159 150.579 76.8071 151.983 75.532C153.386 74.257 154.364 73.6518 154.914 73.7166C155.654 73.806 155.733 73.8138 156.455 75.4893L155.13 78.0122H157.477C157.68 78.6886 157.56 78.9607 157.252 79.6838C156.923 80.4587 156.533 80.9498 156.081 81.1571C155.633 81.3645 154.485 80.7969 152.639 79.4544L152.643 79.4583Z" fill="white"/>
<path d="M148.466 75.6401L151.306 70.5204C151.547 70.7575 151.825 71.1035 152.207 71.5739C153.143 72.7297 152.898 73.9569 151.472 75.2553C150.047 76.5537 149.332 77.2016 149.33 77.199C149.33 77.199 149.321 77.199 148.47 75.6401H148.466Z" fill="white"/>
<path d="M168.156 86.3036C169.225 85.5883 170.635 85.5741 172.388 86.2608C174.618 87.1355 174.954 87.2677 175.004 87.7108H166.715C166.749 87.2482 167.114 87.0033 168.161 86.3036H168.156Z" fill="white"/>
<path d="M166.197 86.681L164.785 83.9986H163.153C163.385 83.6527 163.942 83.0346 165.158 81.6701C166.651 80.0037 167.61 79.2417 168.036 79.3843C168.462 79.5268 168.685 79.6046 168.705 79.6175C168.724 79.6305 168.847 80.4987 169.074 82.2221C169.301 83.9455 168.883 85.161 167.82 85.8685C166.998 86.4205 166.599 86.6849 166.192 86.6771L166.197 86.681Z" fill="white"/>
<path d="M159.943 82.3471C158.204 81.4011 157.49 80.5628 157.8 79.8319C158.182 78.9339 158.253 78.7707 160.088 78.0204H162.002L161.67 77.3906C163.885 76.5198 165.319 76.5445 165.972 77.4645C166.626 78.3845 166.219 79.6648 164.751 81.3053C163.284 82.9457 161.681 83.2943 159.943 82.351V82.3471Z" fill="white"/>
<path d="M161.422 76.912L158.623 71.5668C160.458 69.9458 160.496 69.9496 161.418 70.1285C162.057 70.2503 162.673 70.4952 163.265 70.8632C163.858 71.2312 164.273 71.6744 164.511 72.1927C164.749 72.711 164.86 73.4043 164.843 74.2725C164.827 75.1406 163.717 76.0088 161.513 76.877C161.48 76.8926 161.451 76.9042 161.422 76.9159V76.912ZM158.365 71.7923L158.415 71.7495L156.804 74.8206V74.8284C156.351 73.5766 156.675 73.2889 158.365 71.7923Z" fill="white"/>
<path d="M172.583 85.7559C170.853 85.0794 169.879 83.9197 169.66 82.2766C169.394 80.2513 169.344 79.8897 171.126 80.0802L174.688 86.5022V86.51C174.29 86.4206 173.659 86.1757 172.583 85.7559Z" fill="white"/>
<path d="M154.993 73.1918C154.426 73.1218 153.657 72.4895 152.689 71.2947C152.161 70.6455 151.825 70.2296 151.634 69.9225L153.154 67.1818C153.465 67.0186 153.864 66.8203 154.383 66.5598C155.869 65.8186 157.176 66.1452 158.303 67.5395C159.429 68.9338 159.302 70.2412 157.921 71.4619C156.539 72.6825 155.563 73.2605 154.993 73.1957V73.1918Z" fill="white"/>
<path d="M153.623 66.3341L155.832 62.3456C156.671 62.7538 156.641 62.9987 156.554 63.7917C156.468 64.5562 155.686 65.3065 154.208 66.0425C153.992 66.1514 153.797 66.2486 153.618 66.3341H153.623Z" fill="white"/>
<path d="M168.107 78.8404C167.697 78.7056 167.139 78.1433 166.433 77.1533C165.727 76.1633 165.384 75.2523 165.403 74.4204C165.42 73.4563 165.424 73.2347 167.26 73.1104L169.813 77.7169C168.692 79.0309 168.584 78.9959 168.107 78.8404Z" fill="white"/>
<path d="M170.146 78.3145L170.768 79.434C169.926 79.2397 169.751 78.9714 170.146 78.3145Z" fill="white"/>
<path d="M161.409 69.5879C160.822 69.4739 159.938 68.6873 158.756 67.2282C157.574 65.7692 157.027 64.6587 157.116 63.8967C157.204 63.1348 157.947 62.5594 159.345 62.1707C160.11 61.9608 160.595 61.8247 160.977 61.7781L163.456 66.2525C163.436 66.3147 163.415 66.3769 163.398 66.4391C162.662 68.6549 162 69.7071 161.413 69.5957L161.409 69.5879Z" fill="white"/>
<path d="M165.03 71.9781C164.814 71.5077 164.752 71.3677 165.802 70.4736L166.965 72.569C165.321 72.6039 165.263 72.4795 165.034 71.9781H165.03Z" fill="white"/>
<path d="M156.501 61.1483L156.916 60.3981C156.916 60.9229 156.808 61.1406 156.501 61.1483Z" fill="white"/>
<path d="M163.589 70.4263C162.846 69.9676 162.821 69.9521 163.826 66.9121L165.511 69.9521C164.299 70.8656 164.149 70.7723 163.589 70.4225V70.4263Z" fill="white"/>
<path d="M157.763 59.4223C157.767 59.2163 157.776 59.018 157.78 58.8353L158.565 57.4203L160.861 61.5682V61.5759C160.57 61.8247 160.151 61.9414 159.341 62.1629C158.214 62.4739 157.686 61.5591 157.755 59.4184L157.763 59.4223Z" fill="white"/>
<path d="M144.861 82.1443L145.193 81.5457C145.193 81.845 145.189 81.9383 144.853 82.156L144.861 82.1443Z" fill="white"/>
<path d="M150.459 87.5791L150.393 87.7113H150.347C150.384 87.6685 150.422 87.6258 150.463 87.5791H150.459Z" fill="white"/>
<path d="M147.764 86.2837C147.565 84.7676 146.717 84.3127 146.805 84.2777C146.888 84.2428 147.693 84.1184 149.035 84.9503C150.372 85.0863 151.489 84.993 151.692 85.2418L151.406 85.79C151.185 85.996 150.841 86.2603 150.355 86.6024C150.308 86.7631 150.08 86.9938 149.67 87.2944C149.325 87.5471 149.172 87.6598 149.01 87.7142H148.084C147.938 87.5859 147.888 87.2283 147.768 86.2914L147.764 86.2837Z" fill="white"/>
<path d="M88.1052 63.3949C86.5231 63.0489 86.4276 63.0256 86.5563 60.1295C86.7058 60.0712 86.8553 60.0167 87.0048 59.9623C88.7114 59.3559 90.551 59.0138 92.5193 58.936C93.1837 59.5036 93.2252 59.7602 93.3498 60.5027C93.4743 61.2594 92.911 61.9928 91.6597 62.7029C90.4084 63.413 89.2236 63.6437 88.1052 63.3949Z" fill="white"/>
<path d="M98.3286 66.8161C97.2158 66.3497 96.0572 66.0464 94.853 65.9143C94.089 62.8043 94.1097 62.8043 96.3355 63.0959C97.8331 63.2877 98.7425 64.2206 99.0636 65.8948C99.1758 66.4857 99.263 66.9367 99.3252 67.2826C98.9972 67.1116 98.665 66.9561 98.3328 66.8123L98.3286 66.8161Z" fill="white"/>
<path d="M82.0798 62.7538C83.2841 61.7703 84.5838 60.9734 85.979 60.3669C85.8503 63.0609 85.7755 63.092 84.9284 63.4536C84.019 63.8384 84.0024 63.8462 82.0798 62.7538Z" fill="white"/>
<path d="M89.8742 66.3976C90.0236 64.9411 90.7046 63.8695 91.9172 63.1827C93.1297 62.4959 94.0419 63.4017 94.6537 65.9C94.2426 65.8611 93.8232 65.8417 93.3996 65.8417C92.1123 65.8417 90.933 66.0711 89.8617 66.5298C89.8658 66.487 89.87 66.4442 89.8742 66.4015V66.3976Z" fill="white"/>
<path d="M84.2895 70.2423C83.9794 69.908 83.8964 68.839 84.0403 67.0352C84.1843 65.2315 84.5732 64.1935 85.2072 63.9214C85.8411 63.6493 86.7201 63.6389 87.844 63.8903C88.9679 64.1417 89.4552 64.9917 89.3057 66.4404C89.2891 66.5726 89.2766 66.697 89.2641 66.8136C88.6454 67.1402 88.0682 67.5523 87.5243 68.0421C86.7228 68.7768 86.1207 69.6009 85.7221 70.5184C85.7221 70.5261 85.7138 70.5339 85.7138 70.5417C85.2778 70.7749 85.2072 70.771 85.0328 70.7633C84.8418 70.7529 84.5926 70.5806 84.2853 70.2462L84.2895 70.2423Z" fill="white"/>
<path d="M80.9543 69.0979C79.1729 68.7753 78.7618 68.7014 78.085 67.7684C78.8822 66.0463 80.0657 64.4991 81.6436 63.1268C83.6908 64.2931 83.6908 64.3164 83.4832 66.9054C83.3448 68.647 82.5018 69.3791 80.9543 69.1018V69.0979Z" fill="white"/>
<path d="M67.7164 71.3563C67.3178 70.8173 67.196 70.0074 67.351 68.9267C67.5669 67.4067 67.5794 67.3134 69.095 67.1462V72.1377C68.2812 72.126 68.1732 71.9783 67.7164 71.3602V71.3563Z" fill="white"/>
<path d="M63.0282 78.2291C62.3223 76.5005 62.5673 75.4781 63.7632 75.1619C64.9591 74.8457 65.9917 75.3148 66.861 76.5691C67.7302 77.8235 67.4852 78.8459 66.126 79.6363C64.7667 80.4267 63.7341 79.9577 63.0282 78.2291Z" fill="white"/>
<path d="M67.3634 76.3175C66.4609 75.0191 66.1896 74.055 66.5495 73.4252C66.9093 72.7955 67.7163 72.4624 68.9704 72.4261H69.0908V78.2651C68.7088 78.2651 68.6921 78.2378 67.3634 76.3175Z" fill="white"/>
<path d="M77.0518 75.859C76.9355 75.1126 76.8774 74.339 76.8774 73.5382C76.8774 71.9754 77.1016 70.5099 77.5459 69.1454C77.7992 69.2853 78.173 69.503 78.7501 69.8335C79.8519 70.4658 80.3212 71.3599 80.1578 72.5158C79.9945 73.6716 79.5516 74.5735 78.829 75.2214C78.0816 75.8939 77.8491 76.1 77.0518 75.859Z" fill="white"/>
<path d="M65.6066 84.6085C64.1726 83.5019 63.5746 82.6907 63.8127 82.175C64.0508 81.6592 64.9159 80.9673 66.408 80.0991C67.9001 79.2309 68.7874 78.7981 69.0697 78.8007C69.0697 78.8007 69.0863 78.8007 69.0946 78.8007V85.9341C67.7409 86.2529 67.5499 86.1051 65.6066 84.6085Z" fill="white"/>
<path d="M77.1927 76.636C77.5747 76.9081 77.6162 77.1686 77.7076 77.7439C77.7574 78.0704 77.7906 78.292 77.7491 78.5097C77.5207 77.9072 77.3339 77.2813 77.1927 76.636Z" fill="white"/>
<path d="M83.3592 75.0735C81.4491 74.4852 80.5715 73.6286 80.7266 72.5039C80.8816 71.3791 81.3508 70.6211 82.1343 70.2297C82.9177 69.8384 83.6637 69.7503 84.3724 69.9654C85.095 70.187 85.3317 70.257 85.6556 70.6807C85.3068 71.5554 85.1323 72.5078 85.1365 73.5418C85.1365 74.2843 85.2237 74.9802 85.4023 75.641C84.9621 75.5672 84.3226 75.3728 83.3592 75.0774V75.0735Z" fill="white"/>
<path d="M82.4375 80.3409C81.1613 80.2995 80.1757 80.026 79.4809 79.5207C78.786 79.0153 78.3819 78.4037 78.2684 77.6858C78.1549 76.9679 78.458 76.2876 79.1778 75.6449C79.8975 75.0022 81.2499 74.9854 83.2347 75.5944C84.4763 75.9753 85.203 76.2008 85.6307 76.3447C85.6598 76.4185 85.693 76.4963 85.7221 76.5701C85.8425 76.85 85.9795 77.1182 86.1415 77.3787C85.9961 77.6431 85.7553 78.0435 85.3816 78.6771C84.695 79.8304 83.7137 80.3863 82.4375 80.3448V80.3409Z" fill="white"/>
<path d="M78.1888 79.536C78.5086 79.4816 78.7453 79.6527 79.1564 79.952C80.045 80.5973 80.1156 80.6517 79.9121 82.1911C79.2228 81.3592 78.6498 80.4729 78.1888 79.536Z" fill="white"/>
<path d="M81.6563 83.9672C81.2079 83.5784 80.7926 83.1741 80.4064 82.7582C80.5836 81.4624 81.284 80.8352 82.5076 80.8767C83.7312 80.9182 84.5866 81.3937 85.0738 82.3034C85.561 83.213 85.7936 83.7573 85.7714 83.9361C85.7493 84.1149 85.1721 84.571 84.0399 85.3045C83.9319 85.3783 83.8281 85.4405 83.7326 85.5027C83.01 85.0479 82.3207 84.5386 81.6563 83.9672Z" fill="white"/>
<path d="M85.539 81.9888C85.0711 81.118 85.1763 80.1138 85.8546 78.9761C86.1286 78.5134 86.3321 78.1752 86.5273 77.9381C86.8138 78.3269 87.1501 78.6923 87.528 79.0383C88.3336 79.7496 89.2222 80.29 90.2022 80.6554C90.8666 80.9003 91.5725 81.0636 92.3158 81.1413C91.9629 81.429 91.1407 81.7011 89.5461 82.2182C87.3425 82.9334 86.0068 82.8557 85.539 81.9849V81.9888Z" fill="white"/>
<path d="M100.301 67.8544C100.442 67.6445 100.671 67.5823 101.09 67.4696C101.721 67.3024 101.912 67.2519 102.705 67.5707V69.7476C101.933 69.0129 101.132 68.3792 100.301 67.8544Z" fill="white"/>
<path d="M94.0931 81.6045C93.873 81.4374 93.7318 81.3324 93.6072 81.2002C94.4917 81.1847 95.3471 81.0914 96.1818 80.9087C94.6952 82.0671 94.5997 81.9933 94.0931 81.6084V81.6045Z" fill="white"/>
<path d="M84.2473 85.8105C84.2473 85.8105 84.2597 85.8027 84.268 85.7988C85.3864 85.0758 86.5062 85.3634 87.6274 86.6618C87.9056 86.9884 88.1381 87.2566 88.3291 87.4899C86.8799 87.105 85.5221 86.5491 84.2514 85.8144L84.2473 85.8105Z" fill="white"/>
<path d="M89.2721 87.7116C88.998 87.4084 88.616 86.9691 88.0596 86.3199C86.8858 84.9567 86.3086 84.1987 86.328 84.0458C86.3474 83.8929 87.4962 83.4471 89.7745 82.7085C92.0529 81.9699 93.4038 81.7626 93.8274 82.0865C94.2509 82.4105 94.5291 82.8057 94.662 83.2722C94.7949 83.7387 94.1637 84.6976 92.7685 86.1489C91.8093 87.1479 91.2943 87.6922 90.9705 87.9837C90.3891 87.9176 89.8244 87.8243 89.2721 87.7116Z" fill="white"/>
<path d="M110.001 73.5371C110.001 72.9034 110.039 72.2892 110.109 71.6866C110.263 71.9316 110.442 72.262 110.666 72.6702C111.438 74.08 111.763 74.8938 111.642 75.1115C111.48 75.4147 111.463 75.438 110.176 75.854C110.06 75.1076 110.001 74.334 110.001 73.5332V73.5371Z" fill="white"/>
<path d="M96.5261 84.5658C95.7842 84.1071 95.3496 83.6497 95.2222 83.1936C95.0395 82.5288 95.0354 82.5133 97.5393 80.519C97.8051 80.4296 98.0667 80.3286 98.3283 80.2197C99.1214 79.8854 99.8938 79.4656 100.641 78.9563C101.002 79.1895 101.368 79.7299 101.945 80.5812C102.252 81.04 102.502 81.4054 102.701 81.7047V84.3287C102.34 84.4842 101.675 84.5931 100.301 84.8185C98.5234 85.1114 97.2639 85.0272 96.5219 84.5658H96.5261Z" fill="white"/>
<path d="M102.34 80.1721C101.817 79.4063 101.468 78.8854 101.231 78.5394C101.726 78.1662 102.211 77.7581 102.685 77.3071C102.693 77.3071 102.701 77.3032 102.706 77.3032V80.7086C102.593 80.5492 102.473 80.3704 102.34 80.176V80.1721Z" fill="white"/>
<path d="M91.863 88.0611C92.0831 87.6568 92.5315 87.1903 93.2001 86.4906C94.5427 85.0911 95.5656 84.6078 96.2688 85.0406C97.1408 85.5809 97.2903 85.6742 97.7097 87.5752C96.3518 87.9328 94.915 88.1155 93.3994 88.1155C92.8762 88.1155 92.3654 88.0961 91.863 88.0611Z" fill="white"/>
<path d="M111.201 79.2866C110.777 78.3731 110.47 77.4051 110.267 76.3905C111.604 75.9707 111.712 76.0678 113.406 77.5451C114.616 78.5998 114.415 79.5847 112.804 80.4995C112.538 80.6511 112.301 80.7872 112.09 80.9038C111.753 80.3829 111.454 79.8464 111.201 79.2866Z" fill="white"/>
<path d="M100.479 85.3281C101.592 85.1454 102.223 85.0443 102.705 85.1726V85.227C101.36 86.1833 99.9104 86.9064 98.3615 87.3884C98.3324 87.3962 98.3075 87.4078 98.2784 87.4156C98.0168 85.7362 98.4321 85.6702 100.479 85.332V85.3281Z" fill="white"/>
<path fill-rule="evenodd" clip-rule="evenodd" d="M68.6593 87.3102C68.7423 87.1742 68.9001 87.0381 69.0953 86.9176V87.7029H68.597C68.6177 87.5435 68.6344 87.4074 68.6593 87.3063V87.3102Z" fill="white"/>
<path fill-rule="evenodd" clip-rule="evenodd" d="M60.8314 83.1148V79.4062C61.0557 79.2935 61.3879 79.3557 61.8654 79.6667C62.0315 79.7872 62.2308 80.0904 62.4343 80.4986C63.1277 81.8709 63.8835 84.4366 63.6966 85.2335C63.1734 85.8671 62.4758 85.8866 61.6328 85.871C61.5581 85.6494 61.1512 84.4366 60.8356 83.1148H60.8314Z" fill="white"/>
<path fill-rule="evenodd" clip-rule="evenodd" d="M60.8318 78.6845V75.699C61.0768 75.7651 61.3135 75.8467 61.5502 75.8895C61.6664 77.0479 62.4471 78.0392 62.335 78.8245C61.7619 78.8594 61.2844 78.8245 60.8318 78.6806V78.6845Z" fill="white"/>
<path fill-rule="evenodd" clip-rule="evenodd" d="M62.6505 74.645C63.9959 73.1794 62.7626 71.9432 63.0408 71.4184C64.1121 69.3969 63.7799 69.1909 64.5315 67.2355C65.5032 67.1422 66.0762 67.601 66.4209 68.2929C66.9898 69.428 66.9441 71.1852 67.0396 72.1531C65.607 73.1716 65.4534 74.9015 62.6505 74.6488V74.645Z" fill="white"/>
<path fill-rule="evenodd" clip-rule="evenodd" d="M66.1386 66.8865C65.931 65.8642 67.7539 64.0837 69.0952 62.9952V67.1042C68.2979 67.2714 67.3304 67.2014 66.1386 66.8865Z" fill="white"/>
<path fill-rule="evenodd" clip-rule="evenodd" d="M93.3999 58.9205C93.8774 59.2199 94.193 59.4181 94.193 59.4181C94.2138 59.2549 94.247 59.0994 94.2761 58.9439" fill="white"/>
<path fill-rule="evenodd" clip-rule="evenodd" d="M95.0188 59.3833C95.023 59.255 95.0354 59.1267 95.052 58.9984C96.2064 59.1034 97.3068 59.3211 98.3657 59.6515C98.5858 59.7215 98.81 59.7953 99.0301 59.877C97.9505 60.4523 96.385 60.3473 95.023 59.3872L95.0188 59.3833Z" fill="white"/>
<path fill-rule="evenodd" clip-rule="evenodd" d="M100.579 60.7745C100.463 60.6501 100.371 60.5295 100.305 60.4052C100.774 60.6267 101.227 60.8678 101.679 61.1399C101.144 61.0621 100.737 60.9416 100.579 60.7783V60.7745Z" fill="white"/>
<path fill-rule="evenodd" clip-rule="evenodd" d="M100.268 66.7186C99.8031 65.844 99.6619 62.6563 99.9568 61.8049C101.165 62.0654 101.933 62.1276 102.706 62.0965V65.7507C101.917 66.5592 101.065 67.0879 100.268 66.7186Z" fill="white"/>
<path fill-rule="evenodd" clip-rule="evenodd" d="M95.2516 61.8755C95.1852 61.3818 95.0232 60.6937 95.3305 60.2622C96.6261 60.3944 97.8802 60.9892 99.4041 60.7015C100.019 61.3312 99.5744 62.1787 99.2463 62.8279C98.8145 62.859 95.5672 62.2292 95.2475 61.8716L95.2516 61.8755Z" fill="white"/>
<path fill-rule="evenodd" clip-rule="evenodd" d="M93.5284 62.3189C93.5866 61.5453 93.7485 60.8806 93.9188 60.1925C94.1347 60.1925 94.388 60.1692 94.6247 60.1925C94.7991 60.2119 94.9652 60.2625 95.0981 60.3713C94.9777 61.1838 94.9569 61.9418 94.7866 62.7543C94.3008 62.8437 93.8648 62.5755 93.5326 62.315L93.5284 62.3189Z" fill="white"/>
<path d="M121.907 63.8334C121.01 63.7323 120.527 63.0831 120.457 61.8858C120.388 60.6885 120.385 60.0393 120.449 59.9382C120.478 59.8877 120.503 59.8527 120.549 59.8216C121.014 59.67 121.487 59.5378 121.973 59.425C122.276 59.4678 122.434 59.8293 122.907 60.9334C123.378 62.0296 123.554 62.8136 123.435 63.2853C123.313 63.7543 122.804 63.9383 121.907 63.8373V63.8334Z" fill="white"/>
<path d="M120.706 87.2713C121.2 85.3431 121.279 85.3742 123.21 86.2023C125.133 87.0264 125.216 87.0614 124.871 88.0566C123.405 87.9438 122.018 87.6834 120.706 87.2713Z" fill="white"/>
<path d="M115.446 62.5634C116.77 61.5177 118.203 60.6975 119.756 60.1066C119.748 60.3592 119.735 60.6586 119.714 61.0084C119.631 62.5194 119.17 63.5703 118.332 64.1611C117.123 65.0125 117.077 65.0436 115.446 62.5634Z" fill="white"/>
<path d="M119.357 68.9813C117.452 67.6259 116.621 66.724 116.861 66.2757C117.102 65.8273 117.671 65.287 118.568 64.6546C119.465 64.0223 120.851 63.9665 122.725 64.4875C124.855 65.09 125.366 65.2338 125.631 65.8753C123.709 66.0424 122.048 66.7655 120.648 68.0367C120.258 68.3943 119.918 68.7714 119.623 69.1718C119.536 69.1096 119.448 69.0474 119.357 68.9813Z" fill="white"/>
<path d="M112.09 66.1746C112.804 65.0706 113.701 64.0521 114.781 63.1113C114.856 63.0453 114.935 62.9792 115.009 62.9131C116.666 65.4438 116.654 65.471 116.297 66.1358C116.05 66.5971 115.697 66.9366 115.238 67.1543C114.569 67.4691 114.548 67.4808 112.086 66.1746H112.09Z" fill="white"/>
<path d="M118.29 85.0909C116.106 84.7902 115.576 84.1916 116.7 83.2949C117.824 82.3982 118.931 82.1779 120.022 82.634C121.113 83.0901 121.839 83.6434 122.202 84.2939C122.564 84.9444 122.551 85.3124 122.16 85.398C121.77 85.4835 120.481 85.3811 118.294 85.0909H118.29Z" fill="white"/>
<path d="M128.63 83.1788C128.375 83.1166 127.939 82.6086 127.322 81.6549C127.205 81.48 127.106 81.3245 127.018 81.1884C128.571 81.134 130.054 80.8114 131.453 80.2205C131.528 80.1894 131.607 80.1544 131.682 80.1233C132.786 80.3682 132.4 80.6598 130.967 81.7638C129.664 82.7693 128.884 83.241 128.63 83.1788Z" fill="white"/>
<path d="M116.695 75.0852C116.142 75.023 115.522 74.2106 114.835 72.6478C114.149 71.0851 113.967 69.915 114.291 69.1375C114.615 68.36 114.998 67.865 115.441 67.6525C115.884 67.44 117.037 67.9959 118.9 69.3202C119.046 69.4251 119.187 69.5262 119.32 69.6195C119.141 69.9072 118.988 70.2026 118.855 70.5097C118.46 71.4272 118.261 72.434 118.261 73.5341C118.261 73.8413 118.277 74.1406 118.307 74.4321C117.468 75.1669 117.302 75.1474 116.695 75.0813V75.0852Z" fill="white"/>
<path d="M118.464 75.3805C118.547 75.7265 118.651 76.0647 118.78 76.3873C118.489 75.983 118.373 75.6954 118.464 75.3805Z" fill="white"/>
<path d="M122.022 83.1546C120.724 81.8822 120.22 80.9466 120.511 80.3479C120.739 79.8775 120.847 79.656 121.171 79.4694C121.836 79.9747 122.554 80.3712 123.33 80.6589C124.219 80.9855 125.182 81.1682 126.221 81.1993C126.162 81.6113 125.847 82.1089 125.236 83.0769C124.398 84.409 123.328 84.4362 122.027 83.1585L122.022 83.1546Z" fill="white"/>
<path d="M113.373 81.2974C116.081 78.5256 115.321 78.5412 113.71 77.3711C115.077 76.1349 116.046 75.5479 116.616 75.6101C117.187 75.6723 117.962 76.2981 118.942 77.4877C119.922 78.6772 120.262 79.5765 119.963 80.1856C119.664 80.7946 118.776 81.4775 117.297 82.2342C115.819 82.991 114.51 82.6787 113.369 81.2974H113.373Z" fill="white"/>
<path fill-rule="evenodd" clip-rule="evenodd" d="M116.915 85.5339C118.244 85.5884 119.83 85.8216 120.378 86.0704C120.228 86.428 120.108 86.7468 120.013 87.0345C118.925 86.6419 117.891 86.1404 116.915 85.5339Z" fill="white"/>
<path fill-rule="evenodd" clip-rule="evenodd" d="M113.244 82.4359C113.83 82.7936 114.32 83.2795 114.615 83.8198C114.116 83.3767 113.664 82.9141 113.244 82.4359Z" fill="white"/>
<path fill-rule="evenodd" clip-rule="evenodd" d="M113.667 67.9674C112.746 67.6486 112.11 67.3415 111.579 67.0344ZM110.495 69.7245C111.076 70.4554 111.77 70.6847 112.492 69.6545Z" fill="white"/>
<path fill-rule="evenodd" clip-rule="evenodd" d="M113.041 76.4031C112.696 76.096 112.862 74.9492 112.73 74.4944C112.489 73.6974 111.853 72.228 111.945 71.4116C112.132 71.1045 113.191 70.6769 113.589 70.4553C113.938 71.1395 116.126 77.6782 113.041 76.3992V76.4031Z" fill="white"/>
<path fill-rule="evenodd" clip-rule="evenodd" d="M126.836 82.6418C126.94 82.8518 127.073 83.0461 127.226 83.2288L126.99 83.8508C126.915 84.6944 125.349 85.7712 124.589 85.814C124.295 84.6944 125.794 82.7274 126.832 82.6418H126.836Z" fill="white"/>
<path fill-rule="evenodd" clip-rule="evenodd" d="M133.184 81.4669C132.964 80.4678 133.5 79.5309 134.115 78.7185C134.414 78.5008 134.713 78.2714 135.003 78.0265C135.273 78.182 135.556 78.2558 135.83 78.423V78.9167C135.169 79.8652 134.355 82.1199 133.18 81.4707L133.184 81.4669Z" fill="white"/>
<path fill-rule="evenodd" clip-rule="evenodd" d="M26.7108 75.558C26.0257 75.4647 25.5024 75.5541 25 75.7019ZM25.0872 77.284C26.1544 77.2491 26.2831 77.0936 27.0223 75.7058Z" fill="white"/>
</g>
<defs>
<clipPath id="clip0_1_275">
<rect width="150" height="50" fill="white" transform="translate(25 48)"/>
</clipPath>
</defs>
</svg>
