<svg width="187" height="136" viewBox="0 0 187 136" fill="none" xmlns="http://www.w3.org/2000/svg">
<rect width="187" height="136" fill="#61B99F"/>
<g clip-path="url(#clip0_1_275)">
<path d="M67.1705 55.1967H67.6241V56.5017C67.2946 56.0993 67.1918 55.8719 67.1705 55.1967Z" fill="white"/>
<path d="M65.2607 55.4556C64.8072 55.3646 64.4989 55.3016 64.2686 55.1967H66.6072C66.4832 55.7075 66.1608 55.641 65.2607 55.4556Z" fill="white"/>
<path d="M60.5801 57.5268V55.1967H63.1881C63.1633 55.655 62.8869 56.0188 62.2881 56.806C61.4766 57.8731 61.2569 58.1635 60.5801 57.5268Z" fill="white"/>
<path d="M62.6386 57.1348C63.3945 56.1365 64.2721 55.74 65.2714 55.9452C66.2706 56.1505 66.9864 56.5027 67.4187 57.0018C67.4967 57.0928 67.564 57.1732 67.6242 57.2432V57.9709C67.6242 57.9709 67.6101 57.9779 67.603 57.9814C67.2959 58.133 66.2021 58.28 64.3217 58.4223C62.4437 58.5622 61.8827 58.1342 62.6386 57.1383V57.1348Z" fill="white"/>
<path d="M62.2949 60.9866C61.5933 60.2636 61.2708 59.7714 61.3275 59.5102C61.3842 59.249 62.2913 59.053 64.0489 58.9224C65.8064 58.7918 66.2411 59.2874 65.3529 60.4093C64.4647 61.5313 63.9095 62.0899 63.6875 62.0852C63.4654 62.0805 63.0024 61.7155 62.2984 60.9901L62.2949 60.9866Z" fill="white"/>
<path d="M51.5832 57.1139C50.8355 56.0573 50.5095 55.599 50.3997 55.1967H53.2309V58.9297C52.8446 58.8948 52.6179 58.5764 51.5832 57.1139Z" fill="white"/>
<path d="M60.58 59.8813V58.3243C60.9556 58.7687 60.9591 58.7827 60.9662 58.8212C60.9709 58.8631 60.939 59.0404 60.8705 59.353C60.8174 59.5944 60.789 59.7133 60.58 59.8848V59.8813Z" fill="white"/>
<path d="M46.183 57.7402V55.1967H49.5458C49.2304 55.564 48.5997 56.0153 47.2638 56.974C46.835 57.2819 46.4807 57.5373 46.1795 57.7437L46.183 57.7402Z" fill="white"/>
<path d="M60.5801 65.6051V60.5531C61.062 60.4061 61.2923 60.644 61.9549 61.3228C62.6329 62.0202 62.7534 63.0301 62.3164 64.3526C61.7848 65.9725 61.6856 66.2699 60.5801 65.6051Z" fill="white"/>
<path d="M47.2744 63.019C46.5834 62.7706 46.4523 62.7216 46.1865 62.3892V58.3552C46.5125 58.1068 46.9377 57.8024 47.4799 57.4141C49.1288 56.2292 50.3784 56.2374 51.2289 57.4386C52.0793 58.6398 52.0533 59.9145 51.1509 61.2626C50.2485 62.6108 49.5197 63.293 48.9646 63.3094C48.4094 63.3257 47.846 63.23 47.2744 63.0225V63.019Z" fill="white"/>
<path d="M34.3019 55.1967H37.0481V56.6136C34.9645 56.7781 34.8015 56.6766 34.3019 55.1967Z" fill="white"/>
<path d="M52.0863 64.9784C50.8627 63.9755 50.6961 62.8058 51.5867 61.4693C52.6037 59.9438 52.8482 59.58 53.2273 59.4575V65.8601C52.9332 65.6747 52.5753 65.3808 52.0828 64.9784H52.0863Z" fill="white"/>
<path d="M60.58 68.8725V66.1995C61.604 66.8922 61.6394 66.9867 61.806 67.445C61.9454 67.8322 61.5367 68.3068 60.58 68.869V68.8725Z" fill="white"/>
<path d="M30.5811 58.4294C30.3721 58.3909 30.1807 58.349 30 58.314V55.1967H33.795C34.4045 57.0335 34.401 57.037 33.9191 58.0131C33.5954 58.6685 32.4828 58.8073 30.5811 58.4294Z" fill="white"/>
<path d="M35.9214 61.4898C34.6316 60.7458 33.9583 60.1953 33.9017 59.8385C33.845 59.4816 33.9832 58.9661 34.3162 58.292C34.7769 57.3614 34.8159 57.2844 37.0447 57.099V62.0881C36.7541 61.9762 36.3962 61.7697 35.9179 61.4933L35.9214 61.4898Z" fill="white"/>
<path d="M49.287 70.4293C48.3374 70.1797 47.937 69.0135 48.0858 66.9306C48.2346 64.8477 48.5653 63.7993 49.078 63.7853C49.5906 63.7713 50.4894 64.2903 51.7745 65.3422C52.4903 65.93 52.9403 66.2974 53.2309 66.5843V69.3727C53.0076 69.5126 52.7171 69.6771 52.3379 69.887C51.2536 70.4958 50.2367 70.6765 49.287 70.4293Z" fill="white"/>
<path d="M46.1829 69.0089V63.579C46.5337 63.2606 46.718 63.3271 47.0936 63.467C47.5849 63.6466 47.755 64.793 47.6038 66.9062C47.4526 69.0194 47.1101 70.1868 46.5762 70.4084C46.3778 70.4924 46.229 70.5519 46.0908 70.5833C46.151 70.104 46.1793 69.5792 46.1793 69.0124L46.1829 69.0089Z" fill="white"/>
<path d="M30 63.9177V58.8026C30.1417 58.8306 30.287 58.8586 30.4429 58.8901C32.3847 59.2749 33.3816 59.6341 33.4336 59.9677C33.4856 60.3012 33.1596 61.0044 32.4556 62.0774C31.7516 63.1503 31.037 63.7474 30.3118 63.8687C30.1949 63.8897 30.0921 63.9072 30 63.9177Z" fill="white"/>
<path d="M33.1679 65.9299C32.2796 64.5817 32.1698 63.3969 32.8383 62.3752C33.5069 61.3536 34.499 61.223 35.8148 61.9834C36.3605 62.2983 36.7574 62.5292 37.0444 62.6971V64.6914C36.8318 64.9643 36.5731 65.3001 36.2542 65.706C35.0825 67.2057 34.0525 67.2804 33.1643 65.9299H33.1679Z" fill="white"/>
<path d="M50.7256 73.165C50.891 71.8589 51.4981 70.9107 52.547 70.3206C52.8163 70.1667 53.043 70.0407 53.2308 69.9532C53.2096 71.7166 52.9332 73.277 52.4017 74.6345C52.267 74.9739 52.1218 75.2992 51.9552 75.6141C50.4811 75.0893 50.5095 74.8584 50.7221 73.165H50.7256Z" fill="white"/>
<path d="M35.6057 69.5993C35.0553 68.7807 35.3718 67.6144 36.5553 66.1007C36.736 65.8698 36.899 65.6598 37.0479 65.4779V69.0081C37.0479 69.6973 37.0939 70.3166 37.179 70.8729C36.4207 70.8134 36.3356 70.6839 35.6092 69.5993H35.6057Z" fill="white"/>
<path d="M45.8638 76.4992C45.6087 76.1913 45.565 75.2268 45.7327 73.6058C45.9004 71.9847 46.2583 71.0599 46.8064 70.8313C47.3544 70.6028 48.1045 70.6121 49.0565 70.8593C50.0085 71.1066 50.403 71.8821 50.24 73.1859C50.077 74.4898 49.4522 75.4508 48.3655 76.0689C47.2789 76.687 46.6552 76.9902 46.4946 76.9785C46.3339 76.9669 46.1249 76.8059 45.8674 76.4957L45.8638 76.4992Z" fill="white"/>
<path d="M43.0471 75.3933C42.062 75.1799 41.5695 75.0714 41.1938 74.788C41.332 74.795 41.4702 74.7985 41.6155 74.795C42.5971 74.802 43.4262 74.6131 44.1066 74.2318C44.5849 73.9624 44.9818 73.574 45.3007 73.0702C45.2865 73.1961 45.2759 73.3291 45.2617 73.4725C45.1011 75.0353 44.3641 75.6744 43.0506 75.3898L43.0471 75.3933Z" fill="white"/>
<path d="M30.0001 69.1943V64.4082C30.0993 64.3907 30.2091 64.3732 30.3367 64.3522C31.0666 64.2309 31.8757 64.8443 32.764 66.1925C33.6522 67.5406 33.2919 68.4211 31.6832 68.834C30.9036 69.0334 30.3757 69.1699 29.9965 69.2048V69.1943H30.0001Z" fill="white"/>
<path d="M48.7057 76.4259C50.031 75.6701 50.2117 75.5652 51.7141 76.0445C51.2322 76.8562 50.6369 77.5769 49.9317 78.2067C49.5809 78.5146 49.2195 78.798 48.8404 79.0569C47.1714 77.297 47.1962 77.2865 48.7057 76.4224V76.4259Z" fill="white"/>
<path d="M115.705 81.0831C115.776 79.3478 115.79 79.3338 116.371 78.76C116.952 78.1862 116.966 78.1722 118.487 78.2002C119.5 78.2166 120.101 78.9128 120.29 80.2889C120.304 80.4044 120.319 80.5129 120.333 80.6143C119.167 80.9397 117.934 81.1041 116.633 81.1041C116.318 81.1041 116.01 81.0971 115.705 81.0796V81.0831Z" fill="white"/>
<path d="M60.58 80.7365V80.5616C60.7642 80.3622 61.1115 80.1417 61.8627 79.6554C62.7887 79.056 63.8636 79.1971 65.0872 80.0788C65.4593 80.3482 65.7569 80.5616 65.9837 80.7365H60.5764H60.58Z" fill="white"/>
<path d="M37.3455 80.4921C38.3353 79.2956 38.9011 78.6903 39.0428 78.6763C39.1846 78.6623 39.7444 79.4635 40.7224 81.0799C39.5177 81.0169 38.3908 80.8175 37.3455 80.4886V80.4921Z" fill="white"/>
<path d="M41.3035 80.3902C40.5948 78.9954 40.5582 77.8466 41.1937 76.944C41.8291 76.0413 42.6618 75.7229 43.6918 75.9888C44.7218 76.2547 45.3053 76.4903 45.4423 76.6956C45.5793 76.9008 45.3053 77.9189 44.6202 79.7499C44.4501 80.2012 44.3084 80.5826 44.1879 80.8975C43.3871 81.0339 42.5437 81.1039 41.6649 81.1039C41.5622 80.8975 41.4417 80.6631 41.3035 80.3902Z" fill="white"/>
<path d="M32.2608 74.9004C31.1056 74.1937 30.7264 73.9592 30.4997 73.6479C30.3686 73.1895 30.2658 72.7137 30.1843 72.2134C30.4111 71.972 30.9284 71.6711 31.9348 71.0868C33.3143 70.2868 34.6585 70.2576 35.9672 70.9994C37.2759 71.7411 37.2712 72.7534 35.953 74.0362C34.6349 75.3191 33.4029 75.6071 32.2572 74.9004H32.2608Z" fill="white"/>
<path d="M33.3024 78.2107C33.0224 77.9623 32.7602 77.6964 32.5122 77.42C32.8063 77.2731 33.2988 77.3536 34.2591 77.5075C35.5725 77.7221 36.4489 78.1221 36.8883 78.7076C37.349 79.3268 37.4872 79.5087 36.8954 80.3414C35.5595 79.8586 34.3619 79.1484 33.3024 78.2107Z" fill="white"/>
<path d="M45.499 79.2354C45.4872 79.0862 45.5994 78.8261 45.8356 78.4552C46.0719 78.0844 46.3341 77.8395 46.6223 77.7205C46.9105 77.6016 47.2613 77.9514 47.6747 78.7701C47.8271 79.071 47.9936 79.3089 48.1531 79.4943C47.54 79.8512 46.8916 80.1486 46.2077 80.3865C45.7648 80.5369 45.3077 80.6664 44.8364 80.7714C44.6592 80.6559 44.8293 80.2396 45.499 79.2389V79.2354Z" fill="white"/>
<path d="M36.534 77.4412C34.7009 76.9001 34.558 75.8901 36.1053 74.4113C36.9026 73.6486 37.427 73.1483 37.8274 72.8894C38.1605 73.4842 38.5963 73.932 39.1314 74.2329C39.5141 74.4498 39.9464 74.6038 40.4212 74.6947C41.1972 75.6848 41.1831 75.7618 41.0838 76.1957C41.0059 76.5479 40.687 76.9782 40.1271 77.4867C39.5672 77.9951 38.3696 77.9788 36.534 77.4377V77.4412Z" fill="white"/>
<path d="M120.482 79.5684C119.939 77.9473 119.719 77.0458 119.823 76.8639C119.927 76.682 120.424 76.4231 121.315 76.0872C122.206 75.7513 123.047 76.612 123.838 78.6692C123.873 78.7672 123.912 78.8581 123.948 78.9491C122.977 79.5929 121.953 80.0932 120.872 80.4465C120.844 80.457 120.819 80.464 120.791 80.4745C120.698 80.2191 120.596 79.9182 120.482 79.5684Z" fill="white"/>
<path d="M124.49 78.2256C123.656 77.7242 123.393 76.9486 123.7 75.899C124.104 74.5275 124.153 74.3526 124.579 74.0797V78.2781C124.55 78.2606 124.522 78.2431 124.49 78.2221V78.2256Z" fill="white"/>
<path d="M129.776 80.4944L131.821 76.6004C132.76 76.5339 132.955 76.9783 133.71 78.6926C134.209 79.8297 134.464 80.407 134.39 80.7358H130.095C129.996 80.6624 129.89 80.5819 129.776 80.4944Z" fill="white"/>
<path d="M120.84 61.9349C120.691 61.8685 120.546 61.809 120.397 61.7495C120.985 61.2947 121.042 61.2912 121.612 61.2422C122.035 61.2049 122.594 61.381 123.288 61.7705C124.199 62.2813 124.312 62.3443 124.578 63.7612V64.5729C123.409 63.4009 122.165 62.5227 120.843 61.9349H120.84Z" fill="white"/>
<path d="M123.632 61.4166C122.994 61.0598 123.308 60.1303 124.575 58.6282V61.819C124.256 61.7665 124.025 61.637 123.632 61.4166Z" fill="white"/>
<path d="M120.716 58.422C120.407 56.4592 120.354 56.1094 121.3 55.6335C122.459 56.0639 123.554 56.6622 124.578 57.4284V57.8797C124.44 58.0476 124.284 58.2296 124.117 58.4255C122.825 59.9532 121.997 60.7323 121.633 60.7626C121.269 60.7929 120.962 60.0127 120.712 58.422H120.716Z" fill="white"/>
<path d="M116.634 61.0526C116.531 61.0526 116.432 61.0526 116.329 61.0596C115.337 60.6328 115.27 60.4019 114.912 59.2158C114.619 58.2339 114.472 57.7417 114.472 57.7394C114.472 57.7394 114.472 57.7359 116.478 56.5044C117.813 55.6833 118.709 55.4011 119.167 55.6577C119.626 55.9142 119.982 56.8624 120.238 58.5021C120.493 60.1418 120.366 61.1599 119.858 61.5564C118.831 61.2206 117.754 61.0526 116.634 61.0526Z" fill="white"/>
<path d="M119.391 55.2349C119.249 55.1544 119.136 55.0914 119.044 55.0284C119.564 55.1159 120.075 55.2384 120.574 55.3853C120.011 55.5777 119.859 55.4938 119.394 55.2314L119.391 55.2349Z" fill="white"/>
<path d="M113.774 56.1965C113.516 55.7137 113.374 55.4513 113.385 55.1399C114.419 54.9335 115.504 54.8285 116.637 54.8285C117.063 54.8285 117.484 54.846 117.895 54.8845C117.676 55.2133 117.197 55.5072 116.28 56.0705C114.992 56.8612 114.158 56.9032 113.778 56.1965H113.774Z" fill="white"/>
<path d="M31.1481 75.3593C31.187 75.3802 31.2331 75.4012 31.2827 75.4257C31.6064 75.5937 31.806 75.8152 31.8816 76.0905C31.9312 76.2654 31.9595 76.3669 31.8887 76.6223C31.6123 76.2269 31.3642 75.8071 31.1516 75.3593H31.1481Z" fill="white"/>
<path d="M135.613 77.6297C134.023 77.1399 133.139 76.4786 132.962 75.646C132.863 75.1946 132.803 74.9042 132.845 74.6558H132.849L133.115 74.1485C133.345 73.8896 133.735 73.5782 134.358 73.0814C135.469 72.1974 136.038 71.7566 136.066 71.7589C136.095 71.7613 136.916 72.3805 138.529 73.6167C140.143 74.8529 140.845 75.6716 140.637 76.0728C140.34 76.6431 140.326 76.6711 139.33 77.3988H138.674L138.355 78.039L138.348 78.0495C137.796 78.3015 137.299 78.1475 135.616 77.6297H135.613Z" fill="white"/>
<path d="M133.738 72.962L135.074 70.422C135.556 71.5171 135.279 71.7375 134.018 72.7416C133.919 72.8221 133.826 72.8956 133.738 72.962Z" fill="white"/>
<path d="M141.955 75.9083C142.298 75.5887 142.688 75.4045 143.125 75.3555C143.562 75.3065 144.354 75.9503 145.502 77.2868C145.534 77.3253 145.566 77.3637 145.598 77.3987H141.665C141.488 76.3421 141.597 76.2442 141.955 75.9083Z" fill="white"/>
<path d="M138.922 73.3125C137.349 72.1043 137.161 70.9264 138.359 69.7789C139.556 68.6313 140.39 68.0867 140.86 68.145C141.491 68.2254 141.558 68.2324 142.175 69.7404L141.045 72.011H143.047C143.22 72.6198 143.118 72.8647 142.855 73.5154C142.574 74.2129 142.241 74.6549 141.856 74.8414C141.473 75.028 140.494 74.5172 138.919 73.309L138.922 73.3125Z" fill="white"/>
<path d="M135.358 69.8761L137.781 65.2683C137.987 65.4817 138.224 65.7931 138.55 66.2165C139.349 67.2567 139.14 68.3611 137.923 69.5297C136.707 70.6983 136.097 71.2814 136.095 71.279C136.095 71.279 136.088 71.279 135.361 69.8761H135.358Z" fill="white"/>
<path d="M152.16 79.4732C153.072 78.8295 154.276 78.8166 155.771 79.4347C157.674 80.2219 157.961 80.3409 158.003 80.7397H150.931C150.959 80.3234 151.271 80.103 152.164 79.4732H152.16Z" fill="white"/>
<path d="M150.488 79.8129L149.283 77.3988H147.89C148.089 77.0874 148.564 76.5311 149.602 75.3031C150.875 73.8033 151.694 73.1176 152.057 73.2459C152.421 73.3742 152.611 73.4441 152.628 73.4558C152.645 73.4675 152.75 74.2488 152.943 75.7999C153.137 77.351 152.78 78.4449 151.873 79.0817C151.172 79.5785 150.831 79.8164 150.484 79.8094L150.488 79.8129Z" fill="white"/>
<path d="M145.151 75.9124C143.668 75.0611 143.058 74.3065 143.323 73.6488C143.649 72.8406 143.709 72.6937 145.275 72.0184H146.909L146.625 71.4516C148.515 70.6679 149.739 70.6901 150.296 71.5181C150.854 72.3461 150.507 73.4983 149.254 74.9748C148.002 76.4512 146.635 76.7649 145.151 75.9159V75.9124Z" fill="white"/>
<path d="M146.413 71.0208L144.025 66.2102C145.591 64.7512 145.623 64.7547 146.41 64.9156C146.955 65.0253 147.481 65.2457 147.986 65.5769C148.492 65.9081 148.846 66.307 149.049 66.7734C149.253 67.2399 149.347 67.8639 149.333 68.6452C149.319 69.4266 148.372 70.208 146.491 70.9893C146.463 71.0033 146.438 71.0138 146.413 71.0243V71.0208ZM143.805 66.4131L143.848 66.3746L142.473 69.1385V69.1455C142.087 68.019 142.363 67.7601 143.805 66.4131Z" fill="white"/>
<path d="M155.938 78.9802C154.461 78.3714 153.63 77.3277 153.443 75.8489C153.216 74.0261 153.174 73.7007 154.694 73.8721L157.734 79.652V79.659C157.394 79.5785 156.855 79.3581 155.938 78.9802Z" fill="white"/>
<path d="M140.928 67.6726C140.443 67.6096 139.788 67.0405 138.961 65.9653C138.511 65.381 138.224 65.0066 138.061 64.7302L139.358 62.2637C139.624 62.1167 139.964 61.9383 140.407 61.7039C141.675 61.0368 142.79 61.3307 143.752 62.5855C144.713 63.8404 144.604 65.0171 143.426 66.1157C142.247 67.2143 141.414 67.7344 140.928 67.6761V67.6726Z" fill="white"/>
<path d="M139.758 61.5007L141.643 57.911C142.359 58.2784 142.334 58.4988 142.26 59.2125C142.186 59.9006 141.519 60.5758 140.258 61.2383C140.073 61.3362 139.907 61.4237 139.754 61.5007H139.758Z" fill="white"/>
<path d="M152.118 72.7564C151.768 72.6351 151.292 72.129 150.69 71.238C150.087 70.347 149.794 69.5271 149.811 68.7784C149.825 67.9107 149.829 67.7113 151.395 67.5994L153.574 71.7453C152.617 72.9279 152.525 72.8964 152.118 72.7564Z" fill="white"/>
<path d="M153.858 72.2831L154.389 73.2907C153.67 73.1158 153.521 72.8744 153.858 72.2831Z" fill="white"/>
<path d="M146.403 64.4291C145.902 64.3265 145.147 63.6186 144.138 62.3054C143.13 60.9922 142.663 59.9928 142.739 59.307C142.814 58.6213 143.449 58.1035 144.642 57.7536C145.294 57.5647 145.708 57.4423 146.034 57.4003L148.15 61.4272C148.132 61.4832 148.114 61.5392 148.1 61.5952C147.472 63.5894 146.907 64.5364 146.406 64.4361L146.403 64.4291Z" fill="white"/>
<path d="M149.492 66.5803C149.308 66.157 149.255 66.031 150.151 65.2263L151.144 67.1121C149.74 67.1436 149.691 67.0316 149.496 66.5803H149.492Z" fill="white"/>
<path d="M142.214 56.8336L142.568 56.1583C142.568 56.6306 142.476 56.8266 142.214 56.8336Z" fill="white"/>
<path d="M148.263 65.1837C147.628 64.7708 147.607 64.7568 148.465 62.0209L149.903 64.7568C148.868 65.579 148.741 65.4951 148.263 65.1802V65.1837Z" fill="white"/>
<path d="M143.291 55.2801C143.295 55.0947 143.302 54.9162 143.305 54.7518L143.975 53.4783L145.935 57.2114V57.2184C145.687 57.4423 145.329 57.5472 144.638 57.7467C143.676 58.0266 143.225 57.2032 143.284 55.2766L143.291 55.2801Z" fill="white"/>
<path d="M132.281 75.7298L132.565 75.191C132.565 75.4604 132.561 75.5444 132.274 75.7403L132.281 75.7298Z" fill="white"/>
<path d="M137.059 80.6212L137.002 80.7402H136.963C136.995 80.7017 137.027 80.6632 137.062 80.6212H137.059Z" fill="white"/>
<path d="M134.759 79.4553C134.588 78.0908 133.866 77.6815 133.94 77.65C134.011 77.6185 134.698 77.5065 135.843 78.2553C136.984 78.3777 137.937 78.2937 138.111 78.5177L137.866 79.011C137.678 79.1964 137.384 79.4343 136.97 79.7422C136.929 79.8868 136.735 80.0944 136.385 80.365C136.091 80.5924 135.96 80.6938 135.822 80.7428H135.031C134.907 80.6274 134.865 80.3055 134.762 79.4623L134.759 79.4553Z" fill="white"/>
<path d="M83.8498 58.8555C82.4997 58.5441 82.4183 58.5231 82.5281 55.9166C82.6557 55.8641 82.7832 55.8152 82.9108 55.7662C84.3671 55.2204 85.9369 54.9125 87.6165 54.8425C88.1834 55.3533 88.2189 55.5842 88.3252 56.2525C88.4315 56.9336 87.9508 57.5937 86.883 58.2327C85.8152 58.8718 84.8042 59.0794 83.8498 58.8555Z" fill="white"/>
<path d="M92.5738 61.9346C91.6241 61.5148 90.6355 61.2419 89.6079 61.1229C88.9559 58.324 88.9736 58.324 90.8729 58.5864C92.1509 58.759 92.927 59.5987 93.201 61.1054C93.2967 61.6372 93.3711 62.0431 93.4242 62.3545C93.1443 62.2005 92.8608 62.0606 92.5773 61.9311L92.5738 61.9346Z" fill="white"/>
<path d="M78.7081 58.2784C79.7357 57.3933 80.8448 56.676 82.0354 56.1302C81.9256 58.5548 81.8618 58.5828 81.1389 58.9082C80.3629 59.2546 80.3487 59.2616 78.7081 58.2784Z" fill="white"/>
<path d="M85.3593 61.5578C85.4869 60.247 86.068 59.2825 87.1027 58.6644C88.1374 58.0463 88.9158 58.8615 89.4378 61.11C89.087 61.075 88.7291 61.0575 88.3677 61.0575C87.2692 61.0575 86.2629 61.2639 85.3487 61.6768C85.3522 61.6383 85.3558 61.5998 85.3593 61.5613V61.5578Z" fill="white"/>
<path d="M80.5937 65.0181C80.3291 64.7172 80.2582 63.7551 80.3811 62.1317C80.5039 60.5083 80.8358 59.5742 81.3768 59.3293C81.9177 59.0844 82.6678 59.075 83.6269 59.3013C84.5859 59.5275 85.0017 60.2926 84.8742 61.5964C84.86 61.7154 84.8493 61.8273 84.8387 61.9323C84.3107 62.2262 83.8182 62.597 83.354 63.0379C82.6701 63.6991 82.1563 64.4408 81.8162 65.2665C81.8162 65.2735 81.8091 65.2805 81.8091 65.2875C81.437 65.4974 81.3768 65.4939 81.2279 65.4869C81.0649 65.4776 80.8523 65.3225 80.5901 65.0216L80.5937 65.0181Z" fill="white"/>
<path d="M77.7477 63.9881C76.2276 63.6977 75.8768 63.6312 75.2992 62.7916C75.9795 61.2416 76.9894 59.8492 78.3359 58.6141C80.0829 59.6637 80.0828 59.6847 79.9057 62.0149C79.7876 63.5823 79.0682 64.2412 77.7477 63.9916V63.9881Z" fill="white"/>
<path d="M66.4514 66.0208C66.1112 65.5356 66.0073 64.8067 66.1395 63.8341C66.3238 62.4661 66.3344 62.3821 67.6278 62.2317V66.724C66.9333 66.7135 66.8411 66.5805 66.4514 66.0243V66.0208Z" fill="white"/>
<path d="M62.4507 72.2061C61.8484 70.6504 62.0574 69.7302 63.0779 69.4457C64.0984 69.1611 64.9796 69.5833 65.7213 70.7122C66.4631 71.8411 66.254 72.7613 65.0942 73.4727C63.9343 74.184 63.0531 73.7619 62.4507 72.2061Z" fill="white"/>
<path d="M66.1501 70.4857C65.38 69.3171 65.1484 68.4495 65.4555 67.8827C65.7626 67.3159 66.4513 67.0162 67.5214 66.9835H67.6241V72.2385C67.2981 72.2385 67.284 72.214 66.1501 70.4857Z" fill="white"/>
<path d="M74.4176 70.0731C74.3183 69.4014 74.2687 68.7051 74.2687 67.9844C74.2687 66.5779 74.4601 65.2589 74.8392 64.0309C75.0554 64.1568 75.3743 64.3528 75.8668 64.6502C76.807 65.2193 77.2074 66.024 77.0681 67.0642C76.9287 68.1045 76.5507 68.9162 75.9342 69.4993C75.2963 70.1046 75.0979 70.29 74.4176 70.0731Z" fill="white"/>
<path d="M64.6509 77.9476C63.4273 76.9517 62.917 76.2216 63.1202 75.7574C63.3233 75.2933 64.0615 74.6705 65.3348 73.8892C66.6081 73.1078 67.3652 72.7183 67.6062 72.7206C67.6062 72.7206 67.6204 72.7206 67.6274 72.7206V79.1407C66.4723 79.4276 66.3093 79.2946 64.6509 77.9476Z" fill="white"/>
<path d="M74.5378 70.7723C74.8638 71.0172 74.8992 71.2517 74.9772 71.7695C75.0197 72.0634 75.048 72.2628 75.0126 72.4587C74.8177 71.9164 74.6583 71.3531 74.5378 70.7723Z" fill="white"/>
<path d="M79.7999 69.3662C78.1699 68.8367 77.4211 68.0658 77.5533 67.0535C77.6856 66.0412 78.086 65.359 78.7546 65.0068C79.4231 64.6546 80.0597 64.5753 80.6645 64.7689C81.2811 64.9683 81.483 65.0313 81.7594 65.4127C81.4618 66.1999 81.313 67.057 81.3165 67.9877C81.3165 68.6559 81.3909 69.2822 81.5433 69.877C81.1677 69.8105 80.622 69.6356 79.7999 69.3697V69.3662Z" fill="white"/>
<path d="M79.0133 74.1069C77.9243 74.0695 77.0833 73.8235 76.4904 73.3686C75.8975 72.9138 75.5526 72.3633 75.4557 71.7173C75.3588 71.0712 75.6175 70.4589 76.2317 69.8804C76.8459 69.302 77.9999 69.2868 79.6937 69.835C80.7532 70.1778 81.3733 70.3808 81.7382 70.5102C81.763 70.5767 81.7914 70.6467 81.8162 70.7131C81.919 70.965 82.0359 71.2064 82.1741 71.4409C82.0501 71.6788 81.8445 72.0391 81.5256 72.6094C80.9398 73.6474 80.1023 74.1477 79.0133 74.1104V74.1069Z" fill="white"/>
<path d="M75.3878 73.3824C75.6607 73.3335 75.8626 73.4874 76.2134 73.7568C76.9717 74.3376 77.032 74.3866 76.8584 75.772C76.2701 75.0233 75.7811 74.2256 75.3878 73.3824Z" fill="white"/>
<path d="M78.3467 77.3705C77.964 77.0206 77.6097 76.6567 77.2802 76.2824C77.4313 75.1162 78.029 74.5517 79.0731 74.589C80.1173 74.6263 80.8472 75.0543 81.263 75.873C81.6788 76.6917 81.8772 77.1815 81.8583 77.3425C81.8394 77.5034 81.3468 77.9139 80.3807 78.574C80.2885 78.6405 80.2 78.6965 80.1185 78.7524C79.5019 78.3431 78.9137 77.8848 78.3467 77.3705Z" fill="white"/>
<path d="M81.6599 75.59C81.2607 74.8063 81.3505 73.9024 81.9292 72.8785C82.1631 72.4621 82.3367 72.1578 82.5033 71.9443C82.7478 72.2942 83.0348 72.6231 83.3572 72.9345C84.0447 73.5747 84.803 74.061 85.6392 74.3899C86.2062 74.6103 86.8086 74.7573 87.4428 74.8272C87.1416 75.0861 86.44 75.3311 85.0794 75.7964C83.199 76.4401 82.0591 76.3702 81.6599 75.5865V75.59Z" fill="white"/>
<path d="M94.257 62.869C94.3775 62.6801 94.5724 62.6241 94.9303 62.5227C95.4689 62.3722 95.6319 62.3267 96.3087 62.6136V64.5729C95.6496 63.9116 94.9657 63.3413 94.257 62.869Z" fill="white"/>
<path d="M88.9594 75.2442C88.7716 75.0937 88.6512 74.9993 88.5449 74.8803C89.2996 74.8663 90.0296 74.7824 90.7418 74.6179C89.4732 75.6605 89.3917 75.5941 88.9594 75.2477V75.2442Z" fill="white"/>
<path d="M80.5577 79.0294C80.5577 79.0294 80.5683 79.0225 80.5754 79.019C81.5298 78.3682 82.4853 78.6271 83.4421 79.7957C83.6795 80.0896 83.8779 80.331 84.0409 80.5409C82.8042 80.1945 81.6455 79.6942 80.5612 79.0329L80.5577 79.0294Z" fill="white"/>
<path d="M84.8455 80.7405C84.6117 80.4676 84.2857 80.0722 83.8108 79.4879C82.8092 78.2611 82.3167 77.5788 82.3332 77.4412C82.3498 77.3036 83.3301 76.9024 85.2743 76.2377C87.2185 75.5729 88.3713 75.3863 88.7327 75.6779C89.0941 75.9694 89.3315 76.3251 89.4449 76.745C89.5583 77.1648 89.0197 78.0278 87.8291 79.334C87.0106 80.2332 86.5712 80.723 86.2948 80.9854C85.7987 80.9259 85.3168 80.8419 84.8455 80.7405Z" fill="white"/>
<path d="M102.535 67.9834C102.535 67.4131 102.567 66.8603 102.627 66.318C102.758 66.5384 102.91 66.8358 103.102 67.2032C103.761 68.472 104.038 69.2044 103.934 69.4003C103.796 69.6732 103.782 69.6942 102.683 70.0686C102.584 69.3968 102.535 68.7006 102.535 67.9799V67.9834Z" fill="white"/>
<path d="M91.0356 77.9093C90.4025 77.4965 90.0316 77.0848 89.923 76.6743C89.767 76.076 89.7635 76.062 91.9002 74.2672C92.127 74.1867 92.3502 74.0958 92.5735 73.9978C93.2503 73.6969 93.9093 73.319 94.5472 72.8607C94.8554 73.0706 95.1673 73.557 95.6598 74.3232C95.922 74.736 96.1346 75.0649 96.3047 75.3343V77.6959C95.9964 77.8358 95.4295 77.9338 94.2566 78.1367C92.74 78.4003 91.6652 78.3245 91.0321 77.9093H91.0356Z" fill="white"/>
<path d="M95.9969 73.9549C95.5504 73.2657 95.2528 72.7969 95.0508 72.4855C95.4725 72.1496 95.887 71.7823 96.291 71.3764C96.2981 71.3764 96.3052 71.3729 96.3087 71.3729V74.4378C96.213 74.2943 96.1103 74.1334 95.9969 73.9584V73.9549Z" fill="white"/>
<path d="M87.0564 81.055C87.2442 80.6911 87.6269 80.2713 88.1974 79.6415C89.3431 78.382 90.216 77.947 90.816 78.3365C91.5601 78.8228 91.6877 78.9068 92.0456 80.6176C90.8869 80.9395 89.6608 81.104 88.3675 81.104C87.921 81.104 87.4852 81.0865 87.0564 81.055Z" fill="white"/>
<path d="M103.558 73.1579C103.197 72.3357 102.934 71.4646 102.761 70.5514C103.902 70.1735 103.994 70.261 105.44 71.5905C106.472 72.5398 106.301 73.4261 104.926 74.2495C104.699 74.386 104.497 74.5084 104.316 74.6134C104.029 74.1445 103.774 73.6617 103.558 73.1579Z" fill="white"/>
<path d="M94.4089 78.5953C95.3586 78.4309 95.8972 78.3399 96.3082 78.4554V78.5044C95.1602 79.365 93.9235 80.0158 92.6018 80.4496C92.577 80.4566 92.5557 80.4671 92.5309 80.4741C92.3077 78.9627 92.662 78.9032 94.4089 78.5988V78.5953Z" fill="white"/>
<path fill-rule="evenodd" clip-rule="evenodd" d="M67.2559 80.3792C67.3268 80.2568 67.4614 80.1343 67.628 80.0259V80.7326H67.2028C67.2205 80.5892 67.2347 80.4667 67.2559 80.3757V80.3792Z" fill="white"/>
<path fill-rule="evenodd" clip-rule="evenodd" d="M60.5762 76.6034V73.2656C60.7675 73.1642 61.051 73.2202 61.4585 73.5001C61.6002 73.6085 61.7703 73.8814 61.9439 74.2488C62.5357 75.4838 63.1806 77.7929 63.0212 78.5102C62.5747 79.0804 61.9794 79.0979 61.2601 79.0839C61.1963 78.8845 60.849 77.7929 60.5797 76.6034H60.5762Z" fill="white"/>
<path fill-rule="evenodd" clip-rule="evenodd" d="M60.5765 72.6161V69.9291C60.7855 69.9886 60.9875 70.062 61.1895 70.1005C61.2887 71.1431 61.9549 72.0353 61.8592 72.742C61.3702 72.7735 60.9627 72.742 60.5765 72.6126V72.6161Z" fill="white"/>
<path fill-rule="evenodd" clip-rule="evenodd" d="M62.1284 68.9806C63.2765 67.6616 62.2241 66.549 62.4615 66.0767C63.3757 64.2574 63.0922 64.0719 63.7336 62.3121C64.5628 62.2281 65.0518 62.641 65.3459 63.2637C65.8313 64.2853 65.7923 65.8668 65.8738 66.7379C64.6514 67.6546 64.5202 69.2115 62.1284 68.9841V68.9806Z" fill="white"/>
<path fill-rule="evenodd" clip-rule="evenodd" d="M65.105 61.9979C64.9278 61.0778 66.4834 59.4754 67.6279 58.4957V62.1938C66.9475 62.3443 66.1219 62.2813 65.105 61.9979Z" fill="white"/>
<path fill-rule="evenodd" clip-rule="evenodd" d="M88.3679 54.8285C88.7754 55.0979 89.0447 55.2763 89.0447 55.2763C89.0624 55.1294 89.0908 54.9894 89.1156 54.8495" fill="white"/>
<path fill-rule="evenodd" clip-rule="evenodd" d="M89.7494 55.2449C89.7529 55.1295 89.7636 55.014 89.7777 54.8986C90.7628 54.993 91.7018 55.1889 92.6054 55.4863C92.7932 55.5493 92.9846 55.6158 93.1724 55.6893C92.2511 56.2071 90.9152 56.1126 89.7529 55.2484L89.7494 55.2449Z" fill="white"/>
<path fill-rule="evenodd" clip-rule="evenodd" d="M94.494 56.497C94.3948 56.3851 94.3168 56.2766 94.2601 56.1647C94.6605 56.3641 95.0468 56.581 95.433 56.8259C94.9759 56.7559 94.6286 56.6475 94.494 56.5005V56.497Z" fill="white"/>
<path fill-rule="evenodd" clip-rule="evenodd" d="M94.2289 61.8468C93.832 61.0596 93.7115 58.1906 93.9631 57.4244C94.9942 57.6588 95.6498 57.7148 96.3089 57.6868V60.9756C95.6356 61.7033 94.9092 62.1791 94.2289 61.8468Z" fill="white"/>
<path fill-rule="evenodd" clip-rule="evenodd" d="M89.948 57.488C89.8914 57.0436 89.7532 56.4244 90.0154 56.036C91.1209 56.155 92.1911 56.6903 93.4915 56.4314C94.0159 56.9981 93.6368 57.7609 93.3568 58.3451C92.9883 58.3731 90.2174 57.8063 89.9445 57.4845L89.948 57.488Z" fill="white"/>
<path fill-rule="evenodd" clip-rule="evenodd" d="M88.4777 57.887C88.5273 57.1907 88.6655 56.5925 88.8107 55.9732C88.995 55.9732 89.2112 55.9522 89.4131 55.9732C89.562 55.9907 89.7037 56.0362 89.8171 56.1341C89.7143 56.8654 89.6966 57.5476 89.5513 58.2788C89.1367 58.3593 88.7647 58.1179 88.4812 57.8835L88.4777 57.887Z" fill="white"/>
<path d="M112.694 59.2501C111.928 59.1591 111.516 58.5748 111.457 57.4973C111.398 56.4197 111.396 55.8354 111.45 55.7444C111.475 55.6989 111.496 55.6674 111.535 55.6395C111.932 55.503 112.336 55.3841 112.75 55.2826C113.009 55.3211 113.144 55.6465 113.548 56.6401C113.949 57.6267 114.099 58.3323 113.998 58.7568C113.894 59.179 113.459 59.3446 112.694 59.2536V59.2501Z" fill="white"/>
<path d="M111.669 80.3442C112.091 78.6089 112.158 78.6369 113.806 79.3821C115.446 80.1238 115.517 80.1553 115.223 81.051C113.972 80.9495 112.789 80.7151 111.669 80.3442Z" fill="white"/>
<path d="M107.18 58.107C108.311 57.1659 109.533 56.4277 110.858 55.8959C110.851 56.1233 110.841 56.3927 110.823 56.7076C110.752 58.0674 110.359 59.0132 109.643 59.545C108.612 60.3112 108.573 60.3392 107.18 58.107Z" fill="white"/>
<path d="M110.518 63.8832C108.893 62.6634 108.183 61.8517 108.388 61.4482C108.594 61.0446 109.079 60.5583 109.845 59.9892C110.61 59.4201 111.792 59.3699 113.392 59.8388C115.21 60.3811 115.645 60.5105 115.872 61.0878C114.232 61.2382 112.814 61.889 111.62 63.0331C111.287 63.3549 110.996 63.6943 110.745 64.0547C110.67 63.9987 110.596 63.9427 110.518 63.8832Z" fill="white"/>
<path d="M104.317 61.3571C104.926 60.3635 105.692 59.4469 106.613 58.6002C106.677 58.5407 106.744 58.4812 106.808 58.4218C108.222 60.6994 108.211 60.7239 107.907 61.3222C107.696 61.7373 107.395 62.0429 107.003 62.2388C106.432 62.5222 106.415 62.5327 104.313 61.3571H104.317Z" fill="white"/>
<path d="M109.608 78.3818C107.744 78.1112 107.291 77.5724 108.25 76.7654C109.21 75.9584 110.155 75.7601 111.085 76.1706C112.016 76.5811 112.636 77.0791 112.946 77.6646C113.255 78.25 113.243 78.5812 112.91 78.6582C112.577 78.7352 111.477 78.643 109.611 78.3818H109.608Z" fill="white"/>
<path d="M118.431 76.6609C118.213 76.6049 117.841 76.1477 117.314 75.2894C117.215 75.1319 117.13 74.992 117.056 74.8695C118.381 74.8205 119.646 74.5302 120.84 73.9984C120.904 73.9704 120.971 73.9389 121.035 73.9109C121.978 74.1313 121.648 74.3937 120.426 75.3873C119.313 76.2923 118.648 76.7168 118.431 76.6609Z" fill="white"/>
<path d="M108.247 69.3767C107.774 69.3207 107.245 68.5895 106.659 67.1831C106.073 65.7766 105.919 64.7235 106.195 64.0237C106.471 63.324 106.799 62.8785 107.177 62.6873C107.555 62.496 108.538 62.9963 110.128 64.1882C110.252 64.2827 110.373 64.3736 110.486 64.4576C110.334 64.7165 110.203 64.9824 110.089 65.2588C109.753 66.0845 109.583 66.9906 109.583 67.9808C109.583 68.2572 109.597 68.5265 109.622 68.7889C108.906 69.4502 108.764 69.4327 108.247 69.3732V69.3767Z" fill="white"/>
<path d="M109.756 69.6425C109.827 69.9538 109.916 70.2582 110.025 70.5486C109.777 70.1848 109.678 69.9258 109.756 69.6425Z" fill="white"/>
<path d="M112.793 76.6391C111.685 75.4939 111.255 74.6519 111.503 74.1131C111.698 73.6897 111.79 73.4903 112.066 73.3224C112.633 73.7772 113.246 74.1341 113.909 74.393C114.667 74.6869 115.489 74.8513 116.375 74.8793C116.325 75.2502 116.056 75.698 115.535 76.5692C114.819 77.768 113.906 77.7925 112.796 76.6426L112.793 76.6391Z" fill="white"/>
<path d="M105.412 74.9677C107.722 72.4731 107.074 72.4871 105.699 71.434C106.866 70.3214 107.693 69.7931 108.179 69.8491C108.666 69.9051 109.327 70.4684 110.164 71.539C111 72.6096 111.29 73.4189 111.035 73.9671C110.78 74.5152 110.022 75.1298 108.76 75.8109C107.499 76.4919 106.382 76.2109 105.408 74.9677H105.412Z" fill="white"/>
<path fill-rule="evenodd" clip-rule="evenodd" d="M108.434 78.7806C109.568 78.8296 110.921 79.0395 111.389 79.2635C111.262 79.5853 111.159 79.8722 111.077 80.1311C110.149 79.7778 109.267 79.3264 108.434 78.7806Z" fill="white"/>
<path fill-rule="evenodd" clip-rule="evenodd" d="M105.302 75.9923C105.801 76.3142 106.22 76.7515 106.471 77.2378C106.046 76.839 105.66 76.4226 105.302 75.9923Z" fill="white"/>
<path fill-rule="evenodd" clip-rule="evenodd" d="M105.663 62.9707C104.876 62.6838 104.334 62.4074 103.881 62.131ZM102.956 64.5521C103.452 65.2098 104.044 65.4162 104.66 64.4891Z" fill="white"/>
<path fill-rule="evenodd" clip-rule="evenodd" d="M105.128 70.5627C104.834 70.2863 104.976 69.2542 104.863 68.8448C104.657 68.1276 104.115 66.8051 104.193 66.0704C104.352 65.794 105.256 65.4091 105.596 65.2097C105.894 65.8255 107.761 71.7103 105.128 70.5592V70.5627Z" fill="white"/>
<path fill-rule="evenodd" clip-rule="evenodd" d="M116.9 76.1776C116.989 76.3665 117.102 76.5415 117.233 76.7059L117.031 77.2657C116.967 78.0249 115.631 78.994 114.983 79.0325C114.731 78.0249 116.011 76.2546 116.896 76.1776H116.9Z" fill="white"/>
<path fill-rule="evenodd" clip-rule="evenodd" d="M122.317 75.1201C122.13 74.221 122.587 73.3778 123.111 72.6466C123.366 72.4506 123.621 72.2442 123.869 72.0238C124.1 72.1638 124.341 72.2302 124.575 72.3807V72.825C124.011 73.6787 123.317 75.7079 122.314 75.1236L122.317 75.1201Z" fill="white"/>
<path fill-rule="evenodd" clip-rule="evenodd" d="M31.4599 69.8023C30.8752 69.7183 30.4288 69.7988 30 69.9317ZM30.0744 71.3557C30.9851 71.3242 31.0949 71.1842 31.7257 69.9352Z" fill="white"/>
</g>
<defs>
<clipPath id="clip0_1_275">
<rect width="128" height="45" fill="white" transform="translate(30 45)"/>
</clipPath>
</defs>
</svg>
