<svg width="162" height="58" viewBox="0 0 162 58" fill="none" xmlns="http://www.w3.org/2000/svg">
<path d="M47.0461 2.22046H47.6201V3.90664C47.2031 3.38677 47.073 3.09294 47.0461 2.22046Z" fill="#45EBC7"/>
<path d="M44.6286 2.55498C44.0546 2.43745 43.6645 2.35608 43.373 2.22046H46.3327C46.1758 2.88047 45.7677 2.79458 44.6286 2.55498Z" fill="#5CEDCF"/>
<path d="M38.7057 5.23118V2.22046H42.0062C41.9748 2.81266 41.6251 3.2828 40.8672 4.29994C39.8402 5.67872 39.5622 6.05393 38.7057 5.23118Z" fill="#6BFAF0"/>
<path d="M41.3103 4.72423C42.267 3.43436 43.3776 2.92202 44.6422 3.18723C45.9068 3.45244 46.8127 3.90751 47.3598 4.55245C47.4584 4.66999 47.5436 4.77396 47.6199 4.86437V5.80466C47.6199 5.80466 47.6019 5.8137 47.593 5.81822C47.2043 6.01411 45.8201 6.20398 43.4404 6.38782C41.0636 6.56864 40.3536 6.01562 41.3103 4.72875V4.72423Z" fill="#36D6B8"/>
<path d="M40.8756 9.70125C39.9877 8.76699 39.5796 8.13109 39.6514 7.79355C39.7231 7.45601 40.8711 7.20286 43.0954 7.03409C45.3197 6.86532 45.8698 7.50574 44.7457 8.95535C43.6216 10.405 42.919 11.1267 42.638 11.1207C42.357 11.1147 41.771 10.643 40.8801 9.70577L40.8756 9.70125Z" fill="#54F2D4"/>
<path d="M27.3193 4.69775C26.3731 3.33253 25.9605 2.74033 25.8215 2.22046H29.4045V7.04394C28.9157 6.99874 28.6287 6.58736 27.3193 4.69775Z" fill="#3BE3ED"/>
<path d="M38.7057 8.2729V6.26123C39.181 6.83535 39.1855 6.85343 39.1945 6.90316C39.2005 6.9574 39.1601 7.18645 39.0734 7.59029C39.0061 7.90221 38.9703 8.05591 38.7057 8.27742V8.2729Z" fill="#3DE8F0"/>
<path d="M20.4843 5.50694V2.22046H24.74C24.3409 2.69512 23.5427 3.27828 21.852 4.51693C21.3094 4.91474 20.861 5.24474 20.4798 5.51146L20.4843 5.50694Z" fill="#2EBAD9"/>
<path d="M38.7057 15.669V9.14128C39.3156 8.95141 39.6071 9.25882 40.4456 10.1358C41.3037 11.0369 41.4561 12.3419 40.9031 14.0507C40.2304 16.1437 40.1048 16.5279 38.7057 15.669Z" fill="#40E5C2"/>
<path d="M21.8658 12.3275C20.9913 12.0065 20.8254 11.9432 20.4891 11.5137V6.30149C20.9016 5.98052 21.4398 5.58723 22.1259 5.08544C24.2126 3.55447 25.7942 3.56502 26.8704 5.11709C27.9467 6.66916 27.9138 8.31617 26.7718 10.0581C25.6297 11.8 24.7074 12.6816 24.0049 12.7027C23.3023 12.7238 22.5893 12.6002 21.8658 12.332V12.3275Z" fill="#26B8D4"/>
<path d="M5.44904 2.22046H8.92447V4.0513C6.28762 4.26377 6.08134 4.13267 5.44904 2.22046Z" fill="#004C63"/>
<path d="M27.9558 14.8593C26.4072 13.5634 26.1964 12.052 27.3235 10.3252C28.6105 8.35419 28.9199 7.88405 29.3998 7.72583V15.9985C29.0276 15.7589 28.5746 15.3792 27.9513 14.8593H27.9558Z" fill="#4FF5E3"/>
<path d="M38.7045 19.8908V16.437C40.0005 17.3321 40.0454 17.4541 40.2561 18.0463C40.4325 18.5466 39.9153 19.1599 38.7045 19.8862V19.8908Z" fill="#40E5C2"/>
<path d="M0.740085 6.3975C0.475504 6.34777 0.233345 6.29352 0.00463867 6.24832V2.22046H4.80746C5.57879 4.59378 5.5743 4.5983 4.96442 5.85954C4.55484 6.7064 3.14673 6.88572 0.740085 6.3975Z" fill="#19597A"/>
<path d="M7.49774 10.3518C5.86541 9.39044 5.01337 8.6792 4.94162 8.2181C4.86987 7.757 5.04476 7.09096 5.4663 6.21999C6.04927 5.01751 6.0986 4.91806 8.91931 4.67847V11.1248C8.55159 10.9802 8.09866 10.7135 7.49326 10.3563L7.49774 10.3518Z" fill="#08638F"/>
<path d="M24.4124 21.9025C23.2106 21.58 22.7039 20.0731 22.8922 17.3819C23.0806 14.6906 23.4991 13.3359 24.1479 13.3179C24.7966 13.2998 25.9342 13.9703 27.5605 15.3295C28.4664 16.089 29.0359 16.5637 29.4036 16.9343V20.5373C29.1211 20.7181 28.7534 20.9306 28.2735 21.2018C26.9013 21.9884 25.6143 22.2219 24.4124 21.9025Z" fill="#5CFFE8"/>
<path d="M20.4845 20.0665V13.0506C20.9284 12.6392 21.1616 12.7251 21.637 12.9059C22.2588 13.138 22.474 14.6192 22.2827 17.3497C22.0914 20.0801 21.6579 21.5885 20.9822 21.8748C20.7311 21.9833 20.5428 22.0601 20.3679 22.1008C20.4441 21.4815 20.48 20.8034 20.48 20.0711L20.4845 20.0665Z" fill="#24B8D4"/>
<path d="M0.00463867 13.4891V6.88C0.184016 6.91617 0.367878 6.95233 0.565193 6.99302C3.02266 7.49029 4.28428 7.9544 4.35005 8.38537C4.41582 8.81633 4.00326 9.72497 3.11235 11.1113C2.22144 12.4976 1.31708 13.2691 0.399269 13.4258C0.251282 13.453 0.121234 13.4756 0.00463867 13.4891Z" fill="#08638F"/>
<path d="M4.01277 16.0883C2.88867 14.3464 2.74966 12.8154 3.59572 11.4954C4.44178 10.1754 5.69742 10.0066 7.36264 10.9891C8.05324 11.3959 8.5555 11.6943 8.91874 11.9113V14.488C8.64967 14.8406 8.32231 15.2746 7.91871 15.799C6.43586 17.7368 5.13238 17.8333 4.00829 16.0883H4.01277Z" fill="#054F73"/>
<path d="M26.2343 25.4369C26.4435 23.7492 27.2119 22.5241 28.5392 21.7617C28.8801 21.5627 29.1671 21.4 29.4047 21.287C29.3778 23.5654 29.0281 25.5816 28.3554 27.3356C28.185 27.7741 28.0011 28.1945 27.7903 28.6013C25.9248 27.9232 25.9607 27.6249 26.2298 25.4369H26.2343Z" fill="#63FCF0"/>
<path d="M7.09822 20.8302C6.40164 19.7723 6.80225 18.2655 8.30005 16.3096C8.52876 16.0112 8.73504 15.74 8.92339 15.5049V20.0662C8.92339 20.9567 8.98168 21.7569 9.08931 22.4757C8.12964 22.3988 8.02202 22.2315 7.10271 20.8302H7.09822Z" fill="#1F94BD"/>
<path d="M20.0815 29.7448C19.7586 29.347 19.7033 28.1008 19.9156 26.0063C20.1279 23.9117 20.5808 22.7168 21.2744 22.4214C21.968 22.1261 22.9172 22.1382 24.122 22.4576C25.3268 22.7771 25.8261 23.7791 25.6198 25.4638C25.4135 27.1485 24.6228 28.3901 23.2475 29.1888C21.8723 29.9874 21.083 30.3792 20.8797 30.3641C20.6765 30.3491 20.4119 30.1411 20.086 29.7403L20.0815 29.7448Z" fill="#54FAFA"/>
<path d="M16.5159 28.3166C15.2692 28.0409 14.6459 27.9007 14.1705 27.5346C14.3454 27.5436 14.5203 27.5481 14.7042 27.5436C15.9464 27.5526 16.9957 27.3085 17.8567 26.8158C18.4621 26.4677 18.9644 25.9659 19.368 25.3149C19.35 25.4777 19.3366 25.6495 19.3187 25.8348C19.1154 27.854 18.1826 28.6798 16.5204 28.3121L16.5159 28.3166Z" fill="#0A96BD"/>
<path d="M0.00448443 20.3068V14.1226C0.130049 14.1 0.269066 14.0774 0.430505 14.0503C1.3543 13.8936 2.37824 14.6862 3.50234 16.4281C4.62644 18.1701 4.17052 19.3077 2.13459 19.8412C1.14801 20.0989 0.479834 20.2752 0 20.3204V20.3068H0.00448443Z" fill="#054F73"/>
<path d="M23.6772 29.6503C25.3544 28.6738 25.5831 28.5382 27.4845 29.1575C26.8746 30.2063 26.1212 31.1376 25.2288 31.9513C24.7848 32.3491 24.3274 32.7153 23.8476 33.0498C21.7354 30.7759 21.7668 30.7624 23.6772 29.6458V29.6503Z" fill="#5CFFE8"/>
<path d="M108.469 35.6678C108.559 33.4256 108.577 33.4075 109.312 32.6661C110.048 31.9248 110.066 31.9067 111.99 31.9428C113.272 31.9639 114.033 32.8635 114.272 34.6416C114.29 34.7908 114.308 34.931 114.326 35.0621C112.851 35.4825 111.29 35.6949 109.644 35.6949C109.245 35.6949 108.855 35.6859 108.469 35.6633V35.6678Z" fill="#3BE8D9"/>
<path d="M38.7055 35.2201V34.9941C38.9387 34.7364 39.3782 34.4516 40.3289 33.8232C41.5008 33.0487 42.8611 33.231 44.4097 34.3702C44.8806 34.7183 45.2573 34.9941 45.5443 35.2201H38.701H38.7055Z" fill="#4AE3BF"/>
<path d="M9.29999 34.9045C10.5526 33.3585 11.2687 32.5764 11.448 32.5583C11.6274 32.5403 12.3359 33.5755 13.5737 35.664C12.0489 35.5826 10.6229 35.3249 9.29999 34.9V34.9045Z" fill="#0D96BA"/>
<path d="M14.3094 34.7721C13.4125 32.9699 13.3662 31.4856 14.1704 30.3193C14.9746 29.153 16.0284 28.7416 17.3319 29.0852C18.6354 29.4287 19.3738 29.7331 19.5472 29.9983C19.7206 30.2635 19.3738 31.579 18.5068 33.9448C18.2916 34.528 18.1122 35.0207 17.9597 35.4276C16.9463 35.6039 15.879 35.6943 14.7668 35.6943C14.6368 35.4276 14.4843 35.1247 14.3094 34.7721Z" fill="#178CB5"/>
<path d="M2.86573 27.6792C1.40381 26.766 0.923972 26.4632 0.636968 26.0608C0.471044 25.4686 0.340996 24.8538 0.237854 24.2074C0.524858 23.8955 1.17958 23.5067 2.45316 22.7517C4.1991 21.718 5.9002 21.6804 7.55645 22.6387C9.2127 23.5971 9.20672 24.9051 7.53851 26.5626C5.8703 28.2202 4.31121 28.5924 2.86125 27.6792H2.86573Z" fill="#004C63"/>
<path d="M4.18356 31.9564C3.82929 31.6354 3.49744 31.2919 3.18353 30.9347C3.55574 30.7449 4.17908 30.8488 5.39436 31.0478C7.05659 31.325 8.16574 31.8419 8.72181 32.5983C9.30478 33.3985 9.47967 33.6335 8.73077 34.7094C7.04014 34.0856 5.52441 33.1679 4.18356 31.9564Z" fill="#19597A"/>
<path d="M19.6195 33.2802C19.6046 33.0874 19.7466 32.7513 20.0456 32.2722C20.3445 31.793 20.6764 31.4765 21.0411 31.3228C21.4058 31.1691 21.8498 31.6212 22.373 32.679C22.5658 33.0678 22.7766 33.3752 22.9784 33.6148C22.2026 34.0759 21.3819 34.4601 20.5164 34.7675C19.9559 34.9619 19.3774 35.1292 18.781 35.2648C18.5567 35.1156 18.772 34.5777 19.6195 33.2848V33.2802Z" fill="#0D96BA"/>
<path d="M8.27374 30.9621C5.9538 30.2629 5.77292 28.958 7.73113 27.0473C8.74012 26.0618 9.40382 25.4153 9.91056 25.0808C10.3321 25.8493 10.8837 26.428 11.5608 26.8167C12.0451 27.097 12.5922 27.2959 13.1932 27.4134C14.1753 28.6928 14.1573 28.7922 14.0318 29.3528C13.9331 29.8079 13.5295 30.3639 12.821 31.0209C12.1124 31.6779 10.5967 31.6568 8.27374 30.9576V30.9621Z" fill="#08638F"/>
<path d="M114.514 33.7111C113.826 31.6165 113.548 30.4517 113.68 30.2166C113.812 29.9816 114.441 29.647 115.568 29.2131C116.695 28.7791 117.759 29.8912 118.761 32.5493C118.806 32.6758 118.855 32.7934 118.9 32.9109C117.671 33.7427 116.375 34.3892 115.007 34.8457C114.972 34.8593 114.94 34.8683 114.904 34.8819C114.788 34.5519 114.658 34.1631 114.514 33.7111Z" fill="#66E5C9"/>
<path d="M119.587 31.9754C118.532 31.3275 118.198 30.3254 118.587 28.9692C119.098 27.1972 119.161 26.9711 119.699 26.6185V32.0433C119.663 32.0206 119.627 31.998 119.587 31.9709V31.9754Z" fill="#29D9CF"/>
<path d="M126.276 34.9077L128.864 29.8763C130.052 29.7904 130.299 30.3645 131.254 32.5796C131.886 34.0488 132.209 34.7947 132.115 35.2197H126.68C126.554 35.1247 126.42 35.0207 126.276 34.9077Z" fill="#5CFFE8"/>
<path d="M114.967 10.9269C114.779 10.841 114.595 10.7642 114.407 10.6873C115.151 10.0996 115.223 10.0951 115.945 10.0318C116.48 9.98362 117.187 10.2112 118.066 10.7144C119.219 11.3745 119.362 11.4558 119.699 13.2867V14.3355C118.219 12.821 116.645 11.6864 114.972 10.9269H114.967Z" fill="#2ED9B8"/>
<path d="M118.501 10.257C117.693 9.79587 118.091 8.5949 119.693 6.65405V10.7768C119.29 10.709 118.998 10.5418 118.501 10.257Z" fill="#78FCF2"/>
<path d="M114.81 6.38759C114.42 3.85153 114.353 3.39947 115.55 2.78467C117.017 3.3407 118.402 4.11373 119.698 5.10374V5.6869C119.523 5.90388 119.326 6.13896 119.115 6.39211C117.48 8.36611 116.432 9.37269 115.972 9.41187C115.511 9.45105 115.123 8.44296 114.806 6.38759H114.81Z" fill="#5EFADB"/>
<path d="M109.645 9.78631C109.515 9.78631 109.389 9.78631 109.259 9.79535C108.004 9.24384 107.918 8.94548 107.465 7.41299C107.095 6.14421 106.909 5.50831 106.909 5.5053C106.909 5.5053 106.909 5.50078 109.448 3.90953C111.137 2.84869 112.271 2.48403 112.851 2.81554C113.431 3.14705 113.883 4.37213 114.206 6.49079C114.528 8.60945 114.368 9.92494 113.726 10.4373C112.425 10.0033 111.062 9.78631 109.645 9.78631Z" fill="#47EBCC"/>
<path d="M113.134 2.2694C112.955 2.16543 112.811 2.08406 112.694 2.00269C113.354 2.1157 113.999 2.27392 114.632 2.46379C113.919 2.71242 113.726 2.60393 113.138 2.26488L113.134 2.2694Z" fill="#63FCE5"/>
<path d="M106.026 3.51243C105.698 2.88859 105.519 2.54954 105.533 2.14721C106.842 1.88049 108.214 1.74487 109.649 1.74487C110.187 1.74487 110.721 1.76748 111.241 1.8172C110.963 2.24214 110.358 2.62187 109.196 3.34969C107.567 4.37134 106.512 4.42559 106.03 3.51243H106.026Z" fill="#4AE3BF"/>
<path d="M1.45721 28.2723C1.50654 28.2995 1.56484 28.3266 1.62762 28.3582C2.0372 28.5752 2.28982 28.8615 2.38549 29.2171C2.44827 29.4432 2.48415 29.5743 2.39446 29.9043C2.04467 29.3934 1.73076 28.851 1.4617 28.2723H1.45721Z" fill="#19597A"/>
<path d="M133.663 31.2053C131.651 30.5725 130.533 29.7181 130.309 28.6422C130.183 28.059 130.107 27.6838 130.161 27.3628H130.165L130.502 26.7073C130.793 26.3728 131.286 25.9705 132.076 25.3286C133.481 24.1863 134.201 23.6167 134.237 23.6198C134.273 23.6228 135.312 24.4229 137.354 26.0202C139.396 27.6175 140.285 28.6753 140.022 29.1937C139.645 29.9305 139.627 29.9667 138.367 30.907H137.538L137.134 31.7342L137.125 31.7478C136.425 32.0733 135.798 31.8744 133.668 31.2053H133.663Z" fill="#33C7DE"/>
<path d="M131.29 25.1747L132.98 21.8927C133.59 23.3076 133.241 23.5924 131.644 24.8899C131.519 24.9938 131.402 25.0888 131.29 25.1747Z" fill="#6BFAF0"/>
<path d="M141.69 28.9817C142.123 28.5688 142.617 28.3307 143.17 28.2674C143.723 28.2041 144.726 29.0359 146.179 30.7628C146.219 30.8125 146.259 30.8622 146.3 30.9074H141.322C141.098 29.5422 141.237 29.4156 141.69 28.9817Z" fill="#0D96BA"/>
<path d="M137.852 25.6272C135.86 24.0661 135.623 22.5442 137.138 21.0614C138.654 19.5787 139.71 18.8749 140.304 18.9503C141.103 19.0543 141.188 19.0633 141.968 21.0117L140.538 23.9456H143.071C143.291 24.7321 143.161 25.0486 142.829 25.8894C142.473 26.7905 142.052 27.3616 141.565 27.6027C141.08 27.8438 139.841 27.1838 137.847 25.6227L137.852 25.6272Z" fill="#3BE3ED"/>
<path d="M133.341 21.1876L136.408 15.234C136.668 15.5098 136.968 15.9121 137.381 16.4591C138.392 17.8032 138.127 19.2302 136.587 20.7401C135.048 22.25 134.276 23.0034 134.273 23.0004C134.273 23.0004 134.264 23.0004 133.345 21.1876H133.341Z" fill="#3DE8F0"/>
<path d="M154.605 33.5875C155.759 32.7557 157.282 32.7391 159.175 33.5377C161.583 34.5549 161.946 34.7086 162 35.2239H153.049C153.085 34.686 153.48 34.4012 154.61 33.5875H154.605Z" fill="#055280"/>
<path d="M152.489 34.0267L150.964 30.9075H149.202C149.453 30.5052 150.054 29.7864 151.368 28.1997C152.979 26.2618 154.015 25.3758 154.475 25.5416C154.936 25.7073 155.176 25.7977 155.197 25.8128C155.218 25.8279 155.351 26.8375 155.596 28.8416C155.842 30.8457 155.39 32.2592 154.242 33.0819C153.354 33.7239 152.924 34.0313 152.484 34.0222L152.489 34.0267Z" fill="#178CB5"/>
<path d="M145.735 28.9866C143.857 27.8866 143.086 26.9116 143.421 26.0618C143.834 25.0175 143.91 24.8276 145.892 23.9552H147.959L147.6 23.2228C149.992 22.2102 151.541 22.2388 152.246 23.3087C152.952 24.3786 152.512 25.8674 150.928 27.7751C149.343 29.6828 147.612 30.0881 145.735 28.9911V28.9866Z" fill="#055280"/>
<path d="M147.332 22.6661L144.309 16.4503C146.292 14.5652 146.332 14.5697 147.328 14.7776C148.018 14.9193 148.683 15.2041 149.323 15.632C149.963 16.06 150.411 16.5753 150.668 17.1781C150.926 17.7808 151.045 18.587 151.027 19.5966C151.009 20.6062 149.81 21.6158 147.431 22.6254C147.395 22.6435 147.363 22.657 147.332 22.6706V22.6661ZM144.031 16.7124L144.085 16.6627L142.345 20.234V20.243C141.857 18.7874 142.206 18.4529 144.031 16.7124Z" fill="#26B8D4"/>
<path d="M159.386 32.9513C157.517 32.1647 156.465 30.816 156.229 28.9053C155.942 26.5501 155.888 26.1297 157.812 26.3512L161.659 33.8192V33.8283C161.229 33.7243 160.547 33.4395 159.386 32.9513Z" fill="#004C63"/>
<path d="M140.389 18.3401C139.776 18.2587 138.946 17.5234 137.9 16.134C137.33 15.3791 136.967 14.8954 136.761 14.5383L138.402 11.3512C138.738 11.1614 139.169 10.9308 139.73 10.6279C141.335 9.76602 142.746 10.1457 143.963 11.7671C145.18 13.3885 145.042 14.909 143.55 16.3284C142.058 17.7479 141.005 18.42 140.389 18.3446V18.3401Z" fill="#12A1CC"/>
<path d="M138.91 10.3659L141.295 5.72778C142.201 6.20245 142.17 6.48724 142.076 7.40945C141.983 8.2985 141.138 9.17098 139.542 10.0269C139.309 10.1535 139.098 10.2665 138.905 10.3659H138.91Z" fill="#33C7DE"/>
<path d="M154.551 24.9091C154.109 24.7524 153.506 24.0984 152.744 22.9472C151.982 21.7959 151.611 20.7366 151.632 19.7692C151.65 18.6481 151.654 18.3904 153.636 18.2457L156.394 23.6026C155.184 25.1306 155.067 25.0899 154.551 24.9091Z" fill="#197AA8"/>
<path d="M156.754 24.2976L157.426 25.5995C156.516 25.3735 156.328 25.0616 156.754 24.2976Z" fill="#08638F"/>
<path d="M147.319 14.1496C146.685 14.017 145.73 13.1024 144.453 11.4056C143.177 9.7089 142.586 8.41752 142.682 7.53148C142.777 6.64544 143.58 5.97639 145.09 5.52433C145.915 5.28022 146.44 5.122 146.852 5.06775L149.529 10.271C149.507 10.3433 149.485 10.4156 149.467 10.488C148.671 13.0647 147.957 14.2883 147.323 14.1587L147.319 14.1496Z" fill="#2EBAD9"/>
<path d="M151.228 16.929C150.995 16.382 150.928 16.2193 152.062 15.1796L153.318 17.6162C151.542 17.6569 151.479 17.5122 151.232 16.929H151.228Z" fill="#12A1CC"/>
<path d="M142.017 4.335L142.466 3.46252C142.466 4.07281 142.349 4.32596 142.017 4.335Z" fill="#037399"/>
<path d="M149.672 15.1246C148.87 14.5912 148.843 14.5731 149.928 11.038L151.749 14.5731C150.439 15.6354 150.278 15.5269 149.672 15.1201V15.1246Z" fill="#08638F"/>
<path d="M143.38 2.32811C143.385 2.08852 143.394 1.85797 143.398 1.6455L144.246 0L146.725 4.82348V4.83252C146.412 5.12184 145.959 5.25746 145.084 5.51514C143.867 5.87678 143.296 4.81294 143.371 2.32359L143.38 2.32811Z" fill="#08638F"/>
<path d="M129.447 28.7509L129.805 28.0547C129.805 28.4028 129.801 28.5113 129.438 28.7644L129.447 28.7509Z" fill="#6BFAF0"/>
<path d="M135.493 35.0707L135.421 35.2244H135.372C135.412 35.1747 135.452 35.1249 135.497 35.0707H135.493Z" fill="#178CB5"/>
<path d="M132.582 33.5648C132.367 31.8018 131.452 31.2729 131.546 31.2322C131.636 31.1915 132.506 31.0468 133.954 32.0142C135.398 32.1725 136.604 32.064 136.824 32.3533L136.515 32.9907C136.277 33.2303 135.905 33.5377 135.38 33.9355C135.329 34.1223 135.083 34.3906 134.64 34.7402C134.268 35.034 134.102 35.1651 133.927 35.2284H132.927C132.77 35.0792 132.716 34.6633 132.586 33.5738L132.582 33.5648Z" fill="#0D96BA"/>
<path d="M68.1546 6.9477C66.446 6.54537 66.3429 6.51825 66.4819 3.1504C66.6433 3.08259 66.8048 3.0193 66.9662 2.95601C68.8093 2.2508 70.7959 1.85299 72.9215 1.76257C73.6391 2.42258 73.6839 2.72094 73.8184 3.58438C73.953 4.46439 73.3446 5.31727 71.9933 6.14304C70.642 6.9688 69.3624 7.23702 68.1546 6.9477Z" fill="#2ED9B8"/>
<path d="M79.1944 10.9266C77.9925 10.3842 76.7414 10.0315 75.4409 9.87784C74.6157 6.26136 74.6382 6.26136 77.0418 6.60041C78.6592 6.82342 79.6413 7.90837 79.9881 9.85524C80.1092 10.5424 80.2034 11.0668 80.2706 11.4691C79.9163 11.2702 79.5576 11.0894 79.1988 10.9221L79.1944 10.9266Z" fill="#2ED9B8"/>
<path d="M61.6473 6.20265C62.9478 5.05894 64.3515 4.13222 65.8582 3.427C65.7192 6.55978 65.6385 6.59594 64.7237 7.01636C63.7416 7.4639 63.7236 7.47294 61.6473 6.20265Z" fill="#2ED9B8"/>
<path d="M70.0647 10.4391C70.2262 8.74539 70.9616 7.49921 72.2711 6.70057C73.5805 5.90193 74.5656 6.95523 75.2263 9.86047C74.7823 9.81526 74.3294 9.79266 73.872 9.79266C72.4818 9.79266 71.2083 10.0594 70.0513 10.5928C70.0558 10.5431 70.0602 10.4934 70.0647 10.4436V10.4391Z" fill="#17B58C"/>
<path d="M64.033 14.9102C63.6982 14.5214 63.6085 13.2783 63.7639 11.1807C63.9194 9.08316 64.3394 7.87616 65.0241 7.55972C65.7087 7.24328 66.6579 7.23122 67.8717 7.52355C69.0855 7.81589 69.6116 8.80439 69.4502 10.4891C69.4323 10.6428 69.4188 10.7874 69.4054 10.923C68.7372 11.3028 68.1138 11.782 67.5264 12.3516C66.6609 13.206 66.0106 14.1643 65.5801 15.2312C65.5801 15.2402 65.5712 15.2493 65.5712 15.2583C65.1003 15.5295 65.0241 15.525 64.8357 15.516C64.6294 15.5039 64.3604 15.3035 64.0285 14.9147L64.033 14.9102Z" fill="#2ED9B8"/>
<path d="M60.4321 13.5799C58.5083 13.2047 58.0643 13.1188 57.3334 12.0338C58.1944 10.0312 59.4725 8.232 61.1765 6.63623C63.3874 7.99241 63.3874 8.01953 63.1631 11.0303C63.0137 13.0555 62.1033 13.9069 60.4321 13.5844V13.5799Z" fill="#21BF94"/>
<path d="M46.1358 16.2059C45.7053 15.579 45.5737 14.6372 45.7412 13.3805C45.9743 11.6129 45.9878 11.5044 47.6246 11.3101V17.1145C46.7457 17.101 46.6291 16.9292 46.1358 16.2104V16.2059Z" fill="#2ED9B8"/>
<path d="M41.0723 24.1983C40.31 22.1881 40.5746 20.9992 41.8661 20.6315C43.1576 20.2639 44.2727 20.8093 45.2115 22.268C46.1502 23.7266 45.8856 24.9156 44.4177 25.8348C42.9498 26.7539 41.8347 26.2085 41.0723 24.1983Z" fill="#2ED9B8"/>
<path d="M45.7541 21.9747C44.7795 20.4648 44.4865 19.3437 44.8752 18.6114C45.2638 17.879 46.1353 17.4918 47.4896 17.4496H47.6197V24.2395C47.2071 24.2395 47.1891 24.2079 45.7541 21.9747Z" fill="#5EFADB"/>
<path d="M56.2169 21.4416C56.0913 20.5736 56.0286 19.674 56.0286 18.7428C56.0286 16.9255 56.2707 15.2213 56.7506 13.6345C57.0241 13.7973 57.4277 14.0504 58.051 14.4347C59.2409 15.17 59.7477 16.2098 59.5713 17.5539C59.3949 18.898 58.9165 19.9468 58.1362 20.7002C57.3291 21.4823 57.0779 21.7219 56.2169 21.4416Z" fill="#2ED9B8"/>
<path d="M43.8572 31.6168C42.3086 30.33 41.6628 29.3867 41.9199 28.7869C42.177 28.1872 43.1113 27.3825 44.7227 26.3729C46.3341 25.3633 47.2922 24.86 47.5972 24.8631C47.5972 24.8631 47.6151 24.8631 47.6241 24.8631V33.1584C46.1622 33.529 45.9559 33.3573 43.8572 31.6168Z" fill="#26C2A1"/>
<path d="M56.3692 22.3458C56.7818 22.6623 56.8266 22.9651 56.9253 23.6342C56.9791 24.0139 57.015 24.2716 56.9701 24.5248C56.7235 23.8241 56.5217 23.0962 56.3692 22.3458Z" fill="#2ED9B8"/>
<path d="M63.029 20.5287C60.9661 19.8446 60.0184 18.8486 60.1858 17.5406C60.3533 16.2326 60.86 15.3511 61.7061 14.8961C62.5521 14.441 63.3578 14.3385 64.1232 14.5887C64.9035 14.8463 65.1591 14.9277 65.5089 15.4204C65.1322 16.4376 64.9438 17.5451 64.9483 18.7476C64.9483 19.611 65.0425 20.4202 65.2353 21.1887C64.76 21.1028 64.0694 20.8768 63.029 20.5332V20.5287Z" fill="#2ED9B8"/>
<path d="M62.0328 26.654C60.6546 26.6057 59.5903 26.2878 58.8399 25.7001C58.0895 25.1124 57.6531 24.4012 57.5305 23.5664C57.4079 22.7316 57.7353 21.9405 58.5126 21.1931C59.2899 20.4457 60.7503 20.4261 62.8939 21.1343C64.2347 21.5773 65.0195 21.8395 65.4814 22.0068C65.5128 22.0927 65.5486 22.1831 65.58 22.269C65.7101 22.5945 65.8581 22.9064 66.033 23.2093C65.876 23.5167 65.6159 23.9823 65.2123 24.7191C64.4709 26.0603 63.4111 26.7067 62.0328 26.6585V26.654Z" fill="#1CB594"/>
<path d="M57.4454 25.7182C57.7907 25.6549 58.0463 25.8538 58.4902 26.2019C59.4499 26.9523 59.5262 27.0156 59.3064 28.8058C58.562 27.8384 57.9431 26.8077 57.4454 25.7182Z" fill="#2ED9B8"/>
<path d="M61.19 30.8713C60.7057 30.4192 60.2573 29.9491 59.8402 29.4654C60.0315 27.9585 60.7879 27.2292 62.1093 27.2774C63.4308 27.3256 64.3545 27.8786 64.8807 28.9365C65.4069 29.9943 65.658 30.6272 65.6341 30.8351C65.6102 31.0431 64.9868 31.5735 63.7641 32.4264C63.6475 32.5122 63.5354 32.5846 63.4322 32.6569C62.652 32.128 61.9075 31.5358 61.19 30.8713Z" fill="#29C7A1"/>
<path d="M65.3827 28.5705C64.8775 27.5578 64.9911 26.39 65.7236 25.067C66.0195 24.529 66.2393 24.1357 66.45 23.86C66.7595 24.312 67.1227 24.737 67.5308 25.1393C68.4008 25.9666 69.3604 26.595 70.4188 27.0199C71.1363 27.3047 71.8986 27.4946 72.7013 27.585C72.3202 27.9195 71.4322 28.2359 69.7102 28.8372C67.3305 29.669 65.888 29.5785 65.3827 28.5659V28.5705Z" fill="#21C299"/>
<path d="M81.3246 12.1338C81.4771 11.8897 81.7238 11.8174 82.1767 11.6863C82.8583 11.4919 83.0646 11.4332 83.9211 11.8038V14.3354C83.087 13.481 82.2215 12.7441 81.3246 12.1338Z" fill="#1CB891"/>
<path d="M74.6209 28.1234C74.3832 27.929 74.2307 27.807 74.0962 27.6533C75.0514 27.6352 75.9752 27.5267 76.8765 27.3142C75.2711 28.6613 75.168 28.5755 74.6209 28.1279V28.1234Z" fill="#0D8C5E"/>
<path d="M63.9879 33.0145C63.9879 33.0145 64.0014 33.0055 64.0103 33.0009C65.2181 32.1601 66.4275 32.4946 67.6382 34.0045C67.9387 34.3842 68.1898 34.6962 68.3961 34.9674C66.831 34.5199 65.3646 33.8734 63.9924 33.019L63.9879 33.0145Z" fill="#1FB287"/>
<path d="M69.4138 35.2248C69.1178 34.8722 68.7053 34.3614 68.1043 33.6064C66.8367 32.0212 66.2134 31.1397 66.2343 30.9619C66.2553 30.7841 67.496 30.2657 69.9564 29.4068C72.4169 28.5479 73.8758 28.3068 74.3332 28.6835C74.7906 29.0602 75.0911 29.5198 75.2346 30.0623C75.3781 30.6048 74.6965 31.7198 73.1897 33.4075C72.1538 34.5693 71.5977 35.2022 71.2479 35.5413C70.6201 35.4644 70.0102 35.3559 69.4138 35.2248Z" fill="#1FB587"/>
<path d="M91.8013 18.7414C91.8013 18.0045 91.8416 17.2903 91.9179 16.5896C92.0838 16.8744 92.2766 17.2586 92.5188 17.7333C93.3529 19.3728 93.7042 20.3191 93.5726 20.5722C93.3977 20.9249 93.3798 20.952 91.9896 21.4357C91.8641 20.5677 91.8013 19.6681 91.8013 18.7369V18.7414Z" fill="#2ED9B8"/>
<path d="M77.2484 31.5673C76.4472 31.0339 75.9778 30.5019 75.8403 29.9715C75.643 29.1985 75.6385 29.1804 78.3426 26.8613C78.6296 26.7574 78.9121 26.6398 79.1947 26.5133C80.0512 26.1245 80.8853 25.6363 81.6925 25.0441C82.0826 25.3153 82.4773 25.9437 83.1006 26.9337C83.4324 27.4671 83.7015 27.892 83.9168 28.2401V31.2915C83.5266 31.4724 82.8091 31.5989 81.3248 31.8611C79.4054 32.2017 78.0451 32.1037 77.2439 31.5673H77.2484Z" fill="#17B591"/>
<path d="M83.5266 26.458C82.9615 25.5675 82.5848 24.9617 82.3292 24.5594C82.8629 24.1254 83.3875 23.6507 83.8988 23.1263C83.9077 23.1263 83.9167 23.1218 83.9212 23.1218V27.0819C83.8001 26.8965 83.6701 26.6886 83.5266 26.4626V26.458Z" fill="#17AB80"/>
<path d="M72.2129 35.6314C72.4506 35.1612 72.9349 34.6188 73.6569 33.8051C75.1068 32.1776 76.2115 31.6156 76.9709 32.1189C77.9126 32.7472 78.074 32.8557 78.527 35.0663C77.0606 35.4822 75.5089 35.6947 73.8721 35.6947C73.3071 35.6947 72.7555 35.6721 72.2129 35.6314Z" fill="#19AD82"/>
<path d="M93.0966 25.4277C92.6392 24.3653 92.3074 23.2397 92.0876 22.0598C93.5316 21.5716 93.6482 21.6846 95.4779 23.4024C96.7843 24.629 96.5676 25.7743 94.8276 26.8381C94.5406 27.0144 94.285 27.1726 94.0563 27.3082C93.6931 26.7025 93.3702 26.0786 93.0966 25.4277Z" fill="#12B08A"/>
<path d="M81.5173 32.4534C82.7191 32.2409 83.4007 32.1233 83.9209 32.2725V32.3358C82.468 33.4479 80.9029 34.2887 79.2302 34.8493C79.1988 34.8583 79.1719 34.8719 79.1405 34.8809C78.858 32.928 79.3065 32.8512 81.5173 32.4579V32.4534Z" fill="#089C6E"/>
<path fill-rule="evenodd" clip-rule="evenodd" d="M47.1538 34.7583C47.2435 34.6001 47.4139 34.4419 47.6247 34.3018V35.2149H47.0865C47.109 35.0296 47.1269 34.8714 47.1538 34.7538V34.7583Z" fill="#2ED9B8"/>
<path fill-rule="evenodd" clip-rule="evenodd" d="M38.6999 29.88V25.5673C38.942 25.4362 39.3008 25.5086 39.8165 25.8702C39.9959 26.0104 40.2111 26.363 40.4309 26.8376C41.1798 28.4334 41.9959 31.417 41.7941 32.3437C41.2291 33.0806 40.4757 33.1032 39.5654 33.0851C39.4847 32.8274 39.0452 31.417 38.7044 29.88H38.6999Z" fill="#2ED9B8"/>
<path fill-rule="evenodd" clip-rule="evenodd" d="M38.701 24.728V21.2562C38.9656 21.3331 39.2212 21.428 39.4769 21.4777C39.6024 22.8249 40.4455 23.9776 40.3244 24.8908C39.7056 24.9315 39.1899 24.8908 38.701 24.7235V24.728Z" fill="#2ED9B8"/>
<path fill-rule="evenodd" clip-rule="evenodd" d="M40.6641 20.0303C42.117 18.326 40.7851 16.8885 41.0856 16.2782C42.2426 13.9275 41.8838 13.6879 42.6955 11.414C43.7449 11.3055 44.3637 11.8389 44.7359 12.6436C45.3503 13.9636 45.301 16.0069 45.4041 17.1326C43.857 18.317 43.6911 20.3286 40.6641 20.0348V20.0303Z" fill="#2ED9B8"/>
<path fill-rule="evenodd" clip-rule="evenodd" d="M44.4321 11.0077C44.2079 9.81875 46.1766 7.74831 47.625 6.48254V11.2608C46.764 11.4552 45.7192 11.3738 44.4321 11.0077Z" fill="#2ED9B8"/>
<path fill-rule="evenodd" clip-rule="evenodd" d="M73.8722 1.74487C74.3879 2.09296 74.7287 2.32351 74.7287 2.32351C74.7511 2.13364 74.787 1.95282 74.8184 1.772" fill="#2ED9B8"/>
<path fill-rule="evenodd" clip-rule="evenodd" d="M75.6204 2.28226C75.6249 2.13308 75.6384 1.9839 75.6563 1.83472C76.903 1.95677 78.0913 2.20993 79.2349 2.59418C79.4725 2.67555 79.7147 2.76144 79.9524 2.85637C78.7864 3.52542 77.0958 3.40337 75.6249 2.28678L75.6204 2.28226Z" fill="#2ED9B8"/>
<path fill-rule="evenodd" clip-rule="evenodd" d="M81.6253 3.90016C81.4997 3.7555 81.401 3.61536 81.3293 3.4707C81.836 3.72838 82.3248 4.00865 82.8136 4.3251C82.2351 4.23468 81.7957 4.09455 81.6253 3.90468V3.90016Z" fill="#2ED9B8"/>
<path fill-rule="evenodd" clip-rule="evenodd" d="M81.2894 10.8126C80.7871 9.79542 80.6347 6.08852 80.953 5.09851C82.258 5.40139 83.0876 5.47372 83.9217 5.43756V9.68692C83.0697 10.6272 82.1504 11.242 81.2894 10.8126Z" fill="#2ED9B8"/>
<path fill-rule="evenodd" clip-rule="evenodd" d="M75.8718 5.18123C75.8 4.60711 75.6251 3.80696 75.957 3.30518C77.3561 3.45888 78.7104 4.15053 80.3562 3.816C81.0199 4.54834 80.54 5.53383 80.1858 6.28877C79.7194 6.32494 76.2126 5.5926 75.8673 5.17671L75.8718 5.18123Z" fill="#2ED9B8"/>
<path fill-rule="evenodd" clip-rule="evenodd" d="M74.0107 5.69649C74.0735 4.79689 74.2484 4.02387 74.4323 3.22372C74.6655 3.22372 74.939 3.1966 75.1946 3.22372C75.383 3.24633 75.5624 3.3051 75.7059 3.43167C75.5758 4.37648 75.5534 5.258 75.3695 6.2028C74.8448 6.30678 74.374 5.99485 74.0152 5.69197L74.0107 5.69649Z" fill="#2ED9B8"/>
<path d="M104.658 7.45791C103.689 7.34037 103.167 6.58543 103.093 5.19308C103.018 3.80074 103.015 3.0458 103.084 2.92826C103.115 2.86949 103.142 2.82881 103.191 2.79264C103.693 2.61634 104.205 2.46264 104.729 2.33154C105.057 2.38127 105.227 2.80169 105.738 4.08554C106.247 5.36035 106.436 6.272 106.308 6.8205C106.176 7.36599 105.626 7.57996 104.658 7.46243V7.45791Z" fill="#4CE3BF"/>
<path d="M103.361 34.7129C103.895 32.4707 103.98 32.5068 106.065 33.4697C108.141 34.4281 108.231 34.4688 107.859 35.6261C106.276 35.495 104.778 35.1921 103.361 34.7129Z" fill="#2EC9A6"/>
<path d="M97.6798 5.98117C99.1103 4.76512 100.657 3.81128 102.335 3.12415C102.326 3.41798 102.312 3.76607 102.29 4.17293C102.2 5.92993 101.702 7.152 100.796 7.83913C99.4915 8.82915 99.4422 8.86531 97.6798 5.98117Z" fill="#40E5C2"/>
<path d="M101.905 13.4436C99.8481 11.8674 98.9497 10.8186 99.2098 10.2973C99.4699 9.77589 100.084 9.14753 101.053 8.41218C102.022 7.67683 103.518 7.61203 105.542 8.21779C107.842 8.91849 108.394 9.08575 108.681 9.83165C106.605 10.026 104.811 10.8669 103.3 12.3451C102.878 12.761 102.51 13.1995 102.192 13.6651C102.098 13.5928 102.004 13.5205 101.905 13.4436Z" fill="#45EBC4"/>
<path d="M94.0562 10.1807C94.8276 8.89687 95.7962 7.71248 96.9622 6.61849C97.0429 6.54164 97.1281 6.46479 97.2088 6.38794C98.9981 9.33085 98.9846 9.3625 98.599 10.1355C98.3329 10.672 97.9517 11.0668 97.4554 11.3199C96.7334 11.6861 96.711 11.6996 94.0518 10.1807H94.0562Z" fill="#40E3BA"/>
<path d="M100.752 32.1772C98.3927 31.8276 97.8202 31.1314 99.034 30.0886C100.248 29.0459 101.444 28.7897 102.622 29.3201C103.799 29.8506 104.584 30.494 104.976 31.2504C105.367 32.0069 105.353 32.4348 104.931 32.5343C104.509 32.6337 103.118 32.5147 100.756 32.1772H100.752Z" fill="#29CFB0"/>
<path d="M111.918 29.9541C111.643 29.8817 111.172 29.2911 110.506 28.182C110.38 27.9786 110.273 27.7977 110.178 27.6395C111.856 27.5762 113.457 27.201 114.968 26.5139C115.048 26.4777 115.134 26.437 115.214 26.4009C116.407 26.6857 115.99 27.0247 114.443 28.3086C113.035 29.4779 112.193 30.0264 111.918 29.9541Z" fill="#45EBC4"/>
<path d="M99.0301 20.5418C98.4321 20.4695 97.7625 19.5247 97.021 17.7074C96.2796 15.8901 96.0838 14.5294 96.4336 13.6253C96.7834 12.7212 97.1974 12.1456 97.6758 11.8984C98.1541 11.6513 99.3993 12.2977 101.411 13.8378C101.568 13.9598 101.721 14.0774 101.864 14.1859C101.671 14.5204 101.505 14.8639 101.362 15.2211C100.936 16.2879 100.721 17.4588 100.721 18.7381C100.721 19.0952 100.739 19.4433 100.77 19.7824C99.8642 20.6368 99.6848 20.6142 99.0301 20.5373V20.5418Z" fill="#33D6AB"/>
<path d="M100.94 20.886C101.03 21.2883 101.142 21.6816 101.281 22.0568C100.967 21.5867 100.842 21.2522 100.94 20.886Z" fill="#2BD1B5"/>
<path d="M104.783 29.9258C103.381 28.446 102.836 27.3581 103.15 26.6619C103.397 26.1149 103.514 25.8572 103.863 25.6403C104.581 26.2279 105.357 26.689 106.195 27.0236C107.155 27.4033 108.195 27.6158 109.316 27.6519C109.254 28.1311 108.913 28.7097 108.254 29.8354C107.348 31.3844 106.192 31.4161 104.787 29.9303L104.783 29.9258Z" fill="#30D9BD"/>
<path d="M95.4419 27.7663C98.3658 24.5431 97.5451 24.5612 95.8052 23.2005C97.282 21.7629 98.3284 21.0803 98.9443 21.1527C99.5601 21.225 100.397 21.9528 101.456 23.3361C102.514 24.7194 102.882 25.7652 102.559 26.4734C102.236 27.1816 101.276 27.9758 99.6797 28.8558C98.0833 29.7358 96.6692 29.3726 95.4374 27.7663H95.4419Z" fill="#3DDBB5"/>
<path fill-rule="evenodd" clip-rule="evenodd" d="M99.2664 32.693C100.701 32.7563 102.414 33.0275 103.006 33.3168C102.845 33.7327 102.715 34.1034 102.612 34.4379C101.437 33.9814 100.32 33.3982 99.2664 32.693Z" fill="#36E5C2"/>
<path fill-rule="evenodd" clip-rule="evenodd" d="M95.3024 29.0897C95.9347 29.5056 96.4638 30.0707 96.7822 30.6991C96.2441 30.1837 95.7553 29.6458 95.3024 29.0897Z" fill="#19AD82"/>
<path fill-rule="evenodd" clip-rule="evenodd" d="M95.7597 12.265C94.7641 11.8943 94.078 11.5372 93.504 11.1801ZM92.3336 14.3083C92.9614 15.1582 93.7103 15.4249 94.4906 14.2269Z" fill="#24B891"/>
<path fill-rule="evenodd" clip-rule="evenodd" d="M95.0837 22.0747C94.7114 21.7176 94.8908 20.384 94.7473 19.8551C94.4872 18.9284 93.8011 17.2196 93.8998 16.2703C94.1016 15.9131 95.2451 15.4159 95.6756 15.1582C96.0523 15.9538 98.4156 23.5575 95.0837 22.0702V22.0747Z" fill="#26BD94"/>
<path fill-rule="evenodd" clip-rule="evenodd" d="M109.981 29.3298C110.093 29.5739 110.237 29.8 110.403 30.0124L110.147 30.7357C110.066 31.7167 108.376 32.9689 107.555 33.0186C107.237 31.7167 108.856 29.4293 109.977 29.3298H109.981Z" fill="#3DDBB5"/>
<path fill-rule="evenodd" clip-rule="evenodd" d="M116.837 27.9636C116.599 26.8018 117.177 25.7124 117.841 24.7676C118.164 24.5144 118.487 24.2477 118.801 23.9629C119.092 24.1437 119.397 24.2296 119.693 24.424V24.9981C118.98 26.1011 118.101 28.7231 116.832 27.9681L116.837 27.9636Z" fill="#6BFAF0"/>
<path fill-rule="evenodd" clip-rule="evenodd" d="M1.85222 21.0924C1.11229 20.9839 0.547255 21.0879 0.00463867 21.2597ZM0.0988117 23.0996C1.25131 23.0589 1.39033 22.8781 2.18856 21.2642Z" fill="#055280"/>
<path fill-rule="evenodd" clip-rule="evenodd" d="M88.0497 46.9739C88.0497 47.4514 87.9279 47.8477 87.6887 48.1629H87.6842C87.4541 48.4685 87.1472 48.6213 86.7771 48.6213C86.4477 48.6213 86.1905 48.4876 86.0009 48.2297C85.8746 48.3634 85.7166 48.4303 85.5361 48.4303H84.0649C83.9025 48.4303 83.7581 48.3682 83.6362 48.2488C83.4963 48.1104 83.4241 47.9385 83.4241 47.7379V43.9323H84.1507V47.6329C84.1507 47.6758 84.1642 47.7093 84.1868 47.7331C84.2094 47.7713 84.25 47.7904 84.2996 47.7904H85.3195C85.3646 47.7904 85.4007 47.7713 85.4323 47.7379C85.4594 47.7093 85.4729 47.6758 85.4729 47.6329V46.6301C85.4729 46.2338 85.6038 45.933 85.8656 45.7276C86.0731 45.5605 86.362 45.4746 86.7094 45.4746C87.0569 45.4746 87.3503 45.5796 87.594 45.7993C87.8963 46.0762 88.0497 46.4678 88.0497 46.9739ZM86.7004 47.9767C86.8854 47.9767 87.0389 47.8859 87.1562 47.714H87.1607C87.2781 47.5421 87.3367 47.3177 87.3367 47.0408C87.3367 46.7352 87.2735 46.5012 87.1427 46.3293C87.0208 46.1813 86.8674 46.1096 86.6779 46.1096C86.5334 46.1096 86.4206 46.1574 86.3394 46.2529C86.2446 46.3436 86.195 46.4725 86.195 46.6301V47.7236C86.3439 47.8907 86.5154 47.9767 86.7004 47.9767ZM16.0796 43.9372V47.7429H16.0887C16.0887 47.9195 16.0345 48.0723 15.9262 48.1965C15.7999 48.3541 15.6419 48.4352 15.4433 48.4352H14.076C13.9 48.4352 13.7465 48.3684 13.6202 48.2347C13.4261 48.4973 13.1689 48.6262 12.8485 48.6262C12.501 48.6262 12.2077 48.4925 11.9685 48.2251H11.955L11.788 48.44H10.4883L10.2672 48.1822H10.2536C10.1182 48.3541 9.95127 48.44 9.74819 48.44H8.25897C8.09651 48.44 7.9521 48.3779 7.83025 48.2586C7.69036 48.1201 7.61815 47.9482 7.61815 47.7476V43.942H8.34471V47.6426C8.34471 47.6856 8.35825 47.719 8.38081 47.7429C8.40338 47.7811 8.44399 47.8002 8.49363 47.8002H9.5045C9.55865 47.8002 9.59927 47.7811 9.62183 47.7476C9.65794 47.7142 9.67599 47.676 9.67599 47.6235V45.5512H10.3935V47.8002H11.7113C11.6165 47.5566 11.5668 47.2845 11.5668 46.9836C11.5668 46.487 11.7113 46.105 12.0001 45.8329C12.2393 45.5989 12.5506 45.4795 12.9252 45.4795C13.2637 45.4795 13.5389 45.5655 13.751 45.7326C14.0128 45.9379 14.1437 46.2435 14.1437 46.6351V47.6378C14.1437 47.676 14.1572 47.7094 14.1752 47.7429C14.2068 47.7811 14.2429 47.7954 14.2836 47.7954H15.2087C15.2538 47.7954 15.2899 47.7763 15.3215 47.7429C15.3486 47.7142 15.3621 47.6808 15.3621 47.6378V43.9372H16.0796ZM12.9207 47.9816C13.0922 47.9816 13.2591 47.8957 13.4216 47.7238H13.4171V46.6303C13.4171 46.4727 13.372 46.3486 13.2817 46.2531C13.2005 46.1576 13.0786 46.1098 12.9252 46.1098C12.7312 46.1098 12.5777 46.191 12.4604 46.3486C12.3431 46.5061 12.2844 46.721 12.2844 46.9884C12.2844 47.2797 12.3476 47.5184 12.4649 47.7047C12.5822 47.8909 12.7357 47.9816 12.9207 47.9816ZM5.38379 44.9739C5.4921 44.9739 5.58235 44.9357 5.65907 44.8546C5.73579 44.7734 5.77189 44.6827 5.77189 44.5728C5.77189 44.463 5.73579 44.3627 5.65907 44.2816C5.58235 44.2004 5.4921 44.1622 5.38379 44.1622C5.27548 44.1622 5.18974 44.2004 5.11754 44.2816C5.04082 44.3627 5.00472 44.4582 5.00472 44.5728C5.00472 44.6874 5.04082 44.7782 5.11754 44.8546C5.19425 44.9357 5.28 44.9739 5.38379 44.9739ZM1.89533 50.7078C1.89533 50.8224 1.85923 50.9179 1.78251 50.9991C1.71031 51.0803 1.62005 51.1185 1.51174 51.1185C1.40344 51.1185 1.31318 51.0803 1.23646 50.9991C1.15975 50.9179 1.12364 50.8224 1.12364 50.7078C1.12364 50.5932 1.15975 50.4977 1.23646 50.4166C1.31318 50.3354 1.40795 50.2972 1.51174 50.2972C1.61554 50.2972 1.7058 50.3354 1.78251 50.4166C1.85923 50.4977 1.89533 50.5932 1.89533 50.7078ZM2.79834 50.7078C2.79834 50.8224 2.76224 50.9179 2.68552 50.9991C2.60881 51.0803 2.51404 51.1185 2.41024 51.1185C2.30645 51.1185 2.2207 51.0803 2.14399 50.9991C2.06727 50.9179 2.03117 50.8224 2.03117 50.7078C2.03117 50.5932 2.06727 50.4977 2.14399 50.4166C2.21619 50.3354 2.30194 50.2972 2.41024 50.2972C2.51855 50.2972 2.60881 50.3354 2.68552 50.4166C2.76224 50.4977 2.79834 50.5932 2.79834 50.7078ZM6.2412 48.4345H4.17885H3.95321C3.91711 48.955 3.72306 49.3513 3.35752 49.614C3.07322 49.8288 2.70768 49.9339 2.26994 49.9339H1.68327C1.18687 49.9339 0.78974 49.8002 0.491895 49.528C0.162461 49.2415 0 48.8261 0 48.2817V47.6467L0.370049 47.3411H0.726561V48.2149C0.726561 48.616 0.816817 48.8929 1.00635 49.0553C1.19589 49.2176 1.5163 49.2988 1.97661 49.2988C2.37824 49.2988 2.66255 49.2463 2.84306 49.1365C3.05968 49.0075 3.18604 48.7736 3.21763 48.4393H2.84758L2.54071 48.0382V47.7995H6.01105C6.11033 47.7995 6.15997 47.7469 6.15997 47.6419V47.0785C6.15997 46.7824 6.06971 46.5532 5.8892 46.3861C5.70869 46.219 5.46049 46.133 5.14459 46.133C4.95957 46.133 4.67977 46.1808 4.3007 46.2667V45.6555C4.69331 45.5361 5.03628 45.4741 5.32962 45.4741C5.80797 45.4741 6.19156 45.6316 6.48489 45.9516C6.75115 46.2381 6.88202 46.601 6.88202 47.0307V47.7469C6.88202 47.9188 6.82786 48.0716 6.71504 48.2101C6.58417 48.3581 6.42623 48.4345 6.2412 48.4345ZM10.0272 44.9739C10.1355 44.9739 10.2257 44.9357 10.3025 44.8546C10.3792 44.7734 10.4153 44.6827 10.4153 44.5728C10.4153 44.463 10.3792 44.3627 10.3025 44.2816C10.2257 44.2004 10.1355 44.1622 10.0272 44.1622C9.91888 44.1622 9.83314 44.2004 9.76093 44.2816C9.68873 44.3627 9.64811 44.4582 9.64811 44.5728C9.64811 44.6874 9.68421 44.7782 9.76093 44.8546C9.83765 44.9357 9.92339 44.9739 10.0272 44.9739ZM17.6221 48.2777V43.9372H16.8956V48.5928H17.2521L17.6221 48.2777ZM22.3385 49.2998C22.3385 49.4144 22.3024 49.5099 22.2257 49.591C22.1489 49.6722 22.0587 49.7104 21.9504 49.7104C21.8421 49.7104 21.7518 49.6722 21.6751 49.591C21.5984 49.5099 21.5623 49.4144 21.5623 49.2998C21.5623 49.1852 21.5984 49.0897 21.6751 49.0085C21.7518 48.9273 21.8421 48.8891 21.9504 48.8891C22.0587 48.8891 22.1489 48.9273 22.2257 49.0085C22.3024 49.0897 22.3385 49.1852 22.3385 49.2998ZM23.1276 49.591C23.2044 49.5099 23.2405 49.4144 23.2405 49.2998C23.2405 49.1852 23.2044 49.0897 23.1276 49.0085C23.0509 48.9273 22.9607 48.8891 22.8524 48.8891C22.7441 48.8891 22.6583 48.9273 22.5861 49.0085C22.5094 49.0897 22.4733 49.1852 22.4733 49.2998C22.4733 49.4144 22.5094 49.5099 22.5861 49.591C22.6628 49.6722 22.7486 49.7104 22.8524 49.7104C22.9562 49.7104 23.0509 49.6722 23.1276 49.591ZM26.1695 44.8546C26.0928 44.9357 26.0025 44.9739 25.8942 44.9739C25.7859 44.9739 25.6956 44.9357 25.6189 44.8546C25.5422 44.7782 25.5061 44.6874 25.5061 44.5728C25.5061 44.4582 25.5422 44.3627 25.6189 44.2816C25.6956 44.2004 25.7859 44.1622 25.8942 44.1622C26.0025 44.1622 26.0928 44.2004 26.1695 44.2816C26.2462 44.3627 26.2823 44.463 26.2823 44.5728C26.2823 44.6827 26.2462 44.7734 26.1695 44.8546ZM29.1444 48.1774L29.3655 48.4352H30.6788C30.8818 48.4352 31.0488 48.3493 31.1842 48.1774H31.1977L31.4234 48.4352H32.7276C32.9261 48.4352 33.0841 48.3541 33.2104 48.1965C33.3187 48.0723 33.3729 47.9195 33.3729 47.7429V43.9372H32.6554V47.6378C32.6554 47.6808 32.6418 47.7142 32.6147 47.7429C32.5831 47.7763 32.547 47.7954 32.5019 47.7954H31.3286V43.9372H30.6111V47.6378C30.6111 47.6665 30.5975 47.7047 30.575 47.7429C30.5434 47.7763 30.5028 47.7954 30.4576 47.7954H29.2843V45.5464H28.5668V47.6187C28.5668 47.6712 28.5487 47.7094 28.5126 47.7429C28.49 47.7763 28.4494 47.7954 28.3953 47.7954H26.5856C26.6353 47.6044 26.7481 47.4086 26.9106 47.2176C27.0866 47.0314 27.249 46.9025 27.4115 46.8261L27.4837 46.6494C27.3438 46.2483 27.1136 45.9427 26.7932 45.7374C26.536 45.5607 26.2517 45.4748 25.9448 45.4748C25.638 45.4748 25.3491 45.5559 25.0829 45.7135C24.7264 45.9284 24.4827 46.2387 24.3473 46.6494L24.4105 46.8261C24.591 46.9072 24.767 47.0457 24.9385 47.2463C25.0919 47.4373 25.1957 47.6235 25.2408 47.7906H23.2597V45.5416H22.5422V47.6139C22.5422 47.6665 22.5241 47.7047 22.488 47.7381C22.4655 47.7715 22.4248 47.7906 22.3707 47.7906H21.2109V45.5416H20.4843V48.2108C20.4843 48.9318 20.1323 49.29 19.4329 49.29C19.3155 49.29 19.1892 49.2804 19.0628 49.2565V49.5287L19.3516 49.9107C19.3941 49.9107 19.4366 49.912 19.4771 49.9133C19.5141 49.9144 19.5495 49.9155 19.5818 49.9155C19.997 49.9155 20.349 49.8057 20.6333 49.5812C20.9762 49.3138 21.1658 48.9271 21.1974 48.4257H22.6099C22.8129 48.4257 22.9799 48.3397 23.1153 48.1678H23.1288L23.35 48.4257H25.5838C25.7011 48.4257 25.8094 48.3732 25.8997 48.2633H25.9313C26.0215 48.3732 26.1253 48.4257 26.2336 48.4257H28.6435C28.8466 48.4257 29.0135 48.3397 29.1489 48.1678H29.1625L29.1444 48.1774ZM26.2923 46.9454C26.1118 47.1603 25.9809 47.3847 25.9042 47.6187H25.8816C25.8004 47.3895 25.6786 47.1746 25.5116 46.9789C25.3627 46.7879 25.2183 46.6637 25.0829 46.6016C25.1686 46.4345 25.2905 46.3104 25.4529 46.2244C25.5973 46.1528 25.7463 46.1194 25.9042 46.1194C26.0622 46.1194 26.193 46.1528 26.3149 46.2149C26.4773 46.3008 26.6037 46.4297 26.703 46.6064C26.5766 46.6637 26.4412 46.7783 26.2923 46.9502V46.9454ZM29.2339 44.8546C29.1572 44.9357 29.0669 44.9739 28.9586 44.9739C28.8548 44.9739 28.7691 44.9357 28.6923 44.8546C28.6156 44.7782 28.5795 44.6874 28.5795 44.5728C28.5795 44.4582 28.6156 44.3627 28.6923 44.2816C28.7646 44.2004 28.8503 44.1622 28.9586 44.1622C29.0669 44.1622 29.1572 44.2004 29.2339 44.2816C29.3106 44.3627 29.3467 44.463 29.3467 44.5728C29.3467 44.6827 29.3106 44.7734 29.2339 44.8546ZM28.0555 44.9739C28.1639 44.9739 28.2541 44.9357 28.3308 44.8546C28.4075 44.7734 28.4436 44.6827 28.4436 44.5728C28.4436 44.463 28.4075 44.3627 28.3308 44.2816C28.2541 44.2004 28.1639 44.1622 28.0555 44.1622C27.9472 44.1622 27.857 44.2004 27.7803 44.2816C27.7036 44.3627 27.6674 44.4582 27.6674 44.5728C27.6674 44.6874 27.7036 44.7782 27.7803 44.8546C27.857 44.9357 27.9472 44.9739 28.0555 44.9739ZM37.6594 44.8546C37.5827 44.9357 37.4925 44.9739 37.3842 44.9739C37.2759 44.9739 37.1856 44.9357 37.1089 44.8546C37.0322 44.7782 36.9961 44.6874 36.9961 44.5728C36.9961 44.4582 37.0322 44.3627 37.1089 44.2816C37.1856 44.2004 37.2759 44.1622 37.3842 44.1622C37.4925 44.1622 37.5827 44.2004 37.6594 44.2816C37.7362 44.3627 37.7723 44.463 37.7723 44.5728C37.7723 44.6827 37.7362 44.7734 37.6594 44.8546ZM37.7671 47.3368V45.3791H37.4061L37.1578 45.5939C36.9773 45.4984 36.7833 45.4507 36.5802 45.4507C36.2011 45.4507 35.8807 45.5892 35.6235 45.8661C35.3347 46.1717 35.1903 46.5633 35.1903 47.036C35.1903 47.4705 35.3031 47.8191 35.5332 48.0722C35.7724 48.3587 36.0973 48.4971 36.517 48.4971C36.8961 48.4971 37.194 48.3969 37.4151 48.2011C37.6497 47.9862 37.7671 47.6997 37.7671 47.3416V47.3368ZM37.0405 47.332C37.0405 47.4801 36.9999 47.6042 36.9142 47.7045C36.8284 47.8048 36.6975 47.8573 36.5215 47.8573C36.3275 47.8573 36.1741 47.7857 36.0658 47.6424C35.9574 47.4992 35.9033 47.2938 35.9033 47.036C35.9033 46.759 35.971 46.5346 36.1064 46.3627C36.2418 46.1908 36.4223 46.1049 36.6434 46.1049C36.7652 46.1049 36.8961 46.1335 37.036 46.1908V47.332H37.0405ZM36.752 44.8593C36.6798 44.9357 36.5895 44.9739 36.4812 44.9739C36.3729 44.9739 36.2826 44.9357 36.2059 44.8546C36.1292 44.7782 36.0931 44.6874 36.0931 44.5728C36.0931 44.4582 36.1292 44.3627 36.2059 44.2816C36.2826 44.2004 36.3729 44.1622 36.4812 44.1622C36.5895 44.1622 36.6798 44.2004 36.752 44.2816C36.8242 44.3627 36.8603 44.4582 36.8603 44.5728C36.8603 44.6874 36.8242 44.7829 36.752 44.8593ZM45.9856 44.9739C46.0939 44.9739 46.1841 44.9357 46.2608 44.8546C46.3376 44.7734 46.3737 44.6827 46.3737 44.5728C46.3737 44.463 46.3376 44.3627 46.2608 44.2816C46.1841 44.2004 46.0939 44.1622 45.9856 44.1622C45.8772 44.1622 45.7915 44.2004 45.7193 44.2816C45.6426 44.3627 45.6065 44.4582 45.6065 44.5728C45.6065 44.6874 45.6426 44.7782 45.7193 44.8546C45.796 44.9357 45.8818 44.9739 45.9856 44.9739ZM45.3576 44.8546C45.2809 44.9357 45.1907 44.9739 45.0824 44.9739C44.9741 44.9739 44.8838 44.9357 44.8071 44.8546C44.7304 44.7782 44.6943 44.6874 44.6943 44.5728C44.6943 44.4582 44.7304 44.3627 44.8071 44.2816C44.8838 44.2004 44.9741 44.1622 45.0824 44.1622C45.1907 44.1622 45.2809 44.2004 45.3576 44.2816C45.4344 44.3627 45.4705 44.463 45.4705 44.5728C45.4705 44.6827 45.4344 44.7734 45.3576 44.8546ZM49.9743 48.4352H51.3417C51.5403 48.4352 51.6982 48.3541 51.8246 48.1965C51.9329 48.0723 51.987 47.9195 51.987 47.7429V43.9372H51.2695V47.6378C51.2695 47.6808 51.256 47.7142 51.2289 47.7429C51.1973 47.7763 51.1612 47.7954 51.1161 47.7954H50.191C50.1503 47.7954 50.1142 47.7811 50.0827 47.7429C50.0646 47.7094 50.0511 47.676 50.0511 47.6378V46.6351C50.0511 46.2435 49.9202 45.9379 49.6584 45.7326C49.4463 45.5655 49.1711 45.4795 48.8326 45.4795C48.458 45.4795 48.1467 45.5989 47.9075 45.8329C47.6187 46.105 47.4743 46.487 47.4743 46.9836C47.4743 47.2845 47.5239 47.5566 47.6187 47.8002H46.3009V45.5512H45.5834V47.6235C45.5834 47.676 45.5653 47.7142 45.5292 47.7476C45.5067 47.7811 45.4661 47.8002 45.4119 47.8002H44.3604V47.0362C44.3604 46.6016 44.2295 46.2388 43.9633 45.957C43.67 45.6371 43.2864 45.4795 42.808 45.4795C42.5011 45.4795 42.1582 45.5416 41.7791 45.661V46.2722C42.1717 46.1814 42.465 46.1337 42.6591 46.1337C42.9524 46.1337 43.1871 46.2196 43.3676 46.3963C43.5481 46.5682 43.6384 46.7974 43.6384 47.0839V47.6474C43.6384 47.7524 43.5887 47.8049 43.4895 47.8049H40.8811C40.8811 47.7852 40.8818 47.7613 40.8827 47.7333V47.7332V47.7331V47.7329C40.884 47.6935 40.8856 47.6458 40.8856 47.5901V46.9884C40.8856 46.573 40.7592 46.2244 40.511 45.9475C40.2312 45.6371 39.8612 45.4843 39.4054 45.4843C39.2249 45.4843 39.0714 45.4986 38.936 45.5225V46.1337C39.0037 46.1194 39.103 46.1098 39.2384 46.1098C39.5317 46.1242 39.7529 46.2101 39.9108 46.3724C40.0778 46.5491 40.159 46.7783 40.159 47.0696V47.6521C40.159 47.7572 40.1094 47.8097 40.0101 47.8097H38.3358V48.4496H40.2402C40.3846 48.4496 40.52 48.397 40.6374 48.2968C40.6735 48.2633 40.7051 48.2299 40.7366 48.1917H40.7547L40.9487 48.4496H43.7106C43.9137 48.4496 44.0806 48.3636 44.216 48.1917H44.2296L44.4236 48.4496H45.6511C45.8542 48.4496 46.0211 48.3636 46.1565 48.1917H46.1701L46.3912 48.4496H47.6909L47.8578 48.2347H47.8714C48.1106 48.5021 48.4039 48.6358 48.7514 48.6358C49.0718 48.6358 49.329 48.5069 49.5231 48.2442C49.6494 48.3779 49.8029 48.4448 49.9789 48.4448L49.9743 48.4352ZM49.32 47.7238C49.1575 47.8957 48.9906 47.9816 48.8191 47.9816C48.634 47.9816 48.4806 47.8909 48.3633 47.7047C48.2459 47.5184 48.1828 47.2797 48.1828 46.9884C48.1828 46.721 48.2414 46.5061 48.3588 46.3486C48.4761 46.191 48.6295 46.1098 48.8236 46.1098C48.977 46.1098 49.0989 46.1576 49.1801 46.2531C49.2703 46.3486 49.3155 46.4727 49.3155 46.6303V47.7238H49.32ZM53.1559 48.5928H52.7994V43.9372H53.5259V48.2777L53.1559 48.5928ZM56.641 44.9739C56.7493 44.9739 56.8395 44.9357 56.9163 44.8546C56.993 44.7734 57.0291 44.6827 57.0291 44.5728C57.0291 44.463 56.993 44.3627 56.9163 44.2816C56.8395 44.2004 56.7493 44.1622 56.641 44.1622C56.5327 44.1622 56.4424 44.2004 56.3657 44.2816C56.289 44.3627 56.2529 44.4582 56.2529 44.5728C56.2529 44.6874 56.289 44.7782 56.3657 44.8546C56.4424 44.9357 56.5327 44.9739 56.641 44.9739ZM57.8182 44.8546C57.7415 44.9357 57.6513 44.9739 57.543 44.9739C57.4392 44.9739 57.3534 44.9357 57.2767 44.8546C57.2 44.7782 57.1639 44.6874 57.1639 44.5728C57.1639 44.4582 57.2 44.3627 57.2767 44.2816C57.3489 44.2004 57.4347 44.1622 57.543 44.1622C57.6513 44.1622 57.7415 44.2004 57.8182 44.2816C57.895 44.3627 57.9311 44.463 57.9311 44.5728C57.9311 44.6827 57.895 44.7734 57.8182 44.8546ZM59.8483 48.1785H59.8528L60.074 48.4363H61.3872C61.5812 48.4363 61.7437 48.3552 61.8746 48.1976C61.9784 48.0591 62.028 47.9063 62.028 47.744V45.5475H61.3105V47.6389C61.3105 47.6819 61.2969 47.7153 61.2699 47.744C61.2383 47.7774 61.2022 47.7965 61.157 47.7965H59.9837V45.5475H59.2662V47.6198C59.2662 47.6723 59.2481 47.7105 59.212 47.744C59.1895 47.7774 59.1488 47.7965 59.0947 47.7965H58.0748C58.0342 47.7965 58.0026 47.7822 57.98 47.7535C57.9529 47.7296 57.9394 47.6914 57.9394 47.6389V45.3756H57.5829L57.3257 45.5809C57.1181 45.4902 56.915 45.4424 56.7074 45.4424C56.3374 45.4424 56.0305 45.5809 55.7733 45.8531C55.498 46.1539 55.3581 46.5359 55.3581 46.9895C55.3581 47.4861 55.507 47.8872 55.8094 48.1833C56.035 48.3934 56.3058 48.4984 56.6172 48.4984C56.8924 48.4984 57.1452 48.3981 57.3708 48.2024C57.5152 48.3552 57.6822 48.4363 57.8627 48.4363H59.3429C59.546 48.4363 59.7129 48.3504 59.8483 48.1785ZM57.2038 47.7678C57.0504 47.8347 56.9015 47.8681 56.7571 47.8681C56.5495 47.8681 56.378 47.7869 56.2561 47.6294C56.1298 47.4718 56.0711 47.2569 56.0711 46.9943C56.0711 46.7317 56.1388 46.5168 56.2787 46.3497C56.4186 46.1826 56.5946 46.1014 56.8067 46.1014C56.9331 46.1014 57.0639 46.13 57.2038 46.1826V47.7631V47.7678ZM59.2125 49.3047C59.2125 49.1901 59.2486 49.0946 59.3253 49.0134C59.3975 48.9323 59.4832 48.8941 59.5916 48.8941C59.6999 48.8941 59.7901 48.9323 59.8668 49.0134C59.9436 49.0946 59.9797 49.1901 59.9797 49.3047C59.9797 49.4193 59.9436 49.5148 59.8668 49.596C59.7901 49.6772 59.6953 49.7154 59.5916 49.7154C59.4878 49.7154 59.402 49.6772 59.3253 49.596C59.2486 49.5148 59.2125 49.4193 59.2125 49.3047ZM59.0765 49.3047C59.0765 49.1901 59.0404 49.0946 58.9636 49.0134C58.8869 48.9323 58.7967 48.8941 58.6884 48.8941C58.5801 48.8941 58.4898 48.9323 58.4131 49.0134C58.3364 49.0946 58.3003 49.1901 58.3003 49.3047C58.3003 49.4193 58.3364 49.5148 58.4131 49.596C58.4898 49.6772 58.5801 49.7154 58.6884 49.7154C58.7967 49.7154 58.8869 49.6772 58.9636 49.596C59.0404 49.5148 59.0765 49.4193 59.0765 49.3047ZM61.2613 49.0134C61.3335 48.9323 61.4238 48.8941 61.5321 48.8941C61.6404 48.8941 61.7307 48.9323 61.8074 49.0134C61.8841 49.0946 61.9202 49.1901 61.9202 49.3047C61.9202 49.4193 61.8841 49.5148 61.8074 49.596C61.7307 49.6772 61.6404 49.7154 61.5321 49.7154C61.4238 49.7154 61.3335 49.6772 61.2613 49.596C61.1891 49.5148 61.153 49.4193 61.153 49.3047C61.153 49.1901 61.1891 49.0946 61.2613 49.0134ZM70.3717 48.1965C70.48 48.0723 70.5342 47.9195 70.5342 47.7429V43.9372H69.8167V47.6378C69.8167 47.6808 69.8031 47.7142 69.7761 47.7429C69.7445 47.7763 69.7084 47.7954 69.6632 47.7954H67.8356C67.8852 47.6044 67.998 47.4086 68.1605 47.2176C68.3365 47.0314 68.4989 46.9025 68.6614 46.8261L68.7336 46.6494C68.5937 46.2483 68.3635 45.9427 68.0431 45.7374C67.7859 45.5607 67.5016 45.4748 67.1947 45.4748C66.8879 45.4748 66.599 45.5559 66.3328 45.7135C65.9763 45.9284 65.7326 46.2387 65.5972 46.6494L65.6604 46.8261C65.8409 46.9072 66.0169 47.0457 66.1884 47.2463C66.3418 47.4373 66.4456 47.6235 66.4907 47.7906H64.5096V45.5416H63.7831V48.2108C63.7831 48.9318 63.4311 49.29 62.7316 49.29C62.6142 49.29 62.4879 49.2804 62.3615 49.2565V49.5287L62.6503 49.9107C62.6928 49.9107 62.7353 49.912 62.7758 49.9133C62.8128 49.9144 62.8482 49.9155 62.8805 49.9155C63.2957 49.9155 63.6477 49.8057 63.932 49.5812C64.2749 49.3138 64.4645 48.9271 64.4961 48.4257H66.8292C66.9465 48.4257 67.0548 48.3732 67.1451 48.2633H67.1767C67.2669 48.3732 67.3707 48.4257 67.479 48.4257H69.8889C70.0874 48.4257 70.2454 48.3445 70.3717 48.1869V48.1965ZM67.5558 46.9454C67.3752 47.1603 67.2444 47.3847 67.1677 47.6187H67.1451C67.0639 47.3895 66.942 47.1746 66.775 46.9789C66.6261 46.7879 66.4817 46.6637 66.3463 46.6016C66.4321 46.4345 66.5539 46.3104 66.7164 46.2244C66.8608 46.1528 67.0097 46.1194 67.1677 46.1194C67.3256 46.1194 67.4565 46.1528 67.5783 46.2149C67.7408 46.3008 67.8671 46.4297 67.9664 46.6064C67.8401 46.6637 67.7047 46.7783 67.5558 46.9502V46.9454ZM72.0786 43.9372V48.2777L71.7085 48.5928H71.352V43.9372H72.0786ZM75.0252 48.4345H78.3511C78.5497 48.4345 78.7122 48.3533 78.8385 48.191C78.9423 48.0716 78.992 47.9188 78.992 47.7469V45.5504H78.2699V47.6419C78.2699 47.7469 78.2203 47.7994 78.121 47.7994H75.1696C75.0523 47.7994 74.944 47.7565 74.8537 47.6657C74.7589 47.575 74.7093 47.4556 74.7093 47.3076V45.9993H74.3528L73.9827 46.3144V47.3076C73.9827 47.6657 74.1091 47.9522 74.3573 48.1766C74.5423 48.3533 74.7635 48.4393 75.0207 48.4393L75.0252 48.4345ZM76.3162 46.0722C76.2395 46.1534 76.1492 46.1916 76.0409 46.1916C75.9371 46.1916 75.8514 46.1534 75.7747 46.0722C75.698 45.991 75.6618 45.8955 75.6618 45.7809C75.6618 45.6663 75.698 45.5708 75.7747 45.4897C75.8469 45.4085 75.9326 45.3703 76.0409 45.3703C76.1492 45.3703 76.2395 45.4085 76.3162 45.4897C76.3929 45.5708 76.429 45.6663 76.429 45.7809C76.429 45.8955 76.3929 45.991 76.3162 46.0722ZM76.9517 46.1916C77.0555 46.1916 77.1458 46.1534 77.218 46.0722C77.2902 45.991 77.3308 45.8955 77.3308 45.7809C77.3308 45.6663 77.2947 45.5708 77.218 45.4897C77.1412 45.4085 77.0555 45.3703 76.9517 45.3703C76.8479 45.3703 76.7531 45.4085 76.6764 45.4897C76.5997 45.5708 76.5636 45.6663 76.5636 45.7809C76.5636 45.8955 76.5997 45.991 76.6764 46.0722C76.7531 46.1534 76.8434 46.1916 76.9517 46.1916ZM80.5346 43.9372V48.2777L80.169 48.5928H79.8125V43.9372H80.5346ZM82.6067 48.2825V45.5417H81.8802V48.2109C81.8802 48.9319 81.5282 49.2901 80.8287 49.2901C80.7113 49.2901 80.585 49.2805 80.4586 49.2566V49.5288L80.7474 49.9108C80.8332 49.9204 80.9054 49.9251 80.955 49.9251C81.1085 49.9251 81.2574 49.9108 81.4018 49.8821C81.7087 49.8057 81.9569 49.6768 82.1509 49.4858C82.4533 49.1993 82.6022 48.7982 82.6022 48.2778L82.6067 48.2825ZM91.8491 47.7429V43.9372H91.1225V47.6378C91.1225 47.676 91.1135 47.7094 91.0909 47.7429C91.0593 47.7763 91.0187 47.7954 90.9736 47.7954H90.6532L89.6694 44.7108H88.9925L89.9717 47.7954H88.5277V48.0485L88.8255 48.44H91.2038C91.3933 48.44 91.5512 48.3636 91.6776 48.206C91.7904 48.0819 91.8446 47.9291 91.8446 47.7476L91.8491 47.7429ZM93.3922 43.9372V48.2777L93.0267 48.5928H92.6702V43.9372H93.3922ZM96.5106 44.9739C96.6189 44.9739 96.7091 44.9357 96.7859 44.8546C96.8626 44.7734 96.8987 44.6827 96.8987 44.5728C96.8987 44.463 96.8626 44.3627 96.7859 44.2816C96.7091 44.2004 96.6189 44.1622 96.5106 44.1622C96.4023 44.1622 96.312 44.2004 96.2353 44.2816C96.1586 44.3627 96.1225 44.4582 96.1225 44.5728C96.1225 44.6874 96.1586 44.7782 96.2353 44.8546C96.312 44.9357 96.4023 44.9739 96.5106 44.9739ZM97.6878 44.8546C97.6111 44.9357 97.5209 44.9739 97.4126 44.9739C97.3088 44.9739 97.223 44.9357 97.1463 44.8546C97.0696 44.7782 97.0335 44.6874 97.0335 44.5728C97.0335 44.4582 97.0696 44.3627 97.1463 44.2816C97.2185 44.2004 97.3043 44.1622 97.4126 44.1622C97.5209 44.1622 97.6111 44.2004 97.6878 44.2816C97.7646 44.3627 97.8007 44.463 97.8007 44.5728C97.8007 44.6827 97.7646 44.7734 97.6878 44.8546ZM99.1277 47.6378C99.1277 47.6808 99.1142 47.7142 99.0871 47.7429C99.0555 47.7763 99.0194 47.7954 98.9743 47.7954H97.9363C97.8957 47.7954 97.8641 47.7811 97.8416 47.7524C97.8145 47.7285 97.801 47.6903 97.801 47.6378V45.3745H97.4445L97.1872 45.5798C96.9796 45.4891 96.7766 45.4413 96.569 45.4413C96.1989 45.4413 95.8921 45.5798 95.6348 45.852C95.3595 46.1528 95.2196 46.5348 95.2196 46.9884C95.2196 47.485 95.3686 47.8861 95.6709 48.1822C95.8966 48.3923 96.1673 48.4973 96.4787 48.4973C96.754 48.4973 97.0067 48.397 97.2324 48.2013C97.3768 48.3541 97.5437 48.4352 97.7243 48.4352H99.2044C99.403 48.4352 99.561 48.3541 99.6873 48.1965C99.7956 48.0723 99.8498 47.9195 99.8498 47.7429V43.9372H99.1322V47.6378H99.1277ZM97.0744 47.7715C96.921 47.8384 96.772 47.8718 96.6276 47.8718C96.42 47.8718 96.2486 47.7906 96.1267 47.633C96.0004 47.4755 95.9417 47.2606 95.9417 46.998C95.9417 46.7353 96.0094 46.5205 96.1493 46.3533C96.2892 46.1862 96.4652 46.105 96.6773 46.105C96.8036 46.105 96.9345 46.1337 97.0744 46.1862V47.7667V47.7715ZM102.427 48.4105C102.26 48.463 102.093 48.4869 101.931 48.4869V48.4821C101.511 48.4821 101.173 48.3102 100.911 47.9664C100.699 47.6799 100.59 47.3409 100.59 46.9446C100.59 46.51 100.708 46.1615 100.951 45.8941C101.2 45.6123 101.538 45.4691 101.967 45.4691C102.283 45.4691 102.549 45.5551 102.761 45.7269C103.027 45.9323 103.163 46.2331 103.163 46.6294V48.2816C103.163 48.8259 103 49.2366 102.675 49.5278C102.49 49.695 102.256 49.8143 101.98 49.8812C101.84 49.9194 101.687 49.9337 101.515 49.9337C101.47 49.9337 101.403 49.9289 101.308 49.9194L101.019 49.5374V49.2652C101.145 49.2891 101.272 49.2986 101.394 49.2986C102.03 49.2986 102.377 49.0026 102.427 48.4105ZM101.967 46.1137C101.764 46.1137 101.601 46.1853 101.484 46.3381V46.3429C101.367 46.4909 101.308 46.6915 101.308 46.9637C101.308 47.2358 101.376 47.4507 101.506 47.6083C101.637 47.7659 101.818 47.8423 102.048 47.8423C102.174 47.8423 102.305 47.8184 102.441 47.7659V46.6342C102.441 46.4527 102.382 46.3143 102.269 46.2188C102.192 46.1471 102.089 46.1137 101.967 46.1137ZM106.033 48.2824C106.069 48.249 106.1 48.2156 106.132 48.1774H106.15L106.344 48.4352H107.526C107.725 48.4352 107.883 48.3541 108.009 48.1965C108.118 48.0723 108.172 47.9195 108.172 47.7429V43.9372H107.454V47.6378C107.454 47.6808 107.441 47.7142 107.414 47.7429C107.382 47.7763 107.346 47.7954 107.301 47.7954H106.272C106.272 47.7756 106.273 47.7517 106.274 47.7238V47.7237V47.7235V47.7234V47.7232V47.723V47.7227V47.7224C106.275 47.6831 106.276 47.6358 106.276 47.5805V46.9789C106.276 46.5634 106.15 46.2149 105.902 45.9379C105.622 45.6276 105.252 45.4748 104.796 45.4748C104.616 45.4748 104.462 45.4891 104.327 45.513V46.1242C104.395 46.1098 104.494 46.1003 104.629 46.1003C104.923 46.1146 105.144 46.2005 105.302 46.3629C105.469 46.5396 105.55 46.7688 105.55 47.06V47.6426C105.55 47.7476 105.5 47.8002 105.401 47.8002H103.727V48.44H105.631C105.775 48.44 105.911 48.3875 106.028 48.2872L106.033 48.2824ZM112.463 44.8546C112.386 44.9357 112.296 44.9739 112.188 44.9739C112.084 44.9739 111.998 44.9357 111.921 44.8546C111.845 44.7782 111.808 44.6874 111.808 44.5728C111.808 44.4582 111.845 44.3627 111.921 44.2816C111.993 44.2004 112.079 44.1622 112.188 44.1622C112.296 44.1622 112.386 44.2004 112.463 44.2816C112.54 44.3627 112.576 44.463 112.576 44.5728C112.576 44.6827 112.54 44.7734 112.463 44.8546ZM111.286 44.9739C111.394 44.9739 111.484 44.9357 111.561 44.8546C111.638 44.7734 111.674 44.6827 111.674 44.5728C111.674 44.463 111.638 44.3627 111.561 44.2816C111.484 44.2004 111.394 44.1622 111.286 44.1622C111.177 44.1622 111.087 44.2004 111.01 44.2816C110.934 44.3627 110.897 44.4582 110.897 44.5728C110.897 44.6874 110.934 44.7782 111.01 44.8546C111.087 44.9357 111.177 44.9739 111.286 44.9739ZM116.949 44.8546C116.873 44.9357 116.782 44.9739 116.674 44.9739C116.57 44.9739 116.485 44.9357 116.408 44.8546C116.331 44.7782 116.295 44.6874 116.295 44.5728C116.295 44.4582 116.336 44.3627 116.408 44.2816C116.48 44.2004 116.566 44.1622 116.674 44.1622C116.782 44.1622 116.873 44.2004 116.949 44.2816C117.026 44.3627 117.062 44.463 117.062 44.5728C117.062 44.6827 117.026 44.7734 116.949 44.8546ZM117.572 44.9739C117.681 44.9739 117.771 44.9357 117.848 44.8546C117.924 44.7734 117.96 44.6827 117.96 44.5728C117.96 44.463 117.924 44.3627 117.848 44.2816C117.771 44.2004 117.681 44.1622 117.572 44.1622C117.464 44.1622 117.374 44.2004 117.302 44.2816C117.229 44.3627 117.193 44.4582 117.193 44.5728C117.193 44.6874 117.229 44.7829 117.302 44.8593C117.374 44.9357 117.464 44.9739 117.572 44.9739ZM120.284 44.8546C120.208 44.9357 120.117 44.9739 120.009 44.9739C119.905 44.9739 119.819 44.9357 119.743 44.8546C119.666 44.7782 119.63 44.6874 119.63 44.5728C119.63 44.4582 119.666 44.3627 119.743 44.2816C119.815 44.2004 119.901 44.1622 120.009 44.1622C120.117 44.1622 120.208 44.2004 120.284 44.2816C120.361 44.3627 120.397 44.463 120.397 44.5728C120.397 44.6827 120.361 44.7734 120.284 44.8546ZM119.106 44.9739C119.214 44.9739 119.304 44.9357 119.381 44.8546C119.458 44.7734 119.494 44.6827 119.494 44.5728C119.494 44.463 119.458 44.3627 119.381 44.2816C119.304 44.2004 119.214 44.1622 119.106 44.1622C118.998 44.1622 118.907 44.2004 118.831 44.2816C118.754 44.3627 118.718 44.4582 118.718 44.5728C118.718 44.6874 118.754 44.7782 118.831 44.8546C118.907 44.9357 118.998 44.9739 119.106 44.9739ZM132.568 47.7429C132.568 47.9195 132.514 48.0723 132.405 48.1965H132.423C132.297 48.3541 132.139 48.4352 131.94 48.4352H130.573C130.397 48.4352 130.244 48.3684 130.117 48.2347C129.923 48.4973 129.666 48.6262 129.346 48.6262C128.998 48.6262 128.705 48.4925 128.466 48.2251H128.452L128.285 48.44H126.963L126.769 48.1822H126.755C126.62 48.3541 126.453 48.44 126.25 48.44H124.977L124.783 48.1822H124.765C124.634 48.3541 124.467 48.44 124.264 48.44H122.987L122.793 48.1822H122.775C122.644 48.3541 122.477 48.44 122.274 48.44H120.424L120.203 48.1822H120.189C120.054 48.3541 119.887 48.44 119.684 48.44H117.689C117.432 48.44 117.242 48.4114 117.129 48.3588H117.098C116.985 48.4114 116.8 48.44 116.538 48.44H114.729L114.503 48.1822H114.489C114.354 48.3541 114.187 48.44 113.984 48.44H112.504C112.323 48.44 112.156 48.3588 112.012 48.206C111.786 48.4018 111.534 48.5021 111.258 48.5021C110.947 48.5021 110.676 48.397 110.45 48.1869C110.148 47.8909 109.999 47.4898 109.999 46.9932C109.999 46.5396 110.139 46.1576 110.414 45.8568C110.672 45.5846 110.978 45.4461 111.348 45.4461C111.556 45.4461 111.759 45.4939 111.967 45.5846L112.224 45.3793H112.58V47.6426C112.58 47.6951 112.594 47.7333 112.621 47.7572C112.644 47.7858 112.675 47.8002 112.716 47.8002H113.754C113.799 47.8002 113.84 47.7811 113.871 47.7476C113.894 47.7094 113.907 47.6712 113.907 47.6426V43.942H114.625V47.8002H116.069C115.893 47.5471 115.803 47.2463 115.803 46.8881C115.803 46.5634 115.879 46.2865 116.033 46.0525C116.281 45.6658 116.642 45.4748 117.111 45.4748C117.468 45.4748 117.77 45.5941 118.009 45.8281C118.289 46.1003 118.429 46.4536 118.429 46.8881C118.429 47.2319 118.339 47.5375 118.163 47.8002H119.426C119.481 47.8002 119.521 47.7811 119.544 47.7476C119.58 47.7142 119.598 47.676 119.598 47.6235V45.5512H120.315V47.8002H122.03C122.13 47.8002 122.179 47.7476 122.179 47.6426V46.2722H122.906V47.6044C122.906 47.658 122.904 47.7016 122.903 47.7371V47.7374C122.902 47.762 122.901 47.7826 122.901 47.8002H124.025C124.124 47.8002 124.174 47.7476 124.174 47.6426V45.9093H124.896V47.5853C124.896 47.5975 124.895 47.6115 124.894 47.6273V47.6274V47.6274V47.6275V47.6276V47.6277V47.6277V47.6279V47.628V47.6281V47.6283C124.893 47.6491 124.891 47.673 124.891 47.6999V47.8002H126.006C126.105 47.8002 126.155 47.7476 126.155 47.6426V45.5512H126.882V47.8002H128.199C128.105 47.5566 128.055 47.2845 128.055 46.9836C128.055 46.487 128.199 46.105 128.488 45.8329C128.727 45.5989 129.039 45.4795 129.413 45.4795C129.752 45.4795 130.027 45.5655 130.239 45.7326C130.501 45.9379 130.632 46.2435 130.632 46.6351V47.6378C130.632 47.676 130.645 47.7094 130.663 47.7429C130.695 47.7811 130.731 47.7954 130.772 47.7954H131.697C131.742 47.7954 131.778 47.7763 131.81 47.7429C131.837 47.7142 131.85 47.6808 131.85 47.6378V43.9372H132.568V47.7429ZM111.407 47.8718C111.552 47.8718 111.7 47.8384 111.854 47.7715V47.7667V46.1862C111.714 46.1337 111.583 46.105 111.457 46.105C111.245 46.105 111.069 46.1862 110.929 46.3533C110.789 46.5205 110.721 46.7353 110.721 46.998C110.721 47.2606 110.78 47.4755 110.906 47.633C111.028 47.7906 111.2 47.8718 111.407 47.8718ZM117.116 47.7906C117.292 47.7667 117.436 47.6808 117.545 47.528H117.549C117.657 47.3752 117.712 47.189 117.712 46.9407C117.712 46.6924 117.657 46.4918 117.549 46.339C117.441 46.191 117.292 46.1146 117.116 46.1146C116.94 46.1146 116.795 46.191 116.687 46.339C116.579 46.487 116.525 46.6876 116.525 46.9407C116.525 47.1794 116.579 47.3752 116.687 47.528C116.795 47.6808 116.935 47.7715 117.116 47.7906ZM129.409 47.9816C129.58 47.9816 129.747 47.8957 129.91 47.7238H129.905V46.6303C129.905 46.4727 129.86 46.3486 129.77 46.2531C129.689 46.1576 129.567 46.1098 129.413 46.1098C129.219 46.1098 129.066 46.191 128.948 46.3486C128.831 46.5061 128.772 46.721 128.772 46.9884C128.772 47.2797 128.836 47.5184 128.953 47.7047C129.07 47.8909 129.224 47.9816 129.409 47.9816ZM134.107 48.2777V43.9372H133.385V48.5928H133.741L134.107 48.2777ZM139.247 46.0722C139.175 46.1534 139.085 46.1916 138.981 46.1916C138.873 46.1916 138.782 46.1534 138.706 46.0722C138.629 45.991 138.593 45.8955 138.593 45.7809C138.593 45.6663 138.629 45.5708 138.706 45.4897C138.782 45.4085 138.877 45.3703 138.981 45.3703C139.085 45.3703 139.17 45.4085 139.247 45.4897C139.324 45.5708 139.36 45.6663 139.36 45.7809C139.36 45.8955 139.319 45.991 139.247 46.0722ZM137.058 48.4345H140.384C140.582 48.4345 140.745 48.3533 140.871 48.191C140.975 48.0716 141.025 47.9188 141.025 47.7469V45.5504H140.303V47.6419C140.303 47.7469 140.253 47.7994 140.154 47.7994H137.202C137.085 47.7994 136.977 47.7565 136.886 47.6657C136.792 47.575 136.742 47.4556 136.742 47.3076V45.9993H136.385L136.015 46.3144V47.3076C136.015 47.6657 136.142 47.9522 136.39 48.1766C136.575 48.3533 136.796 48.4393 137.053 48.4393L137.058 48.4345ZM138.349 46.0722C138.272 46.1534 138.182 46.1916 138.074 46.1916C137.97 46.1916 137.884 46.1534 137.807 46.0722C137.731 45.991 137.695 45.8955 137.695 45.7809C137.695 45.6663 137.731 45.5708 137.807 45.4897C137.88 45.4085 137.965 45.3703 138.074 45.3703C138.182 45.3703 138.272 45.4085 138.349 45.4897C138.426 45.5708 138.462 45.6663 138.462 45.7809C138.462 45.8955 138.426 45.991 138.349 46.0722ZM142.871 48.4352H146.052L146.35 48.0437V47.7906H145.199C144.933 47.7906 144.734 47.676 144.595 47.4468C144.513 47.3036 144.468 47.1412 144.468 46.955C144.468 46.382 144.739 46.0955 145.28 46.0955C145.443 46.0955 145.637 46.1242 145.863 46.1767V45.575C145.637 45.5034 145.42 45.47 145.208 45.47C144.811 45.47 144.482 45.575 144.224 45.7851C143.904 46.043 143.742 46.4059 143.742 46.8834C143.742 47.0744 143.773 47.2606 143.832 47.4373C143.886 47.5901 143.949 47.7094 144.021 47.7954H142.717C142.668 47.7954 142.627 47.7763 142.604 47.7381C142.582 47.7142 142.568 47.6808 142.568 47.6378V43.9372H141.842V47.7429C141.842 47.9434 141.914 48.1153 142.054 48.2538C142.176 48.3732 142.32 48.4352 142.483 48.4352H142.871ZM159.807 48.4352H158.702V48.4305H158.44C158.264 48.4305 158.111 48.3636 157.984 48.2299C157.79 48.4925 157.533 48.6215 157.213 48.6215C156.865 48.6215 156.572 48.4878 156.333 48.2204H156.319L156.152 48.4352H154.83L154.636 48.1774H154.622C154.487 48.3493 154.32 48.4352 154.117 48.4352H152.844L152.65 48.1774H152.632C152.501 48.3493 152.334 48.4352 152.131 48.4352H150.854L150.66 48.1774H150.642C150.511 48.3493 150.344 48.4352 150.141 48.4352H148.327C148.295 48.9366 148.106 49.3234 147.763 49.5908C147.478 49.8152 147.126 49.925 146.711 49.925C146.679 49.925 146.644 49.9239 146.607 49.9228C146.566 49.9216 146.524 49.9203 146.481 49.9203L146.192 49.5383V49.2661C146.319 49.29 146.445 49.2995 146.562 49.2995C147.262 49.2995 147.614 48.9414 147.614 48.2204V45.5512H148.34V47.8002H149.915C150.015 47.8002 150.064 47.7476 150.064 47.6426V46.2722H150.791V47.6044C150.791 47.6581 150.789 47.7018 150.788 47.7374C150.787 47.762 150.786 47.7826 150.786 47.8002H151.91C152.009 47.8002 152.059 47.7476 152.059 47.6426V45.9093H152.781V47.5853C152.781 47.5978 152.78 47.6121 152.779 47.6283C152.778 47.6491 152.776 47.673 152.776 47.6999V47.8002H153.891C153.99 47.8002 154.04 47.7476 154.04 47.6426V45.5512H154.767V47.8002H156.084C155.99 47.5566 155.94 47.2845 155.94 46.9836C155.94 46.487 156.084 46.105 156.373 45.8329C156.612 45.5989 156.924 45.4795 157.298 45.4795C157.637 45.4795 157.912 45.5655 158.124 45.7326C158.386 45.9379 158.517 46.2435 158.517 46.6351V47.6378C158.517 47.676 158.53 47.7094 158.548 47.7429C158.58 47.7811 158.616 47.7954 158.657 47.7954H159.582C159.627 47.7954 159.663 47.7763 159.695 47.7429C159.722 47.7142 159.735 47.6808 159.735 47.6378V43.9372H160.453V47.7429C160.453 47.9195 160.399 48.0723 160.29 48.1965C160.164 48.3541 160.006 48.4352 159.807 48.4352ZM157.285 47.9816C157.456 47.9816 157.623 47.8957 157.786 47.7238H157.781V46.6303C157.781 46.4727 157.736 46.3486 157.646 46.2531C157.565 46.1576 157.443 46.1098 157.289 46.1098C157.095 46.1098 156.942 46.191 156.824 46.3486C156.707 46.5061 156.648 46.721 156.648 46.9884C156.648 47.2797 156.712 47.5184 156.829 47.7047C156.946 47.8909 157.1 47.9816 157.285 47.9816ZM161.991 48.2777V43.9372H161.265V48.5928H161.621L161.991 48.2777ZM1.72389 57.0117C2.26542 57.0117 2.61291 56.7538 2.61291 55.8896L2.60388 55.8943V53.6931H3.37557V55.9134C3.37557 57.1167 2.72573 57.6611 1.6923 57.6611C0.658869 57.6611 0 57.1454 0 55.9373V53.6883H0.776201V55.8896C0.776201 56.7777 1.23651 57.0117 1.72389 57.0117ZM5.35223 53.6883L3.84045 57.5751H4.6347L5.00475 56.5963H6.68351L7.07612 57.5751H7.91099L6.327 53.6883H5.35223ZM5.21685 55.9373C5.52372 55.1256 5.73582 54.5096 5.81705 54.2279H5.82157C5.90731 54.5144 6.08782 54.9871 6.4669 55.9373H5.21685ZM11.39 55.88H9.2916V56.9114H11.6202L11.5254 57.5751H8.51991V53.6883H11.5029V54.3472H9.2916V55.2163H11.39V55.88ZM14.7483 53.6883H13.9766V57.5751H14.7483V53.6883ZM18.6249 55.0015L18.625 54.8104V53.6883H19.3335V57.5751H18.4715C18.0609 56.9305 16.8018 54.9489 16.5671 54.5H16.5581C16.5897 54.9871 16.5897 55.541 16.5897 56.2286V57.5751H15.8812V53.6883H16.7973C17.2116 54.3418 17.5703 54.8846 17.8623 55.3264L17.8623 55.3265L17.8624 55.3266C18.2509 55.9145 18.5213 56.3236 18.6475 56.5771H18.6566C18.624 56.1818 18.6245 55.5814 18.6249 55.0023V55.0023V55.0023V55.0023V55.0022V55.0022V55.0022V55.0022V55.0022V55.0021V55.0021V55.0021V55.0021V55.0021V55.002V55.002V55.002V55.002V55.002V55.0019V55.0019V55.0019V55.0019V55.0019V55.0018V55.0018V55.0018V55.0018V55.0018V55.0017V55.0017V55.0017V55.0017V55.0017V55.0015ZM22.0809 53.6883H20.4699V57.5751H22.0674C23.1324 57.5751 23.9853 56.8111 23.9853 55.5649C23.9853 54.5287 23.3039 53.6883 22.0809 53.6883ZM21.9501 56.9353H21.2371V54.3281H21.9681C22.7443 54.3377 23.164 54.8104 23.164 55.5887C23.164 56.4339 22.7488 56.9353 21.9501 56.9353ZM27.7092 55.88H25.6108V56.9114H27.9394L27.8491 57.5751H24.8391V53.6883H27.8221V54.3472H25.6108V55.2163H27.7092V55.88ZM30.5613 53.6881H28.7156V57.5749H29.4918V56.1281H30.5568C31.4323 56.1281 31.9513 55.6697 31.9513 54.8818C31.9513 54.156 31.4323 53.6833 30.5613 53.6833V53.6881ZM30.4891 55.4835H29.4963V54.3279H30.4891C30.9675 54.3279 31.1841 54.5428 31.1841 54.8962C31.1841 55.3402 30.9088 55.4835 30.4891 55.4835ZM35.5841 55.88H33.4811V56.9114H35.8097L35.7195 57.5751H32.7094V53.6883H35.6969V54.3472H33.4811V55.2163H35.5841V55.88ZM39.3331 54.8104L39.333 55.0015C39.3326 55.5809 39.3322 56.1816 39.3647 56.5771H39.3556C39.2294 56.3236 38.959 55.9145 38.5705 55.3266C38.2785 54.8848 37.9198 54.3419 37.5054 53.6883H36.5893V57.5751H37.2978V56.2286C37.2978 55.541 37.2978 54.9871 37.2662 54.5H37.2752C37.5099 54.9489 38.769 56.9305 39.1796 57.5751H40.0416V53.6883H39.3331V54.8104ZM41.1746 53.6883H42.7857C44.0087 53.6883 44.6901 54.5287 44.6901 55.5649C44.6901 56.8111 43.8372 57.5751 42.7722 57.5751H41.1746V53.6883ZM41.9418 56.9353H42.6548C43.4536 56.9353 43.8688 56.4339 43.8688 55.5887C43.8688 54.8104 43.4491 54.3377 42.6729 54.3281H41.9418V56.9353ZM46.3189 55.88H48.4174V55.2163H46.3189V54.3472H48.5302V53.6883H45.5472V57.5751H48.5527L48.643 56.9114H46.3189V55.88ZM52.1674 55.0015L52.1675 54.8104V53.6883H52.876V57.5751H52.0141C51.6034 56.9305 50.3443 54.9489 50.1097 54.5H50.1006C50.1322 54.9871 50.1322 55.541 50.1322 56.2286V57.5751H49.4237V53.6883H50.3398C50.7542 54.3418 51.1129 54.8846 51.4049 55.3265L51.405 55.3266L51.405 55.3267L51.4051 55.3268L51.4053 55.327C51.7936 55.9147 52.0639 56.3237 52.1901 56.5771H52.1991C52.1666 56.1816 52.167 55.5809 52.1674 55.0015ZM53.5443 54.3472H54.871V57.5751H55.6472V54.3472H56.9695V53.6883H53.5443V54.3472ZM61.9059 54.8901C61.8067 54.6084 61.5765 54.2455 60.9176 54.2455L60.9131 54.2407C60.1775 54.2407 59.7714 54.828 59.7714 55.5968C59.7714 56.3656 60.155 57.0102 60.9222 57.0102C61.4998 57.0102 61.7435 56.7667 61.9059 56.3656H62.6821C62.5016 57.0436 62.0052 57.6501 60.8861 57.6501C59.5999 57.6501 58.9591 56.7046 58.9591 55.6302C58.9591 54.5559 59.6676 53.6009 60.9267 53.6009C62.0323 53.6009 62.5738 54.2455 62.6912 54.8901H61.9059ZM64.3255 53.6883H63.5584V57.5751H66.3292L66.433 56.9114H64.3255V53.6883ZM67.0734 53.6883H67.8451V57.5751H67.0734V53.6883ZM71.0449 56.6152H71.0462C71.1518 56.244 71.3674 55.6181 71.6124 54.9071L71.6125 54.9068C71.7469 54.5168 71.89 54.1013 72.0287 53.6881H73.1479V57.5749H72.4032V56.0278C72.4032 55.3402 72.4033 54.6383 72.4258 54.2181H72.4213C72.2869 54.7192 72.0076 55.5588 71.6838 56.5322L71.6822 56.537L71.6798 56.5441C71.5697 56.8751 71.4546 57.2213 71.3382 57.5749H70.6613C70.4734 56.9324 70.2468 56.2177 70.0462 55.585L70.0462 55.5849C69.8711 55.0327 69.7159 54.543 69.6234 54.2181H69.6189C69.6504 54.667 69.6775 55.4453 69.6775 56.1042V57.5702H68.978V53.6833H70.0927C70.1902 53.9748 70.2891 54.2663 70.3845 54.5478L70.3861 54.5525L70.3876 54.5569L70.3883 54.559L70.3897 54.563C70.6939 55.4602 70.9628 56.2531 71.0449 56.6152ZM73.7574 57.5751L75.2692 53.6883H76.2439L77.8279 57.5751H76.993L76.6004 56.5963H74.9217L74.5516 57.5751H73.7574ZM75.734 54.2279C75.6528 54.5096 75.4407 55.1256 75.1338 55.9373H76.3838C76.0047 54.9871 75.8242 54.5144 75.7385 54.2279H75.734ZM77.5292 54.3472H78.8559V57.5751H79.6276V54.3472H80.9544V53.6883H77.5292V54.3472ZM84.4616 55.88H82.3587V56.9114H84.6873L84.597 57.5751H81.587V53.6883H84.5699V54.3472H82.3587V55.2163H84.4616V55.88ZM88.7757 54.2455C89.4346 54.2455 89.6648 54.6084 89.764 54.8901H90.5493C90.4319 54.2455 89.8904 53.6009 88.7848 53.6009C87.5257 53.6009 86.8172 54.5559 86.8172 55.6302C86.8172 56.7046 87.458 57.6501 88.7441 57.6501C89.8633 57.6501 90.3597 57.0436 90.5402 56.3656H89.764C89.6016 56.7667 89.3579 57.0102 88.7803 57.0102C88.0131 57.0102 87.6295 56.3656 87.6295 55.5968C87.6295 54.828 88.0356 54.2407 88.7712 54.2407L88.7757 54.2455ZM92.1868 55.1829H94.0461V53.6883H94.8178V57.5751H94.0461V55.8418H92.1868V57.5751H91.4151V53.6883H92.1868V55.1829ZM96.9533 53.6883L95.4415 57.5751H96.2358L96.6058 56.5963H98.2846L98.6772 57.5751H99.5121L97.9281 53.6883H96.9533ZM96.8179 55.9373C97.1248 55.1256 97.3369 54.5096 97.4181 54.2279H97.4226C97.5084 54.5144 97.6889 54.9871 98.068 55.9373H96.8179ZM102.865 55.0017L102.865 54.8104V53.6883H103.573V57.5751H102.711C102.301 56.9305 101.042 54.9489 100.807 54.5H100.798C100.829 54.987 100.829 55.5407 100.829 56.2281V56.2286V57.5751H100.121V53.6883H101.037C101.452 54.3419 101.81 54.8848 102.102 55.3267C102.491 55.9145 102.761 56.3236 102.887 56.5771H102.896C102.864 56.1816 102.864 55.581 102.865 55.0017ZM106.425 54.2328C107.066 54.2328 107.31 54.5718 107.405 54.8249H108.185C108.077 54.2566 107.581 53.6072 106.425 53.6072C105.139 53.6072 104.426 54.5145 104.426 55.6509C104.426 56.7874 105.103 57.6564 106.286 57.6564C106.985 57.6564 107.319 57.4511 107.558 57.1168C107.567 57.2649 107.59 57.4845 107.612 57.5705H108.181V55.374H106.443V56.0138H107.432V56.095C107.432 56.6585 107.098 57.0213 106.43 57.0213C105.631 57.0213 105.243 56.4149 105.243 55.6032C105.243 54.8344 105.622 54.228 106.425 54.228V54.2328ZM112.071 55.88H109.968V56.9114H112.297L112.206 57.5751H109.196V53.6883H112.179V54.3472H109.968V55.2163H112.071V55.88ZM115.69 53.6883L114.178 57.5751H114.972L115.342 56.5963H117.021L117.413 57.5751H118.248L116.664 53.6883H115.69ZM115.554 55.9373C115.861 55.1256 116.073 54.5096 116.154 54.2279H116.159C116.245 54.5144 116.425 54.9871 116.804 55.9373H115.554ZM121.521 54.8901C121.421 54.6084 121.191 54.2455 120.532 54.2455L120.528 54.2407C119.792 54.2407 119.386 54.828 119.386 55.5968C119.386 56.3656 119.77 57.0102 120.537 57.0102C121.114 57.0102 121.358 56.7667 121.521 56.3656H122.297C122.116 57.0436 121.62 57.6501 120.501 57.6501C119.214 57.6501 118.574 56.7046 118.574 55.6302C118.574 54.5559 119.282 53.6009 120.541 53.6009C121.647 53.6009 122.188 54.2455 122.306 54.8901H121.521ZM124.909 54.2455C125.568 54.2455 125.798 54.6084 125.898 54.8901H126.683C126.566 54.2455 126.024 53.6009 124.918 53.6009C123.659 53.6009 122.951 54.5559 122.951 55.6302C122.951 56.7046 123.592 57.6501 124.878 57.6501C125.997 57.6501 126.493 57.0436 126.674 56.3656H125.898C125.735 56.7667 125.492 57.0102 124.914 57.0102C124.147 57.0102 123.763 56.3656 123.763 55.5968C123.763 54.828 124.169 54.2407 124.905 54.2407L124.909 54.2455ZM130.42 55.88H128.317V56.9114H130.646L130.556 57.5751H127.546V53.6883H130.528V54.3472H128.317V55.2163H130.42V55.88ZM132.194 53.6883H131.422V57.5751H134.197L134.301 56.9114H132.194V53.6883ZM137.812 55.88H135.709V56.9114H138.037L137.947 57.5751H134.937V53.6883H137.925V54.3472H135.709V55.2163H137.812V55.88ZM142.049 54.7768C142.049 54.1035 141.557 53.6833 140.741 53.6833H138.818V57.5702H139.581V56.0135H140.411C140.98 56.0135 141.142 56.1806 141.142 56.6343V56.7632C141.142 57.15 141.142 57.3983 141.205 57.5702H141.995C141.949 57.407 141.95 57.1297 141.95 56.8701L141.95 56.8062V56.6199C141.95 55.9276 141.575 55.7604 141.395 55.6984C141.788 55.5742 142.045 55.2686 142.045 54.7768H142.049ZM140.565 55.3928H139.585V54.3088H140.578C141.043 54.3088 141.264 54.4951 141.264 54.8389C141.264 55.2113 141.047 55.3928 140.569 55.3928H140.565ZM142.515 57.5751L144.026 53.6883H145.001L146.585 57.5751H145.75L145.358 56.5963H143.679L143.309 57.5751H142.515ZM144.491 54.2279C144.41 54.5096 144.198 55.1256 143.891 55.9373H145.141C144.762 54.9871 144.581 54.5144 144.496 54.2279H144.491ZM146.291 54.3472H147.618V57.5751H148.389V54.3472H149.716V53.6883H146.291V54.3472ZM150.025 55.6159C150.025 54.547 150.782 53.602 152.003 53.6009C153.252 53.602 153.96 54.5326 153.96 55.6159C153.96 56.6998 153.274 57.6548 151.97 57.6548C150.747 57.6548 150.025 56.7524 150.025 55.6159ZM150.841 55.6016C150.841 56.3704 151.239 57.0054 152.015 57.0054V57.0007C152.804 57.0007 153.147 56.3465 153.147 55.6207C153.147 54.8949 152.777 54.2455 151.979 54.2455C151.216 54.2455 150.841 54.8949 150.841 55.6016ZM158.047 54.7768C158.047 54.1035 157.555 53.6833 156.738 53.6833H154.816V57.5702H155.578V56.0135H156.409C156.977 56.0135 157.14 56.1806 157.14 56.6343V56.7632C157.14 57.15 157.14 57.3983 157.203 57.5702H157.993C157.947 57.407 157.947 57.1297 157.947 56.8701L157.947 56.8062V56.6199C157.947 55.9276 157.573 55.7604 157.392 55.6984C157.785 55.5742 158.042 55.2686 158.042 54.7768H158.047ZM156.562 55.3928H155.583V54.3088H156.576C157.04 54.3088 157.262 54.4951 157.262 54.8389C157.262 55.2113 157.045 55.3928 156.567 55.3928H156.562ZM159.522 54.6671C159.522 54.925 159.676 55.0634 160.411 55.2019V55.1971C161.783 55.455 162 55.899 162 56.4529C162 57.1071 161.513 57.6467 160.321 57.6467C159.211 57.6467 158.692 57.1214 158.579 56.4147H159.355C159.468 56.7872 159.771 57.0403 160.389 57.0403C161.007 57.0403 161.21 56.8206 161.21 56.5341C161.21 56.2285 161.03 56.0518 160.199 55.9038C158.981 55.6842 158.737 55.2687 158.737 54.7435C158.737 53.9986 159.414 53.6023 160.258 53.6023C161.499 53.6023 161.824 54.2803 161.865 54.7149H161.088C161.03 54.5 160.894 54.2135 160.235 54.2135C159.78 54.2135 159.522 54.3711 159.522 54.6671Z" fill="#054F73"/>
</svg>
